<?xml version="1.0" encoding="utf-8"?>
<svg xmlns="http://www.w3.org/2000/svg" xmlns:xlink="http://www.w3.org/1999/xlink" width="1000" height="400" viewBox="0 0 4000 1600">
<defs>
  <clipPath id="clip420">
    <rect x="0" y="0" width="4000" height="1600"/>
  </clipPath>
</defs>
<path clip-path="url(#clip420)" d="
M0 1600 L4000 1600 L4000 0 L0 0  Z
  " fill="#ffffff" fill-rule="evenodd" fill-opacity="1"/>
<defs>
  <clipPath id="clip421">
    <rect x="800" y="0" width="2801" height="1600"/>
  </clipPath>
</defs>
<path clip-path="url(#clip420)" d="
M209.936 1500.27 L3952.76 1500.27 L3952.76 47.2441 L209.936 47.2441  Z
  " fill="#ffffff" fill-rule="evenodd" fill-opacity="1"/>
<defs>
  <clipPath id="clip422">
    <rect x="209" y="47" width="3744" height="1454"/>
  </clipPath>
</defs>
<polyline clip-path="url(#clip422)" style="stroke:#222255; stroke-width:2; stroke-opacity:0.1; fill:none" points="
  283.042,1500.27 283.042,47.2441 
  "/>
<polyline clip-path="url(#clip422)" style="stroke:#222255; stroke-width:2; stroke-opacity:0.1; fill:none" points="
  1182.19,1500.27 1182.19,47.2441 
  "/>
<polyline clip-path="url(#clip422)" style="stroke:#222255; stroke-width:2; stroke-opacity:0.1; fill:none" points="
  2081.35,1500.27 2081.35,47.2441 
  "/>
<polyline clip-path="url(#clip422)" style="stroke:#222255; stroke-width:2; stroke-opacity:0.1; fill:none" points="
  2980.5,1500.27 2980.5,47.2441 
  "/>
<polyline clip-path="url(#clip422)" style="stroke:#222255; stroke-width:2; stroke-opacity:0.1; fill:none" points="
  3879.65,1500.27 3879.65,47.2441 
  "/>
<polyline clip-path="url(#clip422)" style="stroke:#222255; stroke-width:2; stroke-opacity:0.05; fill:none" points="
  462.872,1500.27 462.872,47.2441 
  "/>
<polyline clip-path="url(#clip422)" style="stroke:#222255; stroke-width:2; stroke-opacity:0.05; fill:none" points="
  642.703,1500.27 642.703,47.2441 
  "/>
<polyline clip-path="url(#clip422)" style="stroke:#222255; stroke-width:2; stroke-opacity:0.05; fill:none" points="
  822.533,1500.27 822.533,47.2441 
  "/>
<polyline clip-path="url(#clip422)" style="stroke:#222255; stroke-width:2; stroke-opacity:0.05; fill:none" points="
  1002.36,1500.27 1002.36,47.2441 
  "/>
<polyline clip-path="url(#clip422)" style="stroke:#222255; stroke-width:2; stroke-opacity:0.05; fill:none" points="
  1362.02,1500.27 1362.02,47.2441 
  "/>
<polyline clip-path="url(#clip422)" style="stroke:#222255; stroke-width:2; stroke-opacity:0.05; fill:none" points="
  1541.85,1500.27 1541.85,47.2441 
  "/>
<polyline clip-path="url(#clip422)" style="stroke:#222255; stroke-width:2; stroke-opacity:0.05; fill:none" points="
  1721.69,1500.27 1721.69,47.2441 
  "/>
<polyline clip-path="url(#clip422)" style="stroke:#222255; stroke-width:2; stroke-opacity:0.05; fill:none" points="
  1901.52,1500.27 1901.52,47.2441 
  "/>
<polyline clip-path="url(#clip422)" style="stroke:#222255; stroke-width:2; stroke-opacity:0.05; fill:none" points="
  2261.18,1500.27 2261.18,47.2441 
  "/>
<polyline clip-path="url(#clip422)" style="stroke:#222255; stroke-width:2; stroke-opacity:0.05; fill:none" points="
  2441.01,1500.27 2441.01,47.2441 
  "/>
<polyline clip-path="url(#clip422)" style="stroke:#222255; stroke-width:2; stroke-opacity:0.05; fill:none" points="
  2620.84,1500.27 2620.84,47.2441 
  "/>
<polyline clip-path="url(#clip422)" style="stroke:#222255; stroke-width:2; stroke-opacity:0.05; fill:none" points="
  2800.67,1500.27 2800.67,47.2441 
  "/>
<polyline clip-path="url(#clip422)" style="stroke:#222255; stroke-width:2; stroke-opacity:0.05; fill:none" points="
  3160.33,1500.27 3160.33,47.2441 
  "/>
<polyline clip-path="url(#clip422)" style="stroke:#222255; stroke-width:2; stroke-opacity:0.05; fill:none" points="
  3340.16,1500.27 3340.16,47.2441 
  "/>
<polyline clip-path="url(#clip422)" style="stroke:#222255; stroke-width:2; stroke-opacity:0.05; fill:none" points="
  3519.99,1500.27 3519.99,47.2441 
  "/>
<polyline clip-path="url(#clip422)" style="stroke:#222255; stroke-width:2; stroke-opacity:0.05; fill:none" points="
  3699.82,1500.27 3699.82,47.2441 
  "/>
<polyline clip-path="url(#clip420)" style="stroke:#222255; stroke-width:4; stroke-opacity:0; fill:none" points="
  283.042,1500.27 283.042,1482.84 
  "/>
<polyline clip-path="url(#clip420)" style="stroke:#222255; stroke-width:4; stroke-opacity:0; fill:none" points="
  1182.19,1500.27 1182.19,1482.84 
  "/>
<polyline clip-path="url(#clip420)" style="stroke:#222255; stroke-width:4; stroke-opacity:0; fill:none" points="
  2081.35,1500.27 2081.35,1482.84 
  "/>
<polyline clip-path="url(#clip420)" style="stroke:#222255; stroke-width:4; stroke-opacity:0; fill:none" points="
  2980.5,1500.27 2980.5,1482.84 
  "/>
<polyline clip-path="url(#clip420)" style="stroke:#222255; stroke-width:4; stroke-opacity:0; fill:none" points="
  3879.65,1500.27 3879.65,1482.84 
  "/>
<polyline clip-path="url(#clip420)" style="stroke:#222255; stroke-width:4; stroke-opacity:0; fill:none" points="
  462.872,1500.27 462.872,1491.55 
  "/>
<polyline clip-path="url(#clip420)" style="stroke:#222255; stroke-width:4; stroke-opacity:0; fill:none" points="
  642.703,1500.27 642.703,1491.55 
  "/>
<polyline clip-path="url(#clip420)" style="stroke:#222255; stroke-width:4; stroke-opacity:0; fill:none" points="
  822.533,1500.27 822.533,1491.55 
  "/>
<polyline clip-path="url(#clip420)" style="stroke:#222255; stroke-width:4; stroke-opacity:0; fill:none" points="
  1002.36,1500.27 1002.36,1491.55 
  "/>
<polyline clip-path="url(#clip420)" style="stroke:#222255; stroke-width:4; stroke-opacity:0; fill:none" points="
  1362.02,1500.27 1362.02,1491.55 
  "/>
<polyline clip-path="url(#clip420)" style="stroke:#222255; stroke-width:4; stroke-opacity:0; fill:none" points="
  1541.85,1500.27 1541.85,1491.55 
  "/>
<polyline clip-path="url(#clip420)" style="stroke:#222255; stroke-width:4; stroke-opacity:0; fill:none" points="
  1721.69,1500.27 1721.69,1491.55 
  "/>
<polyline clip-path="url(#clip420)" style="stroke:#222255; stroke-width:4; stroke-opacity:0; fill:none" points="
  1901.52,1500.27 1901.52,1491.55 
  "/>
<polyline clip-path="url(#clip420)" style="stroke:#222255; stroke-width:4; stroke-opacity:0; fill:none" points="
  2261.18,1500.27 2261.18,1491.55 
  "/>
<polyline clip-path="url(#clip420)" style="stroke:#222255; stroke-width:4; stroke-opacity:0; fill:none" points="
  2441.01,1500.27 2441.01,1491.55 
  "/>
<polyline clip-path="url(#clip420)" style="stroke:#222255; stroke-width:4; stroke-opacity:0; fill:none" points="
  2620.84,1500.27 2620.84,1491.55 
  "/>
<polyline clip-path="url(#clip420)" style="stroke:#222255; stroke-width:4; stroke-opacity:0; fill:none" points="
  2800.67,1500.27 2800.67,1491.55 
  "/>
<polyline clip-path="url(#clip420)" style="stroke:#222255; stroke-width:4; stroke-opacity:0; fill:none" points="
  3160.33,1500.27 3160.33,1491.55 
  "/>
<polyline clip-path="url(#clip420)" style="stroke:#222255; stroke-width:4; stroke-opacity:0; fill:none" points="
  3340.16,1500.27 3340.16,1491.55 
  "/>
<polyline clip-path="url(#clip420)" style="stroke:#222255; stroke-width:4; stroke-opacity:0; fill:none" points="
  3519.99,1500.27 3519.99,1491.55 
  "/>
<polyline clip-path="url(#clip420)" style="stroke:#222255; stroke-width:4; stroke-opacity:0; fill:none" points="
  3699.82,1500.27 3699.82,1491.55 
  "/>
<path clip-path="url(#clip420)" d="M 0 0 M251.942 1556.92 L281.618 1556.92 L281.618 1560.85 L251.942 1560.85 L251.942 1556.92 Z" fill="#000000" fill-rule="evenodd" fill-opacity="1" /><path clip-path="url(#clip420)" d="M 0 0 M304.558 1543.26 L292.752 1561.71 L304.558 1561.71 L304.558 1543.26 M303.331 1539.18 L309.211 1539.18 L309.211 1561.71 L314.141 1561.71 L314.141 1565.6 L309.211 1565.6 L309.211 1573.74 L304.558 1573.74 L304.558 1565.6 L288.956 1565.6 L288.956 1561.08 L303.331 1539.18 Z" fill="#000000" fill-rule="evenodd" fill-opacity="1" /><path clip-path="url(#clip420)" d="M 0 0 M1152.14 1556.92 L1181.81 1556.92 L1181.81 1560.85 L1152.14 1560.85 L1152.14 1556.92 Z" fill="#000000" fill-rule="evenodd" fill-opacity="1" /><path clip-path="url(#clip420)" d="M 0 0 M1195.93 1569.81 L1212.25 1569.81 L1212.25 1573.74 L1190.31 1573.74 L1190.31 1569.81 Q1192.97 1567.05 1197.55 1562.42 Q1202.16 1557.77 1203.34 1556.43 Q1205.58 1553.91 1206.46 1552.17 Q1207.37 1550.41 1207.37 1548.72 Q1207.37 1545.97 1205.42 1544.23 Q1203.5 1542.49 1200.4 1542.49 Q1198.2 1542.49 1195.75 1543.26 Q1193.32 1544.02 1190.54 1545.57 L1190.54 1540.85 Q1193.36 1539.72 1195.82 1539.14 Q1198.27 1538.56 1200.31 1538.56 Q1205.68 1538.56 1208.87 1541.24 Q1212.07 1543.93 1212.07 1548.42 Q1212.07 1550.55 1211.26 1552.47 Q1210.47 1554.37 1208.36 1556.96 Q1207.78 1557.63 1204.68 1560.85 Q1201.58 1564.04 1195.93 1569.81 Z" fill="#000000" fill-rule="evenodd" fill-opacity="1" /><path clip-path="url(#clip420)" d="M 0 0 M2081.35 1542.26 Q2077.73 1542.26 2075.91 1545.83 Q2074.1 1549.37 2074.1 1556.5 Q2074.1 1563.61 2075.91 1567.17 Q2077.73 1570.71 2081.35 1570.71 Q2084.98 1570.71 2086.79 1567.17 Q2088.61 1563.61 2088.61 1556.5 Q2088.61 1549.37 2086.79 1545.83 Q2084.98 1542.26 2081.35 1542.26 M2081.35 1538.56 Q2087.16 1538.56 2090.21 1543.17 Q2093.29 1547.75 2093.29 1556.5 Q2093.29 1565.23 2090.21 1569.83 Q2087.16 1574.42 2081.35 1574.42 Q2075.54 1574.42 2072.46 1569.83 Q2069.4 1565.23 2069.4 1556.5 Q2069.4 1547.75 2072.46 1543.17 Q2075.54 1538.56 2081.35 1538.56 Z" fill="#000000" fill-rule="evenodd" fill-opacity="1" /><path clip-path="url(#clip420)" d="M 0 0 M2975.15 1569.81 L2991.47 1569.81 L2991.47 1573.74 L2969.53 1573.74 L2969.53 1569.81 Q2972.19 1567.05 2976.77 1562.42 Q2981.38 1557.77 2982.56 1556.43 Q2984.8 1553.91 2985.68 1552.17 Q2986.59 1550.41 2986.59 1548.72 Q2986.59 1545.97 2984.64 1544.23 Q2982.72 1542.49 2979.62 1542.49 Q2977.42 1542.49 2974.97 1543.26 Q2972.54 1544.02 2969.76 1545.57 L2969.76 1540.85 Q2972.58 1539.72 2975.04 1539.14 Q2977.49 1538.56 2979.53 1538.56 Q2984.9 1538.56 2988.09 1541.24 Q2991.29 1543.93 2991.29 1548.42 Q2991.29 1550.55 2990.47 1552.47 Q2989.69 1554.37 2987.58 1556.96 Q2987 1557.63 2983.9 1560.85 Q2980.8 1564.04 2975.15 1569.81 Z" fill="#000000" fill-rule="evenodd" fill-opacity="1" /><path clip-path="url(#clip420)" d="M 0 0 M3882.66 1543.26 L3870.85 1561.71 L3882.66 1561.71 L3882.66 1543.26 M3881.43 1539.18 L3887.31 1539.18 L3887.31 1561.71 L3892.24 1561.71 L3892.24 1565.6 L3887.31 1565.6 L3887.31 1573.74 L3882.66 1573.74 L3882.66 1565.6 L3867.06 1565.6 L3867.06 1561.08 L3881.43 1539.18 Z" fill="#000000" fill-rule="evenodd" fill-opacity="1" /><polyline clip-path="url(#clip422)" style="stroke:#222255; stroke-width:2; stroke-opacity:0.1; fill:none" points="
  209.936,1402.27 3952.76,1402.27 
  "/>
<polyline clip-path="url(#clip422)" style="stroke:#222255; stroke-width:2; stroke-opacity:0.1; fill:none" points="
  209.936,1098.28 3952.76,1098.28 
  "/>
<polyline clip-path="url(#clip422)" style="stroke:#222255; stroke-width:2; stroke-opacity:0.1; fill:none" points="
  209.936,794.299 3952.76,794.299 
  "/>
<polyline clip-path="url(#clip422)" style="stroke:#222255; stroke-width:2; stroke-opacity:0.1; fill:none" points="
  209.936,490.315 3952.76,490.315 
  "/>
<polyline clip-path="url(#clip422)" style="stroke:#222255; stroke-width:2; stroke-opacity:0.1; fill:none" points="
  209.936,186.331 3952.76,186.331 
  "/>
<polyline clip-path="url(#clip422)" style="stroke:#222255; stroke-width:2; stroke-opacity:0.05; fill:none" points="
  209.936,1463.06 3952.76,1463.06 
  "/>
<polyline clip-path="url(#clip422)" style="stroke:#222255; stroke-width:2; stroke-opacity:0.05; fill:none" points="
  209.936,1341.47 3952.76,1341.47 
  "/>
<polyline clip-path="url(#clip422)" style="stroke:#222255; stroke-width:2; stroke-opacity:0.05; fill:none" points="
  209.936,1280.67 3952.76,1280.67 
  "/>
<polyline clip-path="url(#clip422)" style="stroke:#222255; stroke-width:2; stroke-opacity:0.05; fill:none" points="
  209.936,1219.88 3952.76,1219.88 
  "/>
<polyline clip-path="url(#clip422)" style="stroke:#222255; stroke-width:2; stroke-opacity:0.05; fill:none" points="
  209.936,1159.08 3952.76,1159.08 
  "/>
<polyline clip-path="url(#clip422)" style="stroke:#222255; stroke-width:2; stroke-opacity:0.05; fill:none" points="
  209.936,1037.49 3952.76,1037.49 
  "/>
<polyline clip-path="url(#clip422)" style="stroke:#222255; stroke-width:2; stroke-opacity:0.05; fill:none" points="
  209.936,976.689 3952.76,976.689 
  "/>
<polyline clip-path="url(#clip422)" style="stroke:#222255; stroke-width:2; stroke-opacity:0.05; fill:none" points="
  209.936,915.893 3952.76,915.893 
  "/>
<polyline clip-path="url(#clip422)" style="stroke:#222255; stroke-width:2; stroke-opacity:0.05; fill:none" points="
  209.936,855.096 3952.76,855.096 
  "/>
<polyline clip-path="url(#clip422)" style="stroke:#222255; stroke-width:2; stroke-opacity:0.05; fill:none" points="
  209.936,733.502 3952.76,733.502 
  "/>
<polyline clip-path="url(#clip422)" style="stroke:#222255; stroke-width:2; stroke-opacity:0.05; fill:none" points="
  209.936,672.705 3952.76,672.705 
  "/>
<polyline clip-path="url(#clip422)" style="stroke:#222255; stroke-width:2; stroke-opacity:0.05; fill:none" points="
  209.936,611.909 3952.76,611.909 
  "/>
<polyline clip-path="url(#clip422)" style="stroke:#222255; stroke-width:2; stroke-opacity:0.05; fill:none" points="
  209.936,551.112 3952.76,551.112 
  "/>
<polyline clip-path="url(#clip422)" style="stroke:#222255; stroke-width:2; stroke-opacity:0.05; fill:none" points="
  209.936,429.518 3952.76,429.518 
  "/>
<polyline clip-path="url(#clip422)" style="stroke:#222255; stroke-width:2; stroke-opacity:0.05; fill:none" points="
  209.936,368.721 3952.76,368.721 
  "/>
<polyline clip-path="url(#clip422)" style="stroke:#222255; stroke-width:2; stroke-opacity:0.05; fill:none" points="
  209.936,307.924 3952.76,307.924 
  "/>
<polyline clip-path="url(#clip422)" style="stroke:#222255; stroke-width:2; stroke-opacity:0.05; fill:none" points="
  209.936,247.128 3952.76,247.128 
  "/>
<polyline clip-path="url(#clip422)" style="stroke:#222255; stroke-width:2; stroke-opacity:0.05; fill:none" points="
  209.936,125.534 3952.76,125.534 
  "/>
<polyline clip-path="url(#clip422)" style="stroke:#222255; stroke-width:2; stroke-opacity:0.05; fill:none" points="
  209.936,64.7372 3952.76,64.7372 
  "/>
<polyline clip-path="url(#clip420)" style="stroke:#222255; stroke-width:4; stroke-opacity:0; fill:none" points="
  209.936,1402.27 254.85,1402.27 
  "/>
<polyline clip-path="url(#clip420)" style="stroke:#222255; stroke-width:4; stroke-opacity:0; fill:none" points="
  209.936,1098.28 254.85,1098.28 
  "/>
<polyline clip-path="url(#clip420)" style="stroke:#222255; stroke-width:4; stroke-opacity:0; fill:none" points="
  209.936,794.299 254.85,794.299 
  "/>
<polyline clip-path="url(#clip420)" style="stroke:#222255; stroke-width:4; stroke-opacity:0; fill:none" points="
  209.936,490.315 254.85,490.315 
  "/>
<polyline clip-path="url(#clip420)" style="stroke:#222255; stroke-width:4; stroke-opacity:0; fill:none" points="
  209.936,186.331 254.85,186.331 
  "/>
<polyline clip-path="url(#clip420)" style="stroke:#222255; stroke-width:4; stroke-opacity:0; fill:none" points="
  209.936,1463.06 232.393,1463.06 
  "/>
<polyline clip-path="url(#clip420)" style="stroke:#222255; stroke-width:4; stroke-opacity:0; fill:none" points="
  209.936,1341.47 232.393,1341.47 
  "/>
<polyline clip-path="url(#clip420)" style="stroke:#222255; stroke-width:4; stroke-opacity:0; fill:none" points="
  209.936,1280.67 232.393,1280.67 
  "/>
<polyline clip-path="url(#clip420)" style="stroke:#222255; stroke-width:4; stroke-opacity:0; fill:none" points="
  209.936,1219.88 232.393,1219.88 
  "/>
<polyline clip-path="url(#clip420)" style="stroke:#222255; stroke-width:4; stroke-opacity:0; fill:none" points="
  209.936,1159.08 232.393,1159.08 
  "/>
<polyline clip-path="url(#clip420)" style="stroke:#222255; stroke-width:4; stroke-opacity:0; fill:none" points="
  209.936,1037.49 232.393,1037.49 
  "/>
<polyline clip-path="url(#clip420)" style="stroke:#222255; stroke-width:4; stroke-opacity:0; fill:none" points="
  209.936,976.689 232.393,976.689 
  "/>
<polyline clip-path="url(#clip420)" style="stroke:#222255; stroke-width:4; stroke-opacity:0; fill:none" points="
  209.936,915.893 232.393,915.893 
  "/>
<polyline clip-path="url(#clip420)" style="stroke:#222255; stroke-width:4; stroke-opacity:0; fill:none" points="
  209.936,855.096 232.393,855.096 
  "/>
<polyline clip-path="url(#clip420)" style="stroke:#222255; stroke-width:4; stroke-opacity:0; fill:none" points="
  209.936,733.502 232.393,733.502 
  "/>
<polyline clip-path="url(#clip420)" style="stroke:#222255; stroke-width:4; stroke-opacity:0; fill:none" points="
  209.936,672.705 232.393,672.705 
  "/>
<polyline clip-path="url(#clip420)" style="stroke:#222255; stroke-width:4; stroke-opacity:0; fill:none" points="
  209.936,611.909 232.393,611.909 
  "/>
<polyline clip-path="url(#clip420)" style="stroke:#222255; stroke-width:4; stroke-opacity:0; fill:none" points="
  209.936,551.112 232.393,551.112 
  "/>
<polyline clip-path="url(#clip420)" style="stroke:#222255; stroke-width:4; stroke-opacity:0; fill:none" points="
  209.936,429.518 232.393,429.518 
  "/>
<polyline clip-path="url(#clip420)" style="stroke:#222255; stroke-width:4; stroke-opacity:0; fill:none" points="
  209.936,368.721 232.393,368.721 
  "/>
<polyline clip-path="url(#clip420)" style="stroke:#222255; stroke-width:4; stroke-opacity:0; fill:none" points="
  209.936,307.924 232.393,307.924 
  "/>
<polyline clip-path="url(#clip420)" style="stroke:#222255; stroke-width:4; stroke-opacity:0; fill:none" points="
  209.936,247.128 232.393,247.128 
  "/>
<polyline clip-path="url(#clip420)" style="stroke:#222255; stroke-width:4; stroke-opacity:0; fill:none" points="
  209.936,125.534 232.393,125.534 
  "/>
<polyline clip-path="url(#clip420)" style="stroke:#222255; stroke-width:4; stroke-opacity:0; fill:none" points="
  209.936,64.7372 232.393,64.7372 
  "/>
<path clip-path="url(#clip420)" d="M 0 0 M42.9921 1402.72 L72.6679 1402.72 L72.6679 1406.65 L42.9921 1406.65 L42.9921 1402.72 Z" fill="#000000" fill-rule="evenodd" fill-opacity="1" /><path clip-path="url(#clip420)" d="M 0 0 M83.5706 1415.61 L91.2095 1415.61 L91.2095 1389.25 L82.8993 1390.91 L82.8993 1386.65 L91.1632 1384.99 L95.8391 1384.99 L95.8391 1415.61 L103.478 1415.61 L103.478 1419.55 L83.5706 1419.55 L83.5706 1415.61 Z" fill="#000000" fill-rule="evenodd" fill-opacity="1" /><path clip-path="url(#clip420)" d="M 0 0 M112.922 1413.67 L117.807 1413.67 L117.807 1419.55 L112.922 1419.55 L112.922 1413.67 Z" fill="#000000" fill-rule="evenodd" fill-opacity="1" /><path clip-path="url(#clip420)" d="M 0 0 M137.992 1388.07 Q134.381 1388.07 132.552 1391.63 Q130.746 1395.17 130.746 1402.3 Q130.746 1409.41 132.552 1412.97 Q134.381 1416.51 137.992 1416.51 Q141.626 1416.51 143.431 1412.97 Q145.26 1409.41 145.26 1402.3 Q145.26 1395.17 143.431 1391.63 Q141.626 1388.07 137.992 1388.07 M137.992 1384.36 Q143.802 1384.36 146.857 1388.97 Q149.936 1393.55 149.936 1402.3 Q149.936 1411.03 146.857 1415.64 Q143.802 1420.22 137.992 1420.22 Q132.181 1420.22 129.103 1415.64 Q126.047 1411.03 126.047 1402.3 Q126.047 1393.55 129.103 1388.97 Q132.181 1384.36 137.992 1384.36 Z" fill="#000000" fill-rule="evenodd" fill-opacity="1" /><path clip-path="url(#clip420)" d="M 0 0 M43.9875 1098.73 L73.6633 1098.73 L73.6633 1102.67 L43.9875 1102.67 L43.9875 1098.73 Z" fill="#000000" fill-rule="evenodd" fill-opacity="1" /><path clip-path="url(#clip420)" d="M 0 0 M93.7557 1084.08 Q90.1447 1084.08 88.316 1087.65 Q86.5104 1091.19 86.5104 1098.32 Q86.5104 1105.42 88.316 1108.99 Q90.1447 1112.53 93.7557 1112.53 Q97.39 1112.53 99.1955 1108.99 Q101.024 1105.42 101.024 1098.32 Q101.024 1091.19 99.1955 1087.65 Q97.39 1084.08 93.7557 1084.08 M93.7557 1080.38 Q99.5659 1080.38 102.621 1084.98 Q105.7 1089.57 105.7 1098.32 Q105.7 1107.04 102.621 1111.65 Q99.5659 1116.23 93.7557 1116.23 Q87.9456 1116.23 84.8669 1111.65 Q81.8114 1107.04 81.8114 1098.32 Q81.8114 1089.57 84.8669 1084.98 Q87.9456 1080.38 93.7557 1080.38 Z" fill="#000000" fill-rule="evenodd" fill-opacity="1" /><path clip-path="url(#clip420)" d="M 0 0 M113.918 1109.68 L118.802 1109.68 L118.802 1115.56 L113.918 1115.56 L113.918 1109.68 Z" fill="#000000" fill-rule="evenodd" fill-opacity="1" /><path clip-path="url(#clip420)" d="M 0 0 M129.033 1081 L147.39 1081 L147.39 1084.94 L133.316 1084.94 L133.316 1093.41 Q134.334 1093.06 135.353 1092.9 Q136.371 1092.72 137.39 1092.72 Q143.177 1092.72 146.556 1095.89 Q149.936 1099.06 149.936 1104.48 Q149.936 1110.05 146.464 1113.16 Q142.992 1116.23 136.672 1116.23 Q134.496 1116.23 132.228 1115.86 Q129.982 1115.49 127.575 1114.75 L127.575 1110.05 Q129.658 1111.19 131.881 1111.74 Q134.103 1112.3 136.58 1112.3 Q140.584 1112.3 142.922 1110.19 Q145.26 1108.09 145.26 1104.48 Q145.26 1100.86 142.922 1098.76 Q140.584 1096.65 136.58 1096.65 Q134.705 1096.65 132.83 1097.07 Q130.978 1097.48 129.033 1098.36 L129.033 1081 Z" fill="#000000" fill-rule="evenodd" fill-opacity="1" /><path clip-path="url(#clip420)" d="M 0 0 M92.7604 780.098 Q89.1493 780.098 87.3206 783.663 Q85.515 787.204 85.515 794.334 Q85.515 801.44 87.3206 805.005 Q89.1493 808.547 92.7604 808.547 Q96.3946 808.547 98.2002 805.005 Q100.029 801.44 100.029 794.334 Q100.029 787.204 98.2002 783.663 Q96.3946 780.098 92.7604 780.098 M92.7604 776.394 Q98.5705 776.394 101.626 781.001 Q104.705 785.584 104.705 794.334 Q104.705 803.061 101.626 807.667 Q98.5705 812.25 92.7604 812.25 Q86.9502 812.25 83.8715 807.667 Q80.816 803.061 80.816 794.334 Q80.816 785.584 83.8715 781.001 Q86.9502 776.394 92.7604 776.394 Z" fill="#000000" fill-rule="evenodd" fill-opacity="1" /><path clip-path="url(#clip420)" d="M 0 0 M112.922 805.699 L117.807 805.699 L117.807 811.579 L112.922 811.579 L112.922 805.699 Z" fill="#000000" fill-rule="evenodd" fill-opacity="1" /><path clip-path="url(#clip420)" d="M 0 0 M137.992 780.098 Q134.381 780.098 132.552 783.663 Q130.746 787.204 130.746 794.334 Q130.746 801.44 132.552 805.005 Q134.381 808.547 137.992 808.547 Q141.626 808.547 143.431 805.005 Q145.26 801.44 145.26 794.334 Q145.26 787.204 143.431 783.663 Q141.626 780.098 137.992 780.098 M137.992 776.394 Q143.802 776.394 146.857 781.001 Q149.936 785.584 149.936 794.334 Q149.936 803.061 146.857 807.667 Q143.802 812.25 137.992 812.25 Q132.181 812.25 129.103 807.667 Q126.047 803.061 126.047 794.334 Q126.047 785.584 129.103 781.001 Q132.181 776.394 137.992 776.394 Z" fill="#000000" fill-rule="evenodd" fill-opacity="1" /><path clip-path="url(#clip420)" d="M 0 0 M93.7557 476.114 Q90.1447 476.114 88.316 479.678 Q86.5104 483.22 86.5104 490.35 Q86.5104 497.456 88.316 501.021 Q90.1447 504.563 93.7557 504.563 Q97.39 504.563 99.1955 501.021 Q101.024 497.456 101.024 490.35 Q101.024 483.22 99.1955 479.678 Q97.39 476.114 93.7557 476.114 M93.7557 472.41 Q99.5659 472.41 102.621 477.016 Q105.7 481.6 105.7 490.35 Q105.7 499.076 102.621 503.683 Q99.5659 508.266 93.7557 508.266 Q87.9456 508.266 84.8669 503.683 Q81.8114 499.076 81.8114 490.35 Q81.8114 481.6 84.8669 477.016 Q87.9456 472.41 93.7557 472.41 Z" fill="#000000" fill-rule="evenodd" fill-opacity="1" /><path clip-path="url(#clip420)" d="M 0 0 M113.918 501.715 L118.802 501.715 L118.802 507.595 L113.918 507.595 L113.918 501.715 Z" fill="#000000" fill-rule="evenodd" fill-opacity="1" /><path clip-path="url(#clip420)" d="M 0 0 M129.033 473.035 L147.39 473.035 L147.39 476.97 L133.316 476.97 L133.316 485.442 Q134.334 485.095 135.353 484.933 Q136.371 484.748 137.39 484.748 Q143.177 484.748 146.556 487.919 Q149.936 491.09 149.936 496.507 Q149.936 502.086 146.464 505.188 Q142.992 508.266 136.672 508.266 Q134.496 508.266 132.228 507.896 Q129.982 507.526 127.575 506.785 L127.575 502.086 Q129.658 503.22 131.881 503.776 Q134.103 504.331 136.58 504.331 Q140.584 504.331 142.922 502.225 Q145.26 500.118 145.26 496.507 Q145.26 492.896 142.922 490.789 Q140.584 488.683 136.58 488.683 Q134.705 488.683 132.83 489.1 Q130.978 489.516 129.033 490.396 L129.033 473.035 Z" fill="#000000" fill-rule="evenodd" fill-opacity="1" /><path clip-path="url(#clip420)" d="M 0 0 M83.5706 199.676 L91.2095 199.676 L91.2095 173.31 L82.8993 174.977 L82.8993 170.718 L91.1632 169.051 L95.8391 169.051 L95.8391 199.676 L103.478 199.676 L103.478 203.611 L83.5706 203.611 L83.5706 199.676 Z" fill="#000000" fill-rule="evenodd" fill-opacity="1" /><path clip-path="url(#clip420)" d="M 0 0 M112.922 197.731 L117.807 197.731 L117.807 203.611 L112.922 203.611 L112.922 197.731 Z" fill="#000000" fill-rule="evenodd" fill-opacity="1" /><path clip-path="url(#clip420)" d="M 0 0 M137.992 172.13 Q134.381 172.13 132.552 175.694 Q130.746 179.236 130.746 186.366 Q130.746 193.472 132.552 197.037 Q134.381 200.578 137.992 200.578 Q141.626 200.578 143.431 197.037 Q145.26 193.472 145.26 186.366 Q145.26 179.236 143.431 175.694 Q141.626 172.13 137.992 172.13 M137.992 168.426 Q143.802 168.426 146.857 173.032 Q149.936 177.616 149.936 186.366 Q149.936 195.092 146.857 199.699 Q143.802 204.282 137.992 204.282 Q132.181 204.282 129.103 199.699 Q126.047 195.092 126.047 186.366 Q126.047 177.616 129.103 173.032 Q132.181 168.426 137.992 168.426 Z" fill="#000000" fill-rule="evenodd" fill-opacity="1" /><path clip-path="url(#clip422)" d="
M315.865 848.439 L351.531 845.898 L387.197 844.639 L422.864 844.788 L458.53 846.493 L494.196 849.924 L529.863 855.289 L565.529 862.839 L601.195 872.891 L636.861 885.861 
  L672.528 902.319 L708.194 923.064 L743.86 949.055 L779.527 980.646 L815.193 1017.42 L850.859 1058.34 L886.525 1101.94 L922.192 1146.58 L957.858 1190.61 L993.524 1232.44 
  L1029.19 1270.91 L1064.86 1305.29 L1100.52 1335.79 L1136.19 1363.38 L1171.86 1388.4 L1207.52 1409.82 L1243.19 1427 L1278.85 1439.83 L1314.52 1447.84 L1350.19 1450.39 
  L1385.85 1446.74 L1421.52 1436.92 L1457.19 1421.88 L1492.85 1403.45 L1528.52 1384.16 L1564.18 1364.19 L1599.85 1343.26 L1635.52 1321.15 L1671.18 1296.78 L1706.85 1268.45 
  L1742.52 1235.42 L1778.18 1198.04 L1813.85 1158.38 L1849.52 1119.71 L1885.18 1082.31 L1920.85 1043.81 L1956.51 1001 L1992.18 951.674 L2027.85 896.891 L2063.51 841.196 
  L2099.18 787.362 L2134.85 737.167 L2170.51 691.716 L2206.18 648.575 L2241.84 606.116 L2277.51 565.844 L2313.18 528.4 L2348.84 492.731 L2384.51 459.573 L2420.18 431.363 
  L2455.84 405.391 L2491.51 378.999 L2527.17 351.168 L2562.84 321.902 L2598.51 293.022 L2634.17 268.03 L2669.84 249.711 L2705.51 238.267 L2741.17 232.604 L2776.84 231.837 
  L2812.5 235.07 L2848.17 241.5 L2883.84 250.166 L2919.5 260.96 L2955.17 274.605 L2990.84 291.116 L3026.5 310.697 L3062.17 333.914 L3097.84 361.517 L3133.5 394.434 
  L3169.17 432.546 L3204.83 474.875 L3240.5 520.133 L3276.17 567.255 L3311.83 615.645 L3347.5 665.299 L3383.17 716.678 L3418.83 770.231 L3454.5 825.871 L3490.16 882.851 
  L3525.83 940.393 L3561.5 997.886 L3597.16 1054.95 L3632.83 1111.38 L3668.5 1167.05 L3704.16 1221.93 L3739.83 1275.98 L3775.49 1329.22 L3811.16 1381.67 L3846.83 1433.35 
  L3846.83 894.456 L3811.16 888.141 L3775.49 880.4 L3739.83 871.09 L3704.16 860.045 L3668.5 847.068 L3632.83 831.922 L3597.16 814.312 L3561.5 793.86 L3525.83 770.056 
  L3490.16 742.195 L3454.5 709.316 L3418.83 670.697 L3383.17 626.768 L3347.5 578.937 L3311.83 529.391 L3276.17 480.398 L3240.5 433.68 L3204.83 390.536 L3169.17 351.974 
  L3133.5 318.431 L3097.84 289.785 L3062.17 265.44 L3026.5 243.667 L2990.84 222.313 L2955.17 200.696 L2919.5 180.693 L2883.84 164.477 L2848.17 153.414 L2812.5 148.018 
  L2776.84 147.807 L2741.17 152.024 L2705.51 159.911 L2669.84 171.047 L2634.17 186.109 L2598.51 204.638 L2562.84 226.802 L2527.17 253.226 L2491.51 282.862 L2455.84 313.143 
  L2420.18 343.26 L2384.51 372.825 L2348.84 401.466 L2313.18 431.451 L2277.51 463.79 L2241.84 497.636 L2206.18 535.32 L2170.51 579.775 L2134.85 631.067 L2099.18 687.286 
  L2063.51 745.574 L2027.85 801.861 L1992.18 855.45 L1956.51 907.721 L1920.85 956.142 L1885.18 998.444 L1849.52 1035.53 L1813.85 1069.64 L1778.18 1103.69 L1742.52 1138.47 
  L1706.85 1173.73 L1671.18 1208.08 L1635.52 1240.09 L1599.85 1268.66 L1564.18 1294.14 L1528.52 1316.96 L1492.85 1335.5 L1457.19 1348.31 L1421.52 1356.16 L1385.85 1359.97 
  L1350.19 1360.22 L1314.52 1357.38 L1278.85 1351.26 L1243.19 1341.91 L1207.52 1329.58 L1171.86 1313.51 L1136.19 1292.4 L1100.52 1265.63 L1064.86 1233.44 L1029.19 1196.62 
  L993.524 1156.08 L957.858 1113.52 L922.192 1070.39 L886.525 1027.29 L850.859 984.135 L815.193 940.649 L779.527 896.429 L743.86 850.936 L708.194 803.917 L672.528 755.852 
  L636.861 707.449 L601.195 659.193 L565.529 611.365 L529.863 564.12 L494.196 517.539 L458.53 471.658 L422.864 426.488 L387.197 382.02 L351.531 338.239 L315.865 295.122 
   Z
  " fill="#008000" fill-rule="evenodd" fill-opacity="0.3"/>
<polyline clip-path="url(#clip422)" style="stroke:#ee7733; stroke-width:8; stroke-opacity:1; fill:none" points="
  315.865,571.78 351.531,592.069 387.197,613.33 422.864,635.638 458.53,659.075 494.196,683.732 529.863,709.705 565.529,737.102 601.195,766.042 636.861,796.655 
  672.528,829.085 708.194,863.491 743.86,899.996 779.527,938.538 815.193,979.035 850.859,1021.24 886.525,1064.62 922.192,1108.48 957.858,1152.07 993.524,1194.26 
  1029.19,1233.77 1064.86,1269.36 1100.52,1300.71 1136.19,1327.89 1171.86,1350.95 1207.52,1369.7 1243.19,1384.46 1278.85,1395.55 1314.52,1402.61 1350.19,1405.31 
  1385.85,1403.36 1421.52,1396.54 1457.19,1385.1 1492.85,1369.48 1528.52,1350.56 1564.18,1329.16 1599.85,1305.96 1635.52,1280.62 1671.18,1252.43 1706.85,1221.09 
  1742.52,1186.95 1778.18,1150.87 1813.85,1114.01 1849.52,1077.62 1885.18,1040.38 1920.85,999.978 1956.51,954.36 1992.18,903.562 2027.85,849.376 2063.51,793.385 
  2099.18,737.324 2134.85,684.117 2170.51,635.745 2206.18,591.947 2241.84,551.876 2277.51,514.817 2313.18,479.925 2348.84,447.098 2384.51,416.199 2420.18,387.312 
  2455.84,359.267 2491.51,330.931 2527.17,302.197 2562.84,274.352 2598.51,248.83 2634.17,227.07 2669.84,210.379 2705.51,199.089 2741.17,192.314 2776.84,189.822 
  2812.5,191.544 2848.17,197.457 2883.84,207.321 2919.5,220.827 2955.17,237.651 2990.84,256.715 3026.5,277.182 3062.17,299.677 3097.84,325.651 3133.5,356.433 
  3169.17,392.26 3204.83,432.706 3240.5,476.907 3276.17,523.827 3311.83,572.518 3347.5,622.118 3383.17,671.723 3418.83,720.464 3454.5,767.593 3490.16,812.523 
  3525.83,855.224 3561.5,895.873 3597.16,934.632 3632.83,971.65 3668.5,1007.06 3704.16,1040.99 3739.83,1073.54 3775.49,1104.81 3811.16,1134.91 3846.83,1163.9 
  
  "/>
<polyline clip-path="url(#clip422)" style="stroke:#0077bb; stroke-width:4.8; stroke-opacity:1; fill:none" points="
  315.865,364.401 351.531,399.822 387.197,437.725 422.864,477.871 458.53,520.008 494.196,563.87 529.863,609.181 565.529,655.657 601.195,703.005 636.861,750.927 
  672.528,799.122 708.194,847.287 743.86,895.118 779.527,942.316 815.193,988.582 850.859,1033.63 886.525,1077.16 922.192,1118.92 957.858,1158.64 993.524,1196.07 
  1029.19,1230.96 1064.86,1263.12 1100.52,1292.32 1136.19,1318.39 1171.86,1341.16 1207.52,1360.49 1243.19,1376.26 1278.85,1388.37 1314.52,1396.75 1350.19,1401.33 
  1385.85,1402.1 1421.52,1399.04 1457.19,1392.17 1492.85,1381.55 1528.52,1367.23 1564.18,1349.31 1599.85,1327.9 1635.52,1303.13 1671.18,1275.16 1706.85,1244.17 
  1742.52,1210.34 1778.18,1173.9 1813.85,1135.07 1849.52,1094.1 1885.18,1051.24 1920.85,1006.76 1956.51,960.95 1992.18,914.09 2027.85,866.476 2063.51,818.409 
  2099.18,770.189 2134.85,722.122 2170.51,674.508 2206.18,627.648 2241.84,581.836 2277.51,537.361 2313.18,494.501 2348.84,453.528 2384.51,414.699 2420.18,378.257 
  2455.84,344.432 2491.51,313.437 2527.17,285.467 2562.84,260.698 2598.51,239.286 2634.17,221.364 2669.84,207.047 2705.51,196.424 2741.17,189.561 2776.84,186.503 
  2812.5,187.268 2848.17,191.852 2883.84,200.225 2919.5,212.335 2955.17,228.106 2990.84,247.439 3026.5,270.211 3062.17,296.281 3097.84,325.483 3133.5,357.634 
  3169.17,392.532 3204.83,429.957 3240.5,469.674 3276.17,511.434 3311.83,554.972 3347.5,600.016 3383.17,646.282 3418.83,693.48 3454.5,741.311 3490.16,789.476 
  3525.83,837.671 3561.5,885.593 3597.16,932.941 3632.83,979.417 3668.5,1024.73 3704.16,1068.59 3739.83,1110.73 3775.49,1150.87 3811.16,1188.78 3846.83,1224.2 
  
  "/>
<circle clip-path="url(#clip422)" cx="2025.14" cy="820.562" r="21" fill="#ee3377" fill-rule="evenodd" fill-opacity="1" stroke="#000000" stroke-opacity="1" stroke-width="0"/>
<circle clip-path="url(#clip422)" cx="3360.19" cy="664.005" r="21" fill="#ee3377" fill-rule="evenodd" fill-opacity="1" stroke="#000000" stroke-opacity="1" stroke-width="0"/>
<circle clip-path="url(#clip422)" cx="3403.64" cy="709.976" r="21" fill="#ee3377" fill-rule="evenodd" fill-opacity="1" stroke="#000000" stroke-opacity="1" stroke-width="0"/>
<circle clip-path="url(#clip422)" cx="1117.24" cy="1281.5" r="21" fill="#ee3377" fill-rule="evenodd" fill-opacity="1" stroke="#000000" stroke-opacity="1" stroke-width="0"/>
<circle clip-path="url(#clip422)" cx="3453.31" cy="847.088" r="21" fill="#ee3377" fill-rule="evenodd" fill-opacity="1" stroke="#000000" stroke-opacity="1" stroke-width="0"/>
<circle clip-path="url(#clip422)" cx="2038.13" cy="859.093" r="21" fill="#ee3377" fill-rule="evenodd" fill-opacity="1" stroke="#000000" stroke-opacity="1" stroke-width="0"/>
<circle clip-path="url(#clip422)" cx="2389.88" cy="274.241" r="21" fill="#ee3377" fill-rule="evenodd" fill-opacity="1" stroke="#000000" stroke-opacity="1" stroke-width="0"/>
<circle clip-path="url(#clip422)" cx="1425.86" cy="1391.59" r="21" fill="#ee3377" fill-rule="evenodd" fill-opacity="1" stroke="#000000" stroke-opacity="1" stroke-width="0"/>
<circle clip-path="url(#clip422)" cx="1816.21" cy="1055.71" r="21" fill="#ee3377" fill-rule="evenodd" fill-opacity="1" stroke="#000000" stroke-opacity="1" stroke-width="0"/>
<circle clip-path="url(#clip422)" cx="1622.52" cy="1274.19" r="21" fill="#ee3377" fill-rule="evenodd" fill-opacity="1" stroke="#000000" stroke-opacity="1" stroke-width="0"/>
<circle clip-path="url(#clip422)" cx="2995.86" cy="303.146" r="21" fill="#ee3377" fill-rule="evenodd" fill-opacity="1" stroke="#000000" stroke-opacity="1" stroke-width="0"/>
<circle clip-path="url(#clip422)" cx="3332.14" cy="559.572" r="21" fill="#ee3377" fill-rule="evenodd" fill-opacity="1" stroke="#000000" stroke-opacity="1" stroke-width="0"/>
<circle clip-path="url(#clip422)" cx="989.994" cy="1177.93" r="21" fill="#ee3377" fill-rule="evenodd" fill-opacity="1" stroke="#000000" stroke-opacity="1" stroke-width="0"/>
<circle clip-path="url(#clip422)" cx="717.869" cy="939.318" r="21" fill="#ee3377" fill-rule="evenodd" fill-opacity="1" stroke="#000000" stroke-opacity="1" stroke-width="0"/>
<circle clip-path="url(#clip422)" cx="1129.18" cy="1339" r="21" fill="#ee3377" fill-rule="evenodd" fill-opacity="1" stroke="#000000" stroke-opacity="1" stroke-width="0"/>
<circle clip-path="url(#clip422)" cx="3006.28" cy="317.556" r="21" fill="#ee3377" fill-rule="evenodd" fill-opacity="1" stroke="#000000" stroke-opacity="1" stroke-width="0"/>
<circle clip-path="url(#clip422)" cx="2053" cy="836.195" r="21" fill="#ee3377" fill-rule="evenodd" fill-opacity="1" stroke="#000000" stroke-opacity="1" stroke-width="0"/>
<circle clip-path="url(#clip422)" cx="1585.37" cy="1346.77" r="21" fill="#ee3377" fill-rule="evenodd" fill-opacity="1" stroke="#000000" stroke-opacity="1" stroke-width="0"/>
<circle clip-path="url(#clip422)" cx="2678.16" cy="88.3675" r="21" fill="#ee3377" fill-rule="evenodd" fill-opacity="1" stroke="#000000" stroke-opacity="1" stroke-width="0"/>
<circle clip-path="url(#clip422)" cx="1667.39" cy="1289.16" r="21" fill="#ee3377" fill-rule="evenodd" fill-opacity="1" stroke="#000000" stroke-opacity="1" stroke-width="0"/>
<circle clip-path="url(#clip422)" cx="2081.54" cy="760.029" r="21" fill="#ee3377" fill-rule="evenodd" fill-opacity="1" stroke="#000000" stroke-opacity="1" stroke-width="0"/>
<circle clip-path="url(#clip422)" cx="3045.08" cy="246.254" r="21" fill="#ee3377" fill-rule="evenodd" fill-opacity="1" stroke="#000000" stroke-opacity="1" stroke-width="0"/>
<circle clip-path="url(#clip422)" cx="898.291" cy="1116.03" r="21" fill="#ee3377" fill-rule="evenodd" fill-opacity="1" stroke="#000000" stroke-opacity="1" stroke-width="0"/>
<circle clip-path="url(#clip422)" cx="839.005" cy="996.568" r="21" fill="#ee3377" fill-rule="evenodd" fill-opacity="1" stroke="#000000" stroke-opacity="1" stroke-width="0"/>
<circle clip-path="url(#clip422)" cx="1544.14" cy="1301.65" r="21" fill="#ee3377" fill-rule="evenodd" fill-opacity="1" stroke="#000000" stroke-opacity="1" stroke-width="0"/>
<circle clip-path="url(#clip422)" cx="2297.17" cy="482.666" r="21" fill="#ee3377" fill-rule="evenodd" fill-opacity="1" stroke="#000000" stroke-opacity="1" stroke-width="0"/>
<circle clip-path="url(#clip422)" cx="3052.92" cy="347.466" r="21" fill="#ee3377" fill-rule="evenodd" fill-opacity="1" stroke="#000000" stroke-opacity="1" stroke-width="0"/>
<circle clip-path="url(#clip422)" cx="1951.06" cy="985.885" r="21" fill="#ee3377" fill-rule="evenodd" fill-opacity="1" stroke="#000000" stroke-opacity="1" stroke-width="0"/>
<circle clip-path="url(#clip422)" cx="2478.42" cy="340.875" r="21" fill="#ee3377" fill-rule="evenodd" fill-opacity="1" stroke="#000000" stroke-opacity="1" stroke-width="0"/>
<circle clip-path="url(#clip422)" cx="2702.6" cy="231.348" r="21" fill="#ee3377" fill-rule="evenodd" fill-opacity="1" stroke="#000000" stroke-opacity="1" stroke-width="0"/>
<circle clip-path="url(#clip422)" cx="1165.13" cy="1301.43" r="21" fill="#ee3377" fill-rule="evenodd" fill-opacity="1" stroke="#000000" stroke-opacity="1" stroke-width="0"/>
<circle clip-path="url(#clip422)" cx="1888.15" cy="1009.78" r="21" fill="#ee3377" fill-rule="evenodd" fill-opacity="1" stroke="#000000" stroke-opacity="1" stroke-width="0"/>
<circle clip-path="url(#clip422)" cx="1489.15" cy="1459.15" r="21" fill="#ee3377" fill-rule="evenodd" fill-opacity="1" stroke="#000000" stroke-opacity="1" stroke-width="0"/>
<circle clip-path="url(#clip422)" cx="909.218" cy="1020.34" r="21" fill="#ee3377" fill-rule="evenodd" fill-opacity="1" stroke="#000000" stroke-opacity="1" stroke-width="0"/>
<circle clip-path="url(#clip422)" cx="1034.13" cy="1168.17" r="21" fill="#ee3377" fill-rule="evenodd" fill-opacity="1" stroke="#000000" stroke-opacity="1" stroke-width="0"/>
<circle clip-path="url(#clip422)" cx="2489.48" cy="392.595" r="21" fill="#ee3377" fill-rule="evenodd" fill-opacity="1" stroke="#000000" stroke-opacity="1" stroke-width="0"/>
<circle clip-path="url(#clip422)" cx="1834.35" cy="1051.54" r="21" fill="#ee3377" fill-rule="evenodd" fill-opacity="1" stroke="#000000" stroke-opacity="1" stroke-width="0"/>
<circle clip-path="url(#clip422)" cx="2384.15" cy="467.411" r="21" fill="#ee3377" fill-rule="evenodd" fill-opacity="1" stroke="#000000" stroke-opacity="1" stroke-width="0"/>
<circle clip-path="url(#clip422)" cx="1386.19" cy="1438.88" r="21" fill="#ee3377" fill-rule="evenodd" fill-opacity="1" stroke="#000000" stroke-opacity="1" stroke-width="0"/>
<circle clip-path="url(#clip422)" cx="1120.81" cy="1267.82" r="21" fill="#ee3377" fill-rule="evenodd" fill-opacity="1" stroke="#000000" stroke-opacity="1" stroke-width="0"/>
<circle clip-path="url(#clip422)" cx="2749.43" cy="110.786" r="21" fill="#ee3377" fill-rule="evenodd" fill-opacity="1" stroke="#000000" stroke-opacity="1" stroke-width="0"/>
<circle clip-path="url(#clip422)" cx="2742.08" cy="258.484" r="21" fill="#ee3377" fill-rule="evenodd" fill-opacity="1" stroke="#000000" stroke-opacity="1" stroke-width="0"/>
<circle clip-path="url(#clip422)" cx="850.643" cy="1003.52" r="21" fill="#ee3377" fill-rule="evenodd" fill-opacity="1" stroke="#000000" stroke-opacity="1" stroke-width="0"/>
<circle clip-path="url(#clip422)" cx="874.092" cy="1072.5" r="21" fill="#ee3377" fill-rule="evenodd" fill-opacity="1" stroke="#000000" stroke-opacity="1" stroke-width="0"/>
<circle clip-path="url(#clip422)" cx="1493.11" cy="1331.77" r="21" fill="#ee3377" fill-rule="evenodd" fill-opacity="1" stroke="#000000" stroke-opacity="1" stroke-width="0"/>
<circle clip-path="url(#clip422)" cx="2376.74" cy="441.541" r="21" fill="#ee3377" fill-rule="evenodd" fill-opacity="1" stroke="#000000" stroke-opacity="1" stroke-width="0"/>
<circle clip-path="url(#clip422)" cx="3255.21" cy="492.336" r="21" fill="#ee3377" fill-rule="evenodd" fill-opacity="1" stroke="#000000" stroke-opacity="1" stroke-width="0"/>
<circle clip-path="url(#clip422)" cx="2811.01" cy="142.754" r="21" fill="#ee3377" fill-rule="evenodd" fill-opacity="1" stroke="#000000" stroke-opacity="1" stroke-width="0"/>
<circle clip-path="url(#clip422)" cx="1124.22" cy="1326.72" r="21" fill="#ee3377" fill-rule="evenodd" fill-opacity="1" stroke="#000000" stroke-opacity="1" stroke-width="0"/>
<circle clip-path="url(#clip422)" cx="2602.88" cy="293.742" r="21" fill="#ee3377" fill-rule="evenodd" fill-opacity="1" stroke="#000000" stroke-opacity="1" stroke-width="0"/>
<circle clip-path="url(#clip422)" cx="1784.04" cy="1156.85" r="21" fill="#ee3377" fill-rule="evenodd" fill-opacity="1" stroke="#000000" stroke-opacity="1" stroke-width="0"/>
<circle clip-path="url(#clip422)" cx="1926.79" cy="1050.96" r="21" fill="#ee3377" fill-rule="evenodd" fill-opacity="1" stroke="#000000" stroke-opacity="1" stroke-width="0"/>
<circle clip-path="url(#clip422)" cx="1175.67" cy="1450.3" r="21" fill="#ee3377" fill-rule="evenodd" fill-opacity="1" stroke="#000000" stroke-opacity="1" stroke-width="0"/>
<circle clip-path="url(#clip422)" cx="2383.33" cy="430.477" r="21" fill="#ee3377" fill-rule="evenodd" fill-opacity="1" stroke="#000000" stroke-opacity="1" stroke-width="0"/>
<circle clip-path="url(#clip422)" cx="1501.68" cy="1315.85" r="21" fill="#ee3377" fill-rule="evenodd" fill-opacity="1" stroke="#000000" stroke-opacity="1" stroke-width="0"/>
<circle clip-path="url(#clip422)" cx="3004.61" cy="300.318" r="21" fill="#ee3377" fill-rule="evenodd" fill-opacity="1" stroke="#000000" stroke-opacity="1" stroke-width="0"/>
<circle clip-path="url(#clip422)" cx="2920" cy="220.798" r="21" fill="#ee3377" fill-rule="evenodd" fill-opacity="1" stroke="#000000" stroke-opacity="1" stroke-width="0"/>
<circle clip-path="url(#clip422)" cx="1027.66" cy="1427.26" r="21" fill="#ee3377" fill-rule="evenodd" fill-opacity="1" stroke="#000000" stroke-opacity="1" stroke-width="0"/>
<circle clip-path="url(#clip422)" cx="2124.36" cy="660.225" r="21" fill="#ee3377" fill-rule="evenodd" fill-opacity="1" stroke="#000000" stroke-opacity="1" stroke-width="0"/>
<circle clip-path="url(#clip422)" cx="2149.65" cy="639.338" r="21" fill="#ee3377" fill-rule="evenodd" fill-opacity="1" stroke="#000000" stroke-opacity="1" stroke-width="0"/>
<circle clip-path="url(#clip422)" cx="3127.53" cy="325.405" r="21" fill="#ee3377" fill-rule="evenodd" fill-opacity="1" stroke="#000000" stroke-opacity="1" stroke-width="0"/>
<circle clip-path="url(#clip422)" cx="750.72" cy="942.923" r="21" fill="#ee3377" fill-rule="evenodd" fill-opacity="1" stroke="#000000" stroke-opacity="1" stroke-width="0"/>
<circle clip-path="url(#clip422)" cx="2431.5" cy="410.987" r="21" fill="#ee3377" fill-rule="evenodd" fill-opacity="1" stroke="#000000" stroke-opacity="1" stroke-width="0"/>
<circle clip-path="url(#clip422)" cx="2627.86" cy="230.649" r="21" fill="#ee3377" fill-rule="evenodd" fill-opacity="1" stroke="#000000" stroke-opacity="1" stroke-width="0"/>
<circle clip-path="url(#clip422)" cx="3100.52" cy="227.969" r="21" fill="#ee3377" fill-rule="evenodd" fill-opacity="1" stroke="#000000" stroke-opacity="1" stroke-width="0"/>
<circle clip-path="url(#clip422)" cx="1851.06" cy="1072.32" r="21" fill="#ee3377" fill-rule="evenodd" fill-opacity="1" stroke="#000000" stroke-opacity="1" stroke-width="0"/>
<circle clip-path="url(#clip422)" cx="1486.07" cy="1345.62" r="21" fill="#ee3377" fill-rule="evenodd" fill-opacity="1" stroke="#000000" stroke-opacity="1" stroke-width="0"/>
<circle clip-path="url(#clip422)" cx="1069.63" cy="1315.64" r="21" fill="#ee3377" fill-rule="evenodd" fill-opacity="1" stroke="#000000" stroke-opacity="1" stroke-width="0"/>
<circle clip-path="url(#clip422)" cx="3401.92" cy="678.994" r="21" fill="#ee3377" fill-rule="evenodd" fill-opacity="1" stroke="#000000" stroke-opacity="1" stroke-width="0"/>
<circle clip-path="url(#clip422)" cx="2699.1" cy="254.817" r="21" fill="#ee3377" fill-rule="evenodd" fill-opacity="1" stroke="#000000" stroke-opacity="1" stroke-width="0"/>
<circle clip-path="url(#clip422)" cx="3019.47" cy="321.516" r="21" fill="#ee3377" fill-rule="evenodd" fill-opacity="1" stroke="#000000" stroke-opacity="1" stroke-width="0"/>
<circle clip-path="url(#clip422)" cx="2792.46" cy="233.717" r="21" fill="#ee3377" fill-rule="evenodd" fill-opacity="1" stroke="#000000" stroke-opacity="1" stroke-width="0"/>
<circle clip-path="url(#clip422)" cx="1636.01" cy="1267.43" r="21" fill="#ee3377" fill-rule="evenodd" fill-opacity="1" stroke="#000000" stroke-opacity="1" stroke-width="0"/>
<circle clip-path="url(#clip422)" cx="1867.37" cy="1112.13" r="21" fill="#ee3377" fill-rule="evenodd" fill-opacity="1" stroke="#000000" stroke-opacity="1" stroke-width="0"/>
<circle clip-path="url(#clip422)" cx="815.184" cy="947.52" r="21" fill="#ee3377" fill-rule="evenodd" fill-opacity="1" stroke="#000000" stroke-opacity="1" stroke-width="0"/>
<circle clip-path="url(#clip422)" cx="2970.66" cy="339.931" r="21" fill="#ee3377" fill-rule="evenodd" fill-opacity="1" stroke="#000000" stroke-opacity="1" stroke-width="0"/>
<circle clip-path="url(#clip422)" cx="3109.24" cy="311.35" r="21" fill="#ee3377" fill-rule="evenodd" fill-opacity="1" stroke="#000000" stroke-opacity="1" stroke-width="0"/>
<circle clip-path="url(#clip422)" cx="2623.31" cy="122.786" r="21" fill="#ee3377" fill-rule="evenodd" fill-opacity="1" stroke="#000000" stroke-opacity="1" stroke-width="0"/>
<circle clip-path="url(#clip422)" cx="2266.68" cy="593.173" r="21" fill="#ee3377" fill-rule="evenodd" fill-opacity="1" stroke="#000000" stroke-opacity="1" stroke-width="0"/>
<circle clip-path="url(#clip422)" cx="3183.01" cy="339.432" r="21" fill="#ee3377" fill-rule="evenodd" fill-opacity="1" stroke="#000000" stroke-opacity="1" stroke-width="0"/>
<circle clip-path="url(#clip422)" cx="1909.92" cy="1017.38" r="21" fill="#ee3377" fill-rule="evenodd" fill-opacity="1" stroke="#000000" stroke-opacity="1" stroke-width="0"/>
<circle clip-path="url(#clip422)" cx="1614.3" cy="1364.36" r="21" fill="#ee3377" fill-rule="evenodd" fill-opacity="1" stroke="#000000" stroke-opacity="1" stroke-width="0"/>
<circle clip-path="url(#clip422)" cx="2933.21" cy="124.611" r="21" fill="#ee3377" fill-rule="evenodd" fill-opacity="1" stroke="#000000" stroke-opacity="1" stroke-width="0"/>
<circle clip-path="url(#clip422)" cx="3469.75" cy="835.21" r="21" fill="#ee3377" fill-rule="evenodd" fill-opacity="1" stroke="#000000" stroke-opacity="1" stroke-width="0"/>
<circle clip-path="url(#clip422)" cx="1538.46" cy="1379.99" r="21" fill="#ee3377" fill-rule="evenodd" fill-opacity="1" stroke="#000000" stroke-opacity="1" stroke-width="0"/>
<circle clip-path="url(#clip422)" cx="1236.31" cy="1314.98" r="21" fill="#ee3377" fill-rule="evenodd" fill-opacity="1" stroke="#000000" stroke-opacity="1" stroke-width="0"/>
<circle clip-path="url(#clip422)" cx="1291.04" cy="1414.8" r="21" fill="#ee3377" fill-rule="evenodd" fill-opacity="1" stroke="#000000" stroke-opacity="1" stroke-width="0"/>
<circle clip-path="url(#clip422)" cx="1585.2" cy="1214.69" r="21" fill="#ee3377" fill-rule="evenodd" fill-opacity="1" stroke="#000000" stroke-opacity="1" stroke-width="0"/>
<circle clip-path="url(#clip422)" cx="1503.56" cy="1289.3" r="21" fill="#ee3377" fill-rule="evenodd" fill-opacity="1" stroke="#000000" stroke-opacity="1" stroke-width="0"/>
<circle clip-path="url(#clip422)" cx="1304.72" cy="1402.19" r="21" fill="#ee3377" fill-rule="evenodd" fill-opacity="1" stroke="#000000" stroke-opacity="1" stroke-width="0"/>
<circle clip-path="url(#clip422)" cx="2634.49" cy="269.633" r="21" fill="#ee3377" fill-rule="evenodd" fill-opacity="1" stroke="#000000" stroke-opacity="1" stroke-width="0"/>
<circle clip-path="url(#clip422)" cx="1717.01" cy="1227" r="21" fill="#ee3377" fill-rule="evenodd" fill-opacity="1" stroke="#000000" stroke-opacity="1" stroke-width="0"/>
<circle clip-path="url(#clip422)" cx="3147.51" cy="347.925" r="21" fill="#ee3377" fill-rule="evenodd" fill-opacity="1" stroke="#000000" stroke-opacity="1" stroke-width="0"/>
<circle clip-path="url(#clip422)" cx="2992.19" cy="217.691" r="21" fill="#ee3377" fill-rule="evenodd" fill-opacity="1" stroke="#000000" stroke-opacity="1" stroke-width="0"/>
<circle clip-path="url(#clip422)" cx="1113.56" cy="1339.6" r="21" fill="#ee3377" fill-rule="evenodd" fill-opacity="1" stroke="#000000" stroke-opacity="1" stroke-width="0"/>
<circle clip-path="url(#clip422)" cx="1452.6" cy="1409.23" r="21" fill="#ee3377" fill-rule="evenodd" fill-opacity="1" stroke="#000000" stroke-opacity="1" stroke-width="0"/>
<circle clip-path="url(#clip422)" cx="1504.86" cy="1450.96" r="21" fill="#ee3377" fill-rule="evenodd" fill-opacity="1" stroke="#000000" stroke-opacity="1" stroke-width="0"/>
<circle clip-path="url(#clip422)" cx="713.066" cy="758.775" r="21" fill="#ee3377" fill-rule="evenodd" fill-opacity="1" stroke="#000000" stroke-opacity="1" stroke-width="0"/>
<circle clip-path="url(#clip422)" cx="2256.73" cy="479.969" r="21" fill="#ee3377" fill-rule="evenodd" fill-opacity="1" stroke="#000000" stroke-opacity="1" stroke-width="0"/>
<circle clip-path="url(#clip422)" cx="765.228" cy="876.978" r="21" fill="#ee3377" fill-rule="evenodd" fill-opacity="1" stroke="#000000" stroke-opacity="1" stroke-width="0"/>
<path clip-path="url(#clip420)" d="
M3064.56 1451.84 L3828 1451.84 L3828 1209.92 L3064.56 1209.92  Z
  " fill="#ffffff" fill-rule="evenodd" fill-opacity="0.9"/>
<polyline clip-path="url(#clip420)" style="stroke:#222255; stroke-width:4; stroke-opacity:0.1; fill:none" points="
  3064.56,1451.84 3828,1451.84 3828,1209.92 3064.56,1209.92 3064.56,1451.84 
  "/>
<polyline clip-path="url(#clip420)" style="stroke:#ee7733; stroke-width:4; stroke-opacity:1; fill:none" points="
  3106.15,1270.4 3355.67,1270.4 
  "/>
<path clip-path="url(#clip420)" d="M 0 0 M3422.81 1282.75 L3422.81 1273.46 L3415.17 1273.46 L3415.17 1269.62 L3427.44 1269.62 L3427.44 1284.46 Q3424.73 1286.38 3421.47 1287.38 Q3418.2 1288.35 3414.5 1288.35 Q3406.4 1288.35 3401.81 1283.63 Q3397.25 1278.88 3397.25 1270.43 Q3397.25 1261.96 3401.81 1257.24 Q3406.4 1252.49 3414.5 1252.49 Q3417.88 1252.49 3420.91 1253.33 Q3423.97 1254.16 3426.54 1255.78 L3426.54 1260.76 Q3423.94 1258.56 3421.03 1257.45 Q3418.11 1256.34 3414.89 1256.34 Q3408.55 1256.34 3405.36 1259.88 Q3402.18 1263.42 3402.18 1270.43 Q3402.18 1277.42 3405.36 1280.96 Q3408.55 1284.51 3414.89 1284.51 Q3417.37 1284.51 3419.31 1284.09 Q3421.26 1283.65 3422.81 1282.75 Z" fill="#000000" fill-rule="evenodd" fill-opacity="1" /><path clip-path="url(#clip420)" d="M 0 0 M3440.66 1256.96 L3440.66 1269.95 L3446.54 1269.95 Q3449.8 1269.95 3451.58 1268.26 Q3453.36 1266.57 3453.36 1263.44 Q3453.36 1260.34 3451.58 1258.65 Q3449.8 1256.96 3446.54 1256.96 L3440.66 1256.96 M3435.98 1253.12 L3446.54 1253.12 Q3452.35 1253.12 3455.31 1255.76 Q3458.3 1258.37 3458.3 1263.44 Q3458.3 1268.56 3455.31 1271.17 Q3452.35 1273.79 3446.54 1273.79 L3440.66 1273.79 L3440.66 1287.68 L3435.98 1287.68 L3435.98 1253.12 Z" fill="#000000" fill-rule="evenodd" fill-opacity="1" /><path clip-path="url(#clip420)" d="M 0 0 M3499.64 1266.73 Q3501.23 1263.86 3503.46 1262.49 Q3505.68 1261.13 3508.69 1261.13 Q3512.74 1261.13 3514.94 1263.97 Q3517.14 1266.8 3517.14 1272.03 L3517.14 1287.68 L3512.86 1287.68 L3512.86 1272.17 Q3512.86 1268.44 3511.54 1266.64 Q3510.22 1264.83 3507.51 1264.83 Q3504.2 1264.83 3502.28 1267.03 Q3500.36 1269.23 3500.36 1273.02 L3500.36 1287.68 L3496.07 1287.68 L3496.07 1272.17 Q3496.07 1268.42 3494.75 1266.64 Q3493.43 1264.83 3490.68 1264.83 Q3487.42 1264.83 3485.49 1267.05 Q3483.57 1269.25 3483.57 1273.02 L3483.57 1287.68 L3479.29 1287.68 L3479.29 1261.75 L3483.57 1261.75 L3483.57 1265.78 Q3485.03 1263.4 3487.07 1262.26 Q3489.11 1261.13 3491.91 1261.13 Q3494.73 1261.13 3496.7 1262.56 Q3498.69 1264 3499.64 1266.73 Z" fill="#000000" fill-rule="evenodd" fill-opacity="1" /><path clip-path="url(#clip420)" d="M 0 0 M3547.81 1273.65 L3547.81 1275.73 L3528.23 1275.73 Q3528.5 1280.13 3530.86 1282.45 Q3533.25 1284.74 3537.48 1284.74 Q3539.94 1284.74 3542.23 1284.14 Q3544.54 1283.53 3546.81 1282.33 L3546.81 1286.36 Q3544.52 1287.33 3542.11 1287.84 Q3539.71 1288.35 3537.23 1288.35 Q3531.03 1288.35 3527.39 1284.74 Q3523.78 1281.13 3523.78 1274.97 Q3523.78 1268.6 3527.21 1264.88 Q3530.66 1261.13 3536.49 1261.13 Q3541.72 1261.13 3544.75 1264.51 Q3547.81 1267.86 3547.81 1273.65 M3543.55 1272.4 Q3543.5 1268.9 3541.58 1266.82 Q3539.68 1264.74 3536.54 1264.74 Q3532.97 1264.74 3530.82 1266.75 Q3528.69 1268.77 3528.36 1272.42 L3543.55 1272.4 Z" fill="#000000" fill-rule="evenodd" fill-opacity="1" /><path clip-path="url(#clip420)" d="M 0 0 M3566.58 1274.65 Q3561.42 1274.65 3559.43 1275.83 Q3557.44 1277.01 3557.44 1279.85 Q3557.44 1282.12 3558.92 1283.46 Q3560.42 1284.78 3562.99 1284.78 Q3566.54 1284.78 3568.67 1282.28 Q3570.82 1279.76 3570.82 1275.59 L3570.82 1274.65 L3566.58 1274.65 M3575.08 1272.89 L3575.08 1287.68 L3570.82 1287.68 L3570.82 1283.74 Q3569.36 1286.1 3567.18 1287.24 Q3565.01 1288.35 3561.86 1288.35 Q3557.88 1288.35 3555.52 1286.13 Q3553.18 1283.88 3553.18 1280.13 Q3553.18 1275.76 3556.1 1273.53 Q3559.04 1271.31 3564.85 1271.31 L3570.82 1271.31 L3570.82 1270.9 Q3570.82 1267.96 3568.87 1266.36 Q3566.95 1264.74 3563.46 1264.74 Q3561.23 1264.74 3559.13 1265.27 Q3557.02 1265.8 3555.08 1266.87 L3555.08 1262.93 Q3557.42 1262.03 3559.61 1261.59 Q3561.81 1261.13 3563.9 1261.13 Q3569.52 1261.13 3572.3 1264.04 Q3575.08 1266.96 3575.08 1272.89 Z" fill="#000000" fill-rule="evenodd" fill-opacity="1" /><path clip-path="url(#clip420)" d="M 0 0 M3605.4 1272.03 L3605.4 1287.68 L3601.14 1287.68 L3601.14 1272.17 Q3601.14 1268.49 3599.71 1266.66 Q3598.27 1264.83 3595.4 1264.83 Q3591.95 1264.83 3589.96 1267.03 Q3587.97 1269.23 3587.97 1273.02 L3587.97 1287.68 L3583.69 1287.68 L3583.69 1261.75 L3587.97 1261.75 L3587.97 1265.78 Q3589.5 1263.44 3591.56 1262.28 Q3593.64 1261.13 3596.35 1261.13 Q3600.82 1261.13 3603.11 1263.9 Q3605.4 1266.66 3605.4 1272.03 Z" fill="#000000" fill-rule="evenodd" fill-opacity="1" /><polyline clip-path="url(#clip420)" style="stroke:#0077bb; stroke-width:4; stroke-opacity:1; fill:none" points="
  3106.15,1330.88 3355.67,1330.88 
  "/>
<path clip-path="url(#clip420)" d="M 0 0 M3404.66 1314.87 L3404.66 1322.23 L3413.43 1322.23 L3413.43 1325.54 L3404.66 1325.54 L3404.66 1339.62 Q3404.66 1342.79 3405.52 1343.69 Q3406.4 1344.59 3409.06 1344.59 L3413.43 1344.59 L3413.43 1348.16 L3409.06 1348.16 Q3404.13 1348.16 3402.25 1346.33 Q3400.38 1344.48 3400.38 1339.62 L3400.38 1325.54 L3397.25 1325.54 L3397.25 1322.23 L3400.38 1322.23 L3400.38 1314.87 L3404.66 1314.87 Z" fill="#000000" fill-rule="evenodd" fill-opacity="1" /><path clip-path="url(#clip420)" d="M 0 0 M3430.82 1335.13 Q3425.66 1335.13 3423.67 1336.31 Q3421.68 1337.49 3421.68 1340.33 Q3421.68 1342.6 3423.16 1343.94 Q3424.66 1345.26 3427.23 1345.26 Q3430.77 1345.26 3432.9 1342.76 Q3435.05 1340.24 3435.05 1336.07 L3435.05 1335.13 L3430.82 1335.13 M3439.31 1333.37 L3439.31 1348.16 L3435.05 1348.16 L3435.05 1344.22 Q3433.6 1346.58 3431.42 1347.72 Q3429.24 1348.83 3426.1 1348.83 Q3422.11 1348.83 3419.75 1346.61 Q3417.42 1344.36 3417.42 1340.61 Q3417.42 1336.24 3420.33 1334.01 Q3423.27 1331.79 3429.08 1331.79 L3435.05 1331.79 L3435.05 1331.38 Q3435.05 1328.44 3433.11 1326.84 Q3431.19 1325.22 3427.69 1325.22 Q3425.47 1325.22 3423.36 1325.75 Q3421.26 1326.28 3419.31 1327.35 L3419.31 1323.41 Q3421.65 1322.51 3423.85 1322.07 Q3426.05 1321.61 3428.13 1321.61 Q3433.76 1321.61 3436.54 1324.52 Q3439.31 1327.44 3439.31 1333.37 Z" fill="#000000" fill-rule="evenodd" fill-opacity="1" /><path clip-path="url(#clip420)" d="M 0 0 M3463.11 1326.21 Q3462.39 1325.8 3461.54 1325.61 Q3460.7 1325.4 3459.68 1325.4 Q3456.07 1325.4 3454.13 1327.76 Q3452.21 1330.1 3452.21 1334.5 L3452.21 1348.16 L3447.92 1348.16 L3447.92 1322.23 L3452.21 1322.23 L3452.21 1326.26 Q3453.55 1323.9 3455.7 1322.76 Q3457.86 1321.61 3460.93 1321.61 Q3461.37 1321.61 3461.91 1321.68 Q3462.44 1321.72 3463.09 1321.84 L3463.11 1326.21 Z" fill="#000000" fill-rule="evenodd" fill-opacity="1" /><path clip-path="url(#clip420)" d="M 0 0 M3483.8 1334.89 Q3483.8 1330.26 3481.88 1327.72 Q3479.98 1325.17 3476.54 1325.17 Q3473.11 1325.17 3471.19 1327.72 Q3469.29 1330.26 3469.29 1334.89 Q3469.29 1339.5 3471.19 1342.05 Q3473.11 1344.59 3476.54 1344.59 Q3479.98 1344.59 3481.88 1342.05 Q3483.8 1339.5 3483.8 1334.89 M3488.06 1344.94 Q3488.06 1351.56 3485.12 1354.78 Q3482.18 1358.02 3476.12 1358.02 Q3473.87 1358.02 3471.88 1357.67 Q3469.89 1357.35 3468.02 1356.65 L3468.02 1352.51 Q3469.89 1353.53 3471.72 1354.01 Q3473.55 1354.5 3475.45 1354.5 Q3479.64 1354.5 3481.72 1352.3 Q3483.8 1350.13 3483.8 1345.7 L3483.8 1343.6 Q3482.48 1345.89 3480.42 1347.02 Q3478.36 1348.16 3475.49 1348.16 Q3470.73 1348.16 3467.81 1344.52 Q3464.89 1340.89 3464.89 1334.89 Q3464.89 1328.88 3467.81 1325.24 Q3470.73 1321.61 3475.49 1321.61 Q3478.36 1321.61 3480.42 1322.74 Q3482.48 1323.88 3483.8 1326.17 L3483.8 1322.23 L3488.06 1322.23 L3488.06 1344.94 Z" fill="#000000" fill-rule="evenodd" fill-opacity="1" /><path clip-path="url(#clip420)" d="M 0 0 M3519.01 1334.13 L3519.01 1336.21 L3499.43 1336.21 Q3499.71 1340.61 3502.07 1342.93 Q3504.45 1345.22 3508.69 1345.22 Q3511.14 1345.22 3513.43 1344.62 Q3515.75 1344.01 3518.02 1342.81 L3518.02 1346.84 Q3515.73 1347.81 3513.32 1348.32 Q3510.91 1348.83 3508.43 1348.83 Q3502.23 1348.83 3498.6 1345.22 Q3494.98 1341.61 3494.98 1335.45 Q3494.98 1329.08 3498.41 1325.36 Q3501.86 1321.61 3507.69 1321.61 Q3512.92 1321.61 3515.96 1324.99 Q3519.01 1328.34 3519.01 1334.13 M3514.75 1332.88 Q3514.71 1329.38 3512.79 1327.3 Q3510.89 1325.22 3507.74 1325.22 Q3504.17 1325.22 3502.02 1327.23 Q3499.89 1329.25 3499.57 1332.9 L3514.75 1332.88 Z" fill="#000000" fill-rule="evenodd" fill-opacity="1" /><path clip-path="url(#clip420)" d="M 0 0 M3530.22 1314.87 L3530.22 1322.23 L3538.99 1322.23 L3538.99 1325.54 L3530.22 1325.54 L3530.22 1339.62 Q3530.22 1342.79 3531.07 1343.69 Q3531.95 1344.59 3534.61 1344.59 L3538.99 1344.59 L3538.99 1348.16 L3534.61 1348.16 Q3529.68 1348.16 3527.81 1346.33 Q3525.93 1344.48 3525.93 1339.62 L3525.93 1325.54 L3522.81 1325.54 L3522.81 1322.23 L3525.93 1322.23 L3525.93 1314.87 L3530.22 1314.87 Z" fill="#000000" fill-rule="evenodd" fill-opacity="1" /><path clip-path="url(#clip420)" d="M 0 0 M3572.79 1312.14 L3572.79 1315.68 L3568.71 1315.68 Q3566.42 1315.68 3565.52 1316.61 Q3564.64 1317.53 3564.64 1319.94 L3564.64 1322.23 L3571.65 1322.23 L3571.65 1325.54 L3564.64 1325.54 L3564.64 1348.16 L3560.35 1348.16 L3560.35 1325.54 L3556.28 1325.54 L3556.28 1322.23 L3560.35 1322.23 L3560.35 1320.43 Q3560.35 1316.1 3562.37 1314.13 Q3564.38 1312.14 3568.76 1312.14 L3572.79 1312.14 Z" fill="#000000" fill-rule="evenodd" fill-opacity="1" /><path clip-path="url(#clip420)" d="M 0 0 M3575.91 1337.93 L3575.91 1322.23 L3580.17 1322.23 L3580.17 1337.76 Q3580.17 1341.44 3581.6 1343.3 Q3583.04 1345.13 3585.91 1345.13 Q3589.36 1345.13 3591.35 1342.93 Q3593.36 1340.73 3593.36 1336.93 L3593.36 1322.23 L3597.62 1322.23 L3597.62 1348.16 L3593.36 1348.16 L3593.36 1344.18 Q3591.81 1346.54 3589.75 1347.69 Q3587.72 1348.83 3585.01 1348.83 Q3580.54 1348.83 3578.23 1346.05 Q3575.91 1343.27 3575.91 1337.93 M3586.63 1321.61 L3586.63 1321.61 Z" fill="#000000" fill-rule="evenodd" fill-opacity="1" /><path clip-path="url(#clip420)" d="M 0 0 M3627.95 1332.51 L3627.95 1348.16 L3623.69 1348.16 L3623.69 1332.65 Q3623.69 1328.97 3622.25 1327.14 Q3620.82 1325.31 3617.95 1325.31 Q3614.5 1325.31 3612.51 1327.51 Q3610.52 1329.71 3610.52 1333.5 L3610.52 1348.16 L3606.23 1348.16 L3606.23 1322.23 L3610.52 1322.23 L3610.52 1326.26 Q3612.04 1323.92 3614.1 1322.76 Q3616.19 1321.61 3618.9 1321.61 Q3623.36 1321.61 3625.66 1324.38 Q3627.95 1327.14 3627.95 1332.51 Z" fill="#000000" fill-rule="evenodd" fill-opacity="1" /><path clip-path="url(#clip420)" d="M 0 0 M3655.1 1323.23 L3655.1 1327.21 Q3653.29 1326.21 3651.47 1325.73 Q3649.66 1325.22 3647.81 1325.22 Q3643.66 1325.22 3641.37 1327.86 Q3639.08 1330.47 3639.08 1335.22 Q3639.08 1339.96 3641.37 1342.6 Q3643.66 1345.22 3647.81 1345.22 Q3649.66 1345.22 3651.47 1344.73 Q3653.29 1344.22 3655.1 1343.23 L3655.1 1347.16 Q3653.32 1348 3651.4 1348.41 Q3649.5 1348.83 3647.35 1348.83 Q3641.49 1348.83 3638.04 1345.15 Q3634.59 1341.47 3634.59 1335.22 Q3634.59 1328.88 3638.06 1325.24 Q3641.56 1321.61 3647.62 1321.61 Q3649.59 1321.61 3651.47 1322.02 Q3653.34 1322.42 3655.1 1323.23 Z" fill="#000000" fill-rule="evenodd" fill-opacity="1" /><path clip-path="url(#clip420)" d="M 0 0 M3666.72 1314.87 L3666.72 1322.23 L3675.49 1322.23 L3675.49 1325.54 L3666.72 1325.54 L3666.72 1339.62 Q3666.72 1342.79 3667.58 1343.69 Q3668.46 1344.59 3671.12 1344.59 L3675.49 1344.59 L3675.49 1348.16 L3671.12 1348.16 Q3666.19 1348.16 3664.31 1346.33 Q3662.44 1344.48 3662.44 1339.62 L3662.44 1325.54 L3659.31 1325.54 L3659.31 1322.23 L3662.44 1322.23 L3662.44 1314.87 L3666.72 1314.87 Z" fill="#000000" fill-rule="evenodd" fill-opacity="1" /><path clip-path="url(#clip420)" d="M 0 0 M3681.09 1322.23 L3685.35 1322.23 L3685.35 1348.16 L3681.09 1348.16 L3681.09 1322.23 M3681.09 1312.14 L3685.35 1312.14 L3685.35 1317.53 L3681.09 1317.53 L3681.09 1312.14 Z" fill="#000000" fill-rule="evenodd" fill-opacity="1" /><path clip-path="url(#clip420)" d="M 0 0 M3704.31 1325.22 Q3700.89 1325.22 3698.9 1327.9 Q3696.91 1330.57 3696.91 1335.22 Q3696.91 1339.87 3698.87 1342.56 Q3700.86 1345.22 3704.31 1345.22 Q3707.72 1345.22 3709.71 1342.53 Q3711.7 1339.85 3711.7 1335.22 Q3711.7 1330.61 3709.71 1327.93 Q3707.72 1325.22 3704.31 1325.22 M3704.31 1321.61 Q3709.87 1321.61 3713.04 1325.22 Q3716.21 1328.83 3716.21 1335.22 Q3716.21 1341.58 3713.04 1345.22 Q3709.87 1348.83 3704.31 1348.83 Q3698.73 1348.83 3695.56 1345.22 Q3692.41 1341.58 3692.41 1335.22 Q3692.41 1328.83 3695.56 1325.22 Q3698.73 1321.61 3704.31 1321.61 Z" fill="#000000" fill-rule="evenodd" fill-opacity="1" /><path clip-path="url(#clip420)" d="M 0 0 M3744.82 1332.51 L3744.82 1348.16 L3740.56 1348.16 L3740.56 1332.65 Q3740.56 1328.97 3739.13 1327.14 Q3737.69 1325.31 3734.82 1325.31 Q3731.37 1325.31 3729.38 1327.51 Q3727.39 1329.71 3727.39 1333.5 L3727.39 1348.16 L3723.11 1348.16 L3723.11 1322.23 L3727.39 1322.23 L3727.39 1326.26 Q3728.92 1323.92 3730.98 1322.76 Q3733.06 1321.61 3735.77 1321.61 Q3740.24 1321.61 3742.53 1324.38 Q3744.82 1327.14 3744.82 1332.51 Z" fill="#000000" fill-rule="evenodd" fill-opacity="1" /><circle clip-path="url(#clip420)" cx="3230.91" cy="1391.36" r="23" fill="#ee3377" fill-rule="evenodd" fill-opacity="1" stroke="#000000" stroke-opacity="1" stroke-width="0"/>
<path clip-path="url(#clip420)" d="M 0 0 M3409.15 1385.7 Q3405.73 1385.7 3403.74 1388.38 Q3401.74 1391.05 3401.74 1395.7 Q3401.74 1400.35 3403.71 1403.04 Q3405.7 1405.7 3409.15 1405.7 Q3412.55 1405.7 3414.55 1403.01 Q3416.54 1400.33 3416.54 1395.7 Q3416.54 1391.09 3414.55 1388.41 Q3412.55 1385.7 3409.15 1385.7 M3409.15 1382.09 Q3414.71 1382.09 3417.88 1385.7 Q3421.05 1389.31 3421.05 1395.7 Q3421.05 1402.06 3417.88 1405.7 Q3414.71 1409.31 3409.15 1409.31 Q3403.57 1409.31 3400.4 1405.7 Q3397.25 1402.06 3397.25 1395.7 Q3397.25 1389.31 3400.4 1385.7 Q3403.57 1382.09 3409.15 1382.09 Z" fill="#000000" fill-rule="evenodd" fill-opacity="1" /><path clip-path="url(#clip420)" d="M 0 0 M3446.72 1395.7 Q3446.72 1391 3444.78 1388.34 Q3442.86 1385.65 3439.48 1385.65 Q3436.1 1385.65 3434.15 1388.34 Q3432.23 1391 3432.23 1395.7 Q3432.23 1400.4 3434.15 1403.08 Q3436.1 1405.74 3439.48 1405.74 Q3442.86 1405.74 3444.78 1403.08 Q3446.72 1400.4 3446.72 1395.7 M3432.23 1386.65 Q3433.57 1384.33 3435.61 1383.22 Q3437.67 1382.09 3440.52 1382.09 Q3445.24 1382.09 3448.18 1385.84 Q3451.14 1389.59 3451.14 1395.7 Q3451.14 1401.81 3448.18 1405.56 Q3445.24 1409.31 3440.52 1409.31 Q3437.67 1409.31 3435.61 1408.2 Q3433.57 1407.06 3432.23 1404.75 L3432.23 1408.64 L3427.95 1408.64 L3427.95 1372.62 L3432.23 1372.62 L3432.23 1386.65 Z" fill="#000000" fill-rule="evenodd" fill-opacity="1" /><path clip-path="url(#clip420)" d="M 0 0 M3474.73 1383.48 L3474.73 1387.5 Q3472.92 1386.58 3470.98 1386.11 Q3469.04 1385.65 3466.95 1385.65 Q3463.78 1385.65 3462.18 1386.62 Q3460.61 1387.6 3460.61 1389.54 Q3460.61 1391.02 3461.74 1391.88 Q3462.88 1392.71 3466.3 1393.48 L3467.76 1393.8 Q3472.3 1394.77 3474.2 1396.55 Q3476.12 1398.31 3476.12 1401.48 Q3476.12 1405.1 3473.25 1407.2 Q3470.4 1409.31 3465.4 1409.31 Q3463.32 1409.31 3461.05 1408.89 Q3458.8 1408.5 3456.3 1407.69 L3456.3 1403.29 Q3458.67 1404.52 3460.96 1405.14 Q3463.25 1405.74 3465.49 1405.74 Q3468.5 1405.74 3470.12 1404.73 Q3471.74 1403.68 3471.74 1401.81 Q3471.74 1400.07 3470.56 1399.15 Q3469.41 1398.22 3465.45 1397.36 L3463.97 1397.02 Q3460.01 1396.18 3458.25 1394.47 Q3456.49 1392.73 3456.49 1389.73 Q3456.49 1386.07 3459.08 1384.08 Q3461.67 1382.09 3466.44 1382.09 Q3468.8 1382.09 3470.89 1382.43 Q3472.97 1382.78 3474.73 1383.48 Z" fill="#000000" fill-rule="evenodd" fill-opacity="1" /><path clip-path="url(#clip420)" d="M 0 0 M3505.08 1394.61 L3505.08 1396.69 L3485.49 1396.69 Q3485.77 1401.09 3488.13 1403.41 Q3490.52 1405.7 3494.75 1405.7 Q3497.21 1405.7 3499.5 1405.1 Q3501.81 1404.49 3504.08 1403.29 L3504.08 1407.32 Q3501.79 1408.29 3499.38 1408.8 Q3496.98 1409.31 3494.5 1409.31 Q3488.3 1409.31 3484.66 1405.7 Q3481.05 1402.09 3481.05 1395.93 Q3481.05 1389.56 3484.48 1385.84 Q3487.92 1382.09 3493.76 1382.09 Q3498.99 1382.09 3502.02 1385.47 Q3505.08 1388.82 3505.08 1394.61 M3500.82 1393.36 Q3500.77 1389.86 3498.85 1387.78 Q3496.95 1385.7 3493.8 1385.7 Q3490.24 1385.7 3488.09 1387.71 Q3485.96 1389.73 3485.63 1393.38 L3500.82 1393.36 Z" fill="#000000" fill-rule="evenodd" fill-opacity="1" /><path clip-path="url(#clip420)" d="M 0 0 M3527.09 1386.69 Q3526.37 1386.28 3525.52 1386.09 Q3524.68 1385.88 3523.67 1385.88 Q3520.05 1385.88 3518.11 1388.24 Q3516.19 1390.58 3516.19 1394.98 L3516.19 1408.64 L3511.91 1408.64 L3511.91 1382.71 L3516.19 1382.71 L3516.19 1386.74 Q3517.53 1384.38 3519.68 1383.24 Q3521.84 1382.09 3524.92 1382.09 Q3525.36 1382.09 3525.89 1382.16 Q3526.42 1382.2 3527.07 1382.32 L3527.09 1386.69 Z" fill="#000000" fill-rule="evenodd" fill-opacity="1" /><path clip-path="url(#clip420)" d="M 0 0 M3528.5 1382.71 L3533.02 1382.71 L3541.12 1404.47 L3549.22 1382.71 L3553.73 1382.71 L3544.01 1408.64 L3538.23 1408.64 L3528.5 1382.71 Z" fill="#000000" fill-rule="evenodd" fill-opacity="1" /><path clip-path="url(#clip420)" d="M 0 0 M3571.4 1395.61 Q3566.23 1395.61 3564.24 1396.79 Q3562.25 1397.97 3562.25 1400.81 Q3562.25 1403.08 3563.73 1404.42 Q3565.24 1405.74 3567.81 1405.74 Q3571.35 1405.74 3573.48 1403.24 Q3575.63 1400.72 3575.63 1396.55 L3575.63 1395.61 L3571.4 1395.61 M3579.89 1393.85 L3579.89 1408.64 L3575.63 1408.64 L3575.63 1404.7 Q3574.17 1407.06 3572 1408.2 Q3569.82 1409.31 3566.67 1409.31 Q3562.69 1409.31 3560.33 1407.09 Q3557.99 1404.84 3557.99 1401.09 Q3557.99 1396.72 3560.91 1394.49 Q3563.85 1392.27 3569.66 1392.27 L3575.63 1392.27 L3575.63 1391.86 Q3575.63 1388.92 3573.69 1387.32 Q3571.77 1385.7 3568.27 1385.7 Q3566.05 1385.7 3563.94 1386.23 Q3561.84 1386.76 3559.89 1387.83 L3559.89 1383.89 Q3562.23 1382.99 3564.43 1382.55 Q3566.63 1382.09 3568.71 1382.09 Q3574.34 1382.09 3577.11 1385 Q3579.89 1387.92 3579.89 1393.85 Z" fill="#000000" fill-rule="evenodd" fill-opacity="1" /><path clip-path="url(#clip420)" d="M 0 0 M3592.88 1375.35 L3592.88 1382.71 L3601.65 1382.71 L3601.65 1386.02 L3592.88 1386.02 L3592.88 1400.1 Q3592.88 1403.27 3593.73 1404.17 Q3594.61 1405.07 3597.28 1405.07 L3601.65 1405.07 L3601.65 1408.64 L3597.28 1408.64 Q3592.35 1408.64 3590.47 1406.81 Q3588.6 1404.96 3588.6 1400.1 L3588.6 1386.02 L3585.47 1386.02 L3585.47 1382.71 L3588.6 1382.71 L3588.6 1375.35 L3592.88 1375.35 Z" fill="#000000" fill-rule="evenodd" fill-opacity="1" /><path clip-path="url(#clip420)" d="M 0 0 M3607.25 1382.71 L3611.51 1382.71 L3611.51 1408.64 L3607.25 1408.64 L3607.25 1382.71 M3607.25 1372.62 L3611.51 1372.62 L3611.51 1378.01 L3607.25 1378.01 L3607.25 1372.62 Z" fill="#000000" fill-rule="evenodd" fill-opacity="1" /><path clip-path="url(#clip420)" d="M 0 0 M3630.47 1385.7 Q3627.04 1385.7 3625.05 1388.38 Q3623.06 1391.05 3623.06 1395.7 Q3623.06 1400.35 3625.03 1403.04 Q3627.02 1405.7 3630.47 1405.7 Q3633.87 1405.7 3635.86 1403.01 Q3637.85 1400.33 3637.85 1395.7 Q3637.85 1391.09 3635.86 1388.41 Q3633.87 1385.7 3630.47 1385.7 M3630.47 1382.09 Q3636.03 1382.09 3639.2 1385.7 Q3642.37 1389.31 3642.37 1395.7 Q3642.37 1402.06 3639.2 1405.7 Q3636.03 1409.31 3630.47 1409.31 Q3624.89 1409.31 3621.72 1405.7 Q3618.57 1402.06 3618.57 1395.7 Q3618.57 1389.31 3621.72 1385.7 Q3624.89 1382.09 3630.47 1382.09 Z" fill="#000000" fill-rule="evenodd" fill-opacity="1" /><path clip-path="url(#clip420)" d="M 0 0 M3670.98 1392.99 L3670.98 1408.64 L3666.72 1408.64 L3666.72 1393.13 Q3666.72 1389.45 3665.28 1387.62 Q3663.85 1385.79 3660.98 1385.79 Q3657.53 1385.79 3655.54 1387.99 Q3653.55 1390.19 3653.55 1393.98 L3653.55 1408.64 L3649.27 1408.64 L3649.27 1382.71 L3653.55 1382.71 L3653.55 1386.74 Q3655.08 1384.4 3657.14 1383.24 Q3659.22 1382.09 3661.93 1382.09 Q3666.4 1382.09 3668.69 1384.86 Q3670.98 1387.62 3670.98 1392.99 Z" fill="#000000" fill-rule="evenodd" fill-opacity="1" /><path clip-path="url(#clip420)" d="M 0 0 M3696 1383.48 L3696 1387.5 Q3694.2 1386.58 3692.25 1386.11 Q3690.31 1385.65 3688.22 1385.65 Q3685.05 1385.65 3683.46 1386.62 Q3681.88 1387.6 3681.88 1389.54 Q3681.88 1391.02 3683.02 1391.88 Q3684.15 1392.71 3687.58 1393.48 L3689.03 1393.8 Q3693.57 1394.77 3695.47 1396.55 Q3697.39 1398.31 3697.39 1401.48 Q3697.39 1405.1 3694.52 1407.2 Q3691.67 1409.31 3686.67 1409.31 Q3684.59 1409.31 3682.32 1408.89 Q3680.08 1408.5 3677.58 1407.69 L3677.58 1403.29 Q3679.94 1404.52 3682.23 1405.14 Q3684.52 1405.74 3686.77 1405.74 Q3689.78 1405.74 3691.4 1404.73 Q3693.02 1403.68 3693.02 1401.81 Q3693.02 1400.07 3691.84 1399.15 Q3690.68 1398.22 3686.72 1397.36 L3685.24 1397.02 Q3681.28 1396.18 3679.52 1394.47 Q3677.76 1392.73 3677.76 1389.73 Q3677.76 1386.07 3680.35 1384.08 Q3682.95 1382.09 3687.72 1382.09 Q3690.08 1382.09 3692.16 1382.43 Q3694.24 1382.78 3696 1383.48 Z" fill="#000000" fill-rule="evenodd" fill-opacity="1" /></svg>
