<?xml version="1.0" encoding="utf-8"?>
<svg xmlns="http://www.w3.org/2000/svg" xmlns:xlink="http://www.w3.org/1999/xlink" width="1000" height="400" viewBox="0 0 4000 1600">
<defs>
  <clipPath id="clip360">
    <rect x="0" y="0" width="4000" height="1600"/>
  </clipPath>
</defs>
<path clip-path="url(#clip360)" d="
M0 1600 L4000 1600 L4000 0 L0 0  Z
  " fill="#ffffff" fill-rule="evenodd" fill-opacity="1"/>
<defs>
  <clipPath id="clip361">
    <rect x="800" y="0" width="2801" height="1600"/>
  </clipPath>
</defs>
<path clip-path="url(#clip360)" d="
M209.936 1500.27 L3952.76 1500.27 L3952.76 47.2441 L209.936 47.2441  Z
  " fill="#ffffff" fill-rule="evenodd" fill-opacity="1"/>
<defs>
  <clipPath id="clip362">
    <rect x="209" y="47" width="3744" height="1454"/>
  </clipPath>
</defs>
<polyline clip-path="url(#clip362)" style="stroke:#222255; stroke-width:2; stroke-opacity:0.1; fill:none" points="
  676.421,1500.27 676.421,47.2441 
  "/>
<polyline clip-path="url(#clip362)" style="stroke:#222255; stroke-width:2; stroke-opacity:0.1; fill:none" points="
  1378.88,1500.27 1378.88,47.2441 
  "/>
<polyline clip-path="url(#clip362)" style="stroke:#222255; stroke-width:2; stroke-opacity:0.1; fill:none" points="
  2081.35,1500.27 2081.35,47.2441 
  "/>
<polyline clip-path="url(#clip362)" style="stroke:#222255; stroke-width:2; stroke-opacity:0.1; fill:none" points="
  2783.81,1500.27 2783.81,47.2441 
  "/>
<polyline clip-path="url(#clip362)" style="stroke:#222255; stroke-width:2; stroke-opacity:0.1; fill:none" points="
  3486.27,1500.27 3486.27,47.2441 
  "/>
<polyline clip-path="url(#clip362)" style="stroke:#222255; stroke-width:2; stroke-opacity:0.05; fill:none" points="
  254.943,1500.27 254.943,47.2441 
  "/>
<polyline clip-path="url(#clip362)" style="stroke:#222255; stroke-width:2; stroke-opacity:0.05; fill:none" points="
  395.436,1500.27 395.436,47.2441 
  "/>
<polyline clip-path="url(#clip362)" style="stroke:#222255; stroke-width:2; stroke-opacity:0.05; fill:none" points="
  535.928,1500.27 535.928,47.2441 
  "/>
<polyline clip-path="url(#clip362)" style="stroke:#222255; stroke-width:2; stroke-opacity:0.05; fill:none" points="
  816.913,1500.27 816.913,47.2441 
  "/>
<polyline clip-path="url(#clip362)" style="stroke:#222255; stroke-width:2; stroke-opacity:0.05; fill:none" points="
  957.406,1500.27 957.406,47.2441 
  "/>
<polyline clip-path="url(#clip362)" style="stroke:#222255; stroke-width:2; stroke-opacity:0.05; fill:none" points="
  1097.9,1500.27 1097.9,47.2441 
  "/>
<polyline clip-path="url(#clip362)" style="stroke:#222255; stroke-width:2; stroke-opacity:0.05; fill:none" points="
  1238.39,1500.27 1238.39,47.2441 
  "/>
<polyline clip-path="url(#clip362)" style="stroke:#222255; stroke-width:2; stroke-opacity:0.05; fill:none" points="
  1519.38,1500.27 1519.38,47.2441 
  "/>
<polyline clip-path="url(#clip362)" style="stroke:#222255; stroke-width:2; stroke-opacity:0.05; fill:none" points="
  1659.87,1500.27 1659.87,47.2441 
  "/>
<polyline clip-path="url(#clip362)" style="stroke:#222255; stroke-width:2; stroke-opacity:0.05; fill:none" points="
  1800.36,1500.27 1800.36,47.2441 
  "/>
<polyline clip-path="url(#clip362)" style="stroke:#222255; stroke-width:2; stroke-opacity:0.05; fill:none" points="
  1940.85,1500.27 1940.85,47.2441 
  "/>
<polyline clip-path="url(#clip362)" style="stroke:#222255; stroke-width:2; stroke-opacity:0.05; fill:none" points="
  2221.84,1500.27 2221.84,47.2441 
  "/>
<polyline clip-path="url(#clip362)" style="stroke:#222255; stroke-width:2; stroke-opacity:0.05; fill:none" points="
  2362.33,1500.27 2362.33,47.2441 
  "/>
<polyline clip-path="url(#clip362)" style="stroke:#222255; stroke-width:2; stroke-opacity:0.05; fill:none" points="
  2502.82,1500.27 2502.82,47.2441 
  "/>
<polyline clip-path="url(#clip362)" style="stroke:#222255; stroke-width:2; stroke-opacity:0.05; fill:none" points="
  2643.32,1500.27 2643.32,47.2441 
  "/>
<polyline clip-path="url(#clip362)" style="stroke:#222255; stroke-width:2; stroke-opacity:0.05; fill:none" points="
  2924.3,1500.27 2924.3,47.2441 
  "/>
<polyline clip-path="url(#clip362)" style="stroke:#222255; stroke-width:2; stroke-opacity:0.05; fill:none" points="
  3064.79,1500.27 3064.79,47.2441 
  "/>
<polyline clip-path="url(#clip362)" style="stroke:#222255; stroke-width:2; stroke-opacity:0.05; fill:none" points="
  3205.29,1500.27 3205.29,47.2441 
  "/>
<polyline clip-path="url(#clip362)" style="stroke:#222255; stroke-width:2; stroke-opacity:0.05; fill:none" points="
  3345.78,1500.27 3345.78,47.2441 
  "/>
<polyline clip-path="url(#clip362)" style="stroke:#222255; stroke-width:2; stroke-opacity:0.05; fill:none" points="
  3626.76,1500.27 3626.76,47.2441 
  "/>
<polyline clip-path="url(#clip362)" style="stroke:#222255; stroke-width:2; stroke-opacity:0.05; fill:none" points="
  3767.26,1500.27 3767.26,47.2441 
  "/>
<polyline clip-path="url(#clip362)" style="stroke:#222255; stroke-width:2; stroke-opacity:0.05; fill:none" points="
  3907.75,1500.27 3907.75,47.2441 
  "/>
<polyline clip-path="url(#clip360)" style="stroke:#222255; stroke-width:4; stroke-opacity:0; fill:none" points="
  676.421,1500.27 676.421,1482.84 
  "/>
<polyline clip-path="url(#clip360)" style="stroke:#222255; stroke-width:4; stroke-opacity:0; fill:none" points="
  1378.88,1500.27 1378.88,1482.84 
  "/>
<polyline clip-path="url(#clip360)" style="stroke:#222255; stroke-width:4; stroke-opacity:0; fill:none" points="
  2081.35,1500.27 2081.35,1482.84 
  "/>
<polyline clip-path="url(#clip360)" style="stroke:#222255; stroke-width:4; stroke-opacity:0; fill:none" points="
  2783.81,1500.27 2783.81,1482.84 
  "/>
<polyline clip-path="url(#clip360)" style="stroke:#222255; stroke-width:4; stroke-opacity:0; fill:none" points="
  3486.27,1500.27 3486.27,1482.84 
  "/>
<polyline clip-path="url(#clip360)" style="stroke:#222255; stroke-width:4; stroke-opacity:0; fill:none" points="
  254.943,1500.27 254.943,1491.55 
  "/>
<polyline clip-path="url(#clip360)" style="stroke:#222255; stroke-width:4; stroke-opacity:0; fill:none" points="
  395.436,1500.27 395.436,1491.55 
  "/>
<polyline clip-path="url(#clip360)" style="stroke:#222255; stroke-width:4; stroke-opacity:0; fill:none" points="
  535.928,1500.27 535.928,1491.55 
  "/>
<polyline clip-path="url(#clip360)" style="stroke:#222255; stroke-width:4; stroke-opacity:0; fill:none" points="
  816.913,1500.27 816.913,1491.55 
  "/>
<polyline clip-path="url(#clip360)" style="stroke:#222255; stroke-width:4; stroke-opacity:0; fill:none" points="
  957.406,1500.27 957.406,1491.55 
  "/>
<polyline clip-path="url(#clip360)" style="stroke:#222255; stroke-width:4; stroke-opacity:0; fill:none" points="
  1097.9,1500.27 1097.9,1491.55 
  "/>
<polyline clip-path="url(#clip360)" style="stroke:#222255; stroke-width:4; stroke-opacity:0; fill:none" points="
  1238.39,1500.27 1238.39,1491.55 
  "/>
<polyline clip-path="url(#clip360)" style="stroke:#222255; stroke-width:4; stroke-opacity:0; fill:none" points="
  1519.38,1500.27 1519.38,1491.55 
  "/>
<polyline clip-path="url(#clip360)" style="stroke:#222255; stroke-width:4; stroke-opacity:0; fill:none" points="
  1659.87,1500.27 1659.87,1491.55 
  "/>
<polyline clip-path="url(#clip360)" style="stroke:#222255; stroke-width:4; stroke-opacity:0; fill:none" points="
  1800.36,1500.27 1800.36,1491.55 
  "/>
<polyline clip-path="url(#clip360)" style="stroke:#222255; stroke-width:4; stroke-opacity:0; fill:none" points="
  1940.85,1500.27 1940.85,1491.55 
  "/>
<polyline clip-path="url(#clip360)" style="stroke:#222255; stroke-width:4; stroke-opacity:0; fill:none" points="
  2221.84,1500.27 2221.84,1491.55 
  "/>
<polyline clip-path="url(#clip360)" style="stroke:#222255; stroke-width:4; stroke-opacity:0; fill:none" points="
  2362.33,1500.27 2362.33,1491.55 
  "/>
<polyline clip-path="url(#clip360)" style="stroke:#222255; stroke-width:4; stroke-opacity:0; fill:none" points="
  2502.82,1500.27 2502.82,1491.55 
  "/>
<polyline clip-path="url(#clip360)" style="stroke:#222255; stroke-width:4; stroke-opacity:0; fill:none" points="
  2643.32,1500.27 2643.32,1491.55 
  "/>
<polyline clip-path="url(#clip360)" style="stroke:#222255; stroke-width:4; stroke-opacity:0; fill:none" points="
  2924.3,1500.27 2924.3,1491.55 
  "/>
<polyline clip-path="url(#clip360)" style="stroke:#222255; stroke-width:4; stroke-opacity:0; fill:none" points="
  3064.79,1500.27 3064.79,1491.55 
  "/>
<polyline clip-path="url(#clip360)" style="stroke:#222255; stroke-width:4; stroke-opacity:0; fill:none" points="
  3205.29,1500.27 3205.29,1491.55 
  "/>
<polyline clip-path="url(#clip360)" style="stroke:#222255; stroke-width:4; stroke-opacity:0; fill:none" points="
  3345.78,1500.27 3345.78,1491.55 
  "/>
<polyline clip-path="url(#clip360)" style="stroke:#222255; stroke-width:4; stroke-opacity:0; fill:none" points="
  3626.76,1500.27 3626.76,1491.55 
  "/>
<polyline clip-path="url(#clip360)" style="stroke:#222255; stroke-width:4; stroke-opacity:0; fill:none" points="
  3767.26,1500.27 3767.26,1491.55 
  "/>
<polyline clip-path="url(#clip360)" style="stroke:#222255; stroke-width:4; stroke-opacity:0; fill:none" points="
  3907.75,1500.27 3907.75,1491.55 
  "/>
<path clip-path="url(#clip360)" d="M 0 0 M622.949 1556.92 L652.625 1556.92 L652.625 1560.85 L622.949 1560.85 L622.949 1556.92 Z" fill="#000000" fill-rule="evenodd" fill-opacity="1" /><path clip-path="url(#clip360)" d="M 0 0 M662.763 1539.18 L681.12 1539.18 L681.12 1543.12 L667.046 1543.12 L667.046 1551.59 Q668.064 1551.24 669.083 1551.08 Q670.101 1550.9 671.12 1550.9 Q676.907 1550.9 680.286 1554.07 Q683.666 1557.24 683.666 1562.66 Q683.666 1568.23 680.194 1571.34 Q676.722 1574.42 670.402 1574.42 Q668.226 1574.42 665.958 1574.04 Q663.712 1573.67 661.305 1572.93 L661.305 1568.23 Q663.388 1569.37 665.611 1569.92 Q667.833 1570.48 670.31 1570.48 Q674.314 1570.48 676.652 1568.37 Q678.99 1566.27 678.99 1562.66 Q678.99 1559.04 676.652 1556.94 Q674.314 1554.83 670.31 1554.83 Q668.435 1554.83 666.56 1555.25 Q664.708 1555.67 662.763 1556.54 L662.763 1539.18 Z" fill="#000000" fill-rule="evenodd" fill-opacity="1" /><path clip-path="url(#clip360)" d="M 0 0 M692.879 1567.86 L697.763 1567.86 L697.763 1573.74 L692.879 1573.74 L692.879 1567.86 Z" fill="#000000" fill-rule="evenodd" fill-opacity="1" /><path clip-path="url(#clip360)" d="M 0 0 M717.948 1542.26 Q714.337 1542.26 712.509 1545.83 Q710.703 1549.37 710.703 1556.5 Q710.703 1563.61 712.509 1567.17 Q714.337 1570.71 717.948 1570.71 Q721.583 1570.71 723.388 1567.17 Q725.217 1563.61 725.217 1556.5 Q725.217 1549.37 723.388 1545.83 Q721.583 1542.26 717.948 1542.26 M717.948 1538.56 Q723.758 1538.56 726.814 1543.17 Q729.893 1547.75 729.893 1556.5 Q729.893 1565.23 726.814 1569.83 Q723.758 1574.42 717.948 1574.42 Q712.138 1574.42 709.059 1569.83 Q706.004 1565.23 706.004 1556.5 Q706.004 1547.75 709.059 1543.17 Q712.138 1538.56 717.948 1538.56 Z" fill="#000000" fill-rule="evenodd" fill-opacity="1" /><path clip-path="url(#clip360)" d="M 0 0 M1325.91 1556.92 L1355.58 1556.92 L1355.58 1560.85 L1325.91 1560.85 L1325.91 1556.92 Z" fill="#000000" fill-rule="evenodd" fill-opacity="1" /><path clip-path="url(#clip360)" d="M 0 0 M1369.71 1569.81 L1386.02 1569.81 L1386.02 1573.74 L1364.08 1573.74 L1364.08 1569.81 Q1366.74 1567.05 1371.33 1562.42 Q1375.93 1557.77 1377.11 1556.43 Q1379.36 1553.91 1380.24 1552.17 Q1381.14 1550.41 1381.14 1548.72 Q1381.14 1545.97 1379.2 1544.23 Q1377.27 1542.49 1374.17 1542.49 Q1371.97 1542.49 1369.52 1543.26 Q1367.09 1544.02 1364.31 1545.57 L1364.31 1540.85 Q1367.14 1539.72 1369.59 1539.14 Q1372.04 1538.56 1374.08 1538.56 Q1379.45 1538.56 1382.64 1541.24 Q1385.84 1543.93 1385.84 1548.42 Q1385.84 1550.55 1385.03 1552.47 Q1384.24 1554.37 1382.14 1556.96 Q1381.56 1557.63 1378.46 1560.85 Q1375.35 1564.04 1369.71 1569.81 Z" fill="#000000" fill-rule="evenodd" fill-opacity="1" /><path clip-path="url(#clip360)" d="M 0 0 M1395.84 1567.86 L1400.72 1567.86 L1400.72 1573.74 L1395.84 1573.74 L1395.84 1567.86 Z" fill="#000000" fill-rule="evenodd" fill-opacity="1" /><path clip-path="url(#clip360)" d="M 0 0 M1410.95 1539.18 L1429.31 1539.18 L1429.31 1543.12 L1415.24 1543.12 L1415.24 1551.59 Q1416.26 1551.24 1417.27 1551.08 Q1418.29 1550.9 1419.31 1550.9 Q1425.1 1550.9 1428.48 1554.07 Q1431.86 1557.24 1431.86 1562.66 Q1431.86 1568.23 1428.39 1571.34 Q1424.91 1574.42 1418.59 1574.42 Q1416.42 1574.42 1414.15 1574.04 Q1411.9 1573.67 1409.5 1572.93 L1409.5 1568.23 Q1411.58 1569.37 1413.8 1569.92 Q1416.02 1570.48 1418.5 1570.48 Q1422.51 1570.48 1424.84 1568.37 Q1427.18 1566.27 1427.18 1562.66 Q1427.18 1559.04 1424.84 1556.94 Q1422.51 1554.83 1418.5 1554.83 Q1416.63 1554.83 1414.75 1555.25 Q1412.9 1555.67 1410.95 1556.54 L1410.95 1539.18 Z" fill="#000000" fill-rule="evenodd" fill-opacity="1" /><path clip-path="url(#clip360)" d="M 0 0 M2058.73 1542.26 Q2055.12 1542.26 2053.29 1545.83 Q2051.49 1549.37 2051.49 1556.5 Q2051.49 1563.61 2053.29 1567.17 Q2055.12 1570.71 2058.73 1570.71 Q2062.36 1570.71 2064.17 1567.17 Q2066 1563.61 2066 1556.5 Q2066 1549.37 2064.17 1545.83 Q2062.36 1542.26 2058.73 1542.26 M2058.73 1538.56 Q2064.54 1538.56 2067.6 1543.17 Q2070.67 1547.75 2070.67 1556.5 Q2070.67 1565.23 2067.6 1569.83 Q2064.54 1574.42 2058.73 1574.42 Q2052.92 1574.42 2049.84 1569.83 Q2046.79 1565.23 2046.79 1556.5 Q2046.79 1547.75 2049.84 1543.17 Q2052.92 1538.56 2058.73 1538.56 Z" fill="#000000" fill-rule="evenodd" fill-opacity="1" /><path clip-path="url(#clip360)" d="M 0 0 M2078.89 1567.86 L2083.78 1567.86 L2083.78 1573.74 L2078.89 1573.74 L2078.89 1567.86 Z" fill="#000000" fill-rule="evenodd" fill-opacity="1" /><path clip-path="url(#clip360)" d="M 0 0 M2103.96 1542.26 Q2100.35 1542.26 2098.52 1545.83 Q2096.72 1549.37 2096.72 1556.5 Q2096.72 1563.61 2098.52 1567.17 Q2100.35 1570.71 2103.96 1570.71 Q2107.6 1570.71 2109.4 1567.17 Q2111.23 1563.61 2111.23 1556.5 Q2111.23 1549.37 2109.4 1545.83 Q2107.6 1542.26 2103.96 1542.26 M2103.96 1538.56 Q2109.77 1538.56 2112.83 1543.17 Q2115.91 1547.75 2115.91 1556.5 Q2115.91 1565.23 2112.83 1569.83 Q2109.77 1574.42 2103.96 1574.42 Q2098.15 1574.42 2095.07 1569.83 Q2092.02 1565.23 2092.02 1556.5 Q2092.02 1547.75 2095.07 1543.17 Q2098.15 1538.56 2103.96 1538.56 Z" fill="#000000" fill-rule="evenodd" fill-opacity="1" /><path clip-path="url(#clip360)" d="M 0 0 M2755.54 1569.81 L2771.86 1569.81 L2771.86 1573.74 L2749.92 1573.74 L2749.92 1569.81 Q2752.58 1567.05 2757.17 1562.42 Q2761.77 1557.77 2762.95 1556.43 Q2765.2 1553.91 2766.08 1552.17 Q2766.98 1550.41 2766.98 1548.72 Q2766.98 1545.97 2765.04 1544.23 Q2763.11 1542.49 2760.01 1542.49 Q2757.81 1542.49 2755.36 1543.26 Q2752.93 1544.02 2750.15 1545.57 L2750.15 1540.85 Q2752.98 1539.72 2755.43 1539.14 Q2757.88 1538.56 2759.92 1538.56 Q2765.29 1538.56 2768.48 1541.24 Q2771.68 1543.93 2771.68 1548.42 Q2771.68 1550.55 2770.87 1552.47 Q2770.08 1554.37 2767.98 1556.96 Q2767.4 1557.63 2764.29 1560.85 Q2761.19 1564.04 2755.54 1569.81 Z" fill="#000000" fill-rule="evenodd" fill-opacity="1" /><path clip-path="url(#clip360)" d="M 0 0 M2781.68 1567.86 L2786.56 1567.86 L2786.56 1573.74 L2781.68 1573.74 L2781.68 1567.86 Z" fill="#000000" fill-rule="evenodd" fill-opacity="1" /><path clip-path="url(#clip360)" d="M 0 0 M2796.79 1539.18 L2815.15 1539.18 L2815.15 1543.12 L2801.08 1543.12 L2801.08 1551.59 Q2802.1 1551.24 2803.11 1551.08 Q2804.13 1550.9 2805.15 1550.9 Q2810.94 1550.9 2814.32 1554.07 Q2817.7 1557.24 2817.7 1562.66 Q2817.7 1568.23 2814.23 1571.34 Q2810.75 1574.42 2804.43 1574.42 Q2802.26 1574.42 2799.99 1574.04 Q2797.74 1573.67 2795.34 1572.93 L2795.34 1568.23 Q2797.42 1569.37 2799.64 1569.92 Q2801.86 1570.48 2804.34 1570.48 Q2808.35 1570.48 2810.68 1568.37 Q2813.02 1566.27 2813.02 1562.66 Q2813.02 1559.04 2810.68 1556.94 Q2808.35 1554.83 2804.34 1554.83 Q2802.47 1554.83 2800.59 1555.25 Q2798.74 1555.67 2796.79 1556.54 L2796.79 1539.18 Z" fill="#000000" fill-rule="evenodd" fill-opacity="1" /><path clip-path="url(#clip360)" d="M 0 0 M3453.44 1539.18 L3471.79 1539.18 L3471.79 1543.12 L3457.72 1543.12 L3457.72 1551.59 Q3458.74 1551.24 3459.76 1551.08 Q3460.77 1550.9 3461.79 1550.9 Q3467.58 1550.9 3470.96 1554.07 Q3474.34 1557.24 3474.34 1562.66 Q3474.34 1568.23 3470.87 1571.34 Q3467.39 1574.42 3461.07 1574.42 Q3458.9 1574.42 3456.63 1574.04 Q3454.38 1573.67 3451.98 1572.93 L3451.98 1568.23 Q3454.06 1569.37 3456.28 1569.92 Q3458.51 1570.48 3460.98 1570.48 Q3464.99 1570.48 3467.32 1568.37 Q3469.66 1566.27 3469.66 1562.66 Q3469.66 1559.04 3467.32 1556.94 Q3464.99 1554.83 3460.98 1554.83 Q3459.11 1554.83 3457.23 1555.25 Q3455.38 1555.67 3453.44 1556.54 L3453.44 1539.18 Z" fill="#000000" fill-rule="evenodd" fill-opacity="1" /><path clip-path="url(#clip360)" d="M 0 0 M3483.55 1567.86 L3488.44 1567.86 L3488.44 1573.74 L3483.55 1573.74 L3483.55 1567.86 Z" fill="#000000" fill-rule="evenodd" fill-opacity="1" /><path clip-path="url(#clip360)" d="M 0 0 M3508.62 1542.26 Q3505.01 1542.26 3503.18 1545.83 Q3501.38 1549.37 3501.38 1556.5 Q3501.38 1563.61 3503.18 1567.17 Q3505.01 1570.71 3508.62 1570.71 Q3512.25 1570.71 3514.06 1567.17 Q3515.89 1563.61 3515.89 1556.5 Q3515.89 1549.37 3514.06 1545.83 Q3512.25 1542.26 3508.62 1542.26 M3508.62 1538.56 Q3514.43 1538.56 3517.49 1543.17 Q3520.56 1547.75 3520.56 1556.5 Q3520.56 1565.23 3517.49 1569.83 Q3514.43 1574.42 3508.62 1574.42 Q3502.81 1574.42 3499.73 1569.83 Q3496.68 1565.23 3496.68 1556.5 Q3496.68 1547.75 3499.73 1543.17 Q3502.81 1538.56 3508.62 1538.56 Z" fill="#000000" fill-rule="evenodd" fill-opacity="1" /><polyline clip-path="url(#clip362)" style="stroke:#222255; stroke-width:2; stroke-opacity:0.1; fill:none" points="
  209.936,1367.99 3952.76,1367.99 
  "/>
<polyline clip-path="url(#clip362)" style="stroke:#222255; stroke-width:2; stroke-opacity:0.1; fill:none" points="
  209.936,1146.86 3952.76,1146.86 
  "/>
<polyline clip-path="url(#clip362)" style="stroke:#222255; stroke-width:2; stroke-opacity:0.1; fill:none" points="
  209.936,925.733 3952.76,925.733 
  "/>
<polyline clip-path="url(#clip362)" style="stroke:#222255; stroke-width:2; stroke-opacity:0.1; fill:none" points="
  209.936,704.603 3952.76,704.603 
  "/>
<polyline clip-path="url(#clip362)" style="stroke:#222255; stroke-width:2; stroke-opacity:0.1; fill:none" points="
  209.936,483.474 3952.76,483.474 
  "/>
<polyline clip-path="url(#clip362)" style="stroke:#222255; stroke-width:2; stroke-opacity:0.1; fill:none" points="
  209.936,262.344 3952.76,262.344 
  "/>
<polyline clip-path="url(#clip362)" style="stroke:#222255; stroke-width:2; stroke-opacity:0.05; fill:none" points="
  209.936,1456.44 3952.76,1456.44 
  "/>
<polyline clip-path="url(#clip362)" style="stroke:#222255; stroke-width:2; stroke-opacity:0.05; fill:none" points="
  209.936,1412.22 3952.76,1412.22 
  "/>
<polyline clip-path="url(#clip362)" style="stroke:#222255; stroke-width:2; stroke-opacity:0.05; fill:none" points="
  209.936,1323.77 3952.76,1323.77 
  "/>
<polyline clip-path="url(#clip362)" style="stroke:#222255; stroke-width:2; stroke-opacity:0.05; fill:none" points="
  209.936,1279.54 3952.76,1279.54 
  "/>
<polyline clip-path="url(#clip362)" style="stroke:#222255; stroke-width:2; stroke-opacity:0.05; fill:none" points="
  209.936,1235.31 3952.76,1235.31 
  "/>
<polyline clip-path="url(#clip362)" style="stroke:#222255; stroke-width:2; stroke-opacity:0.05; fill:none" points="
  209.936,1191.09 3952.76,1191.09 
  "/>
<polyline clip-path="url(#clip362)" style="stroke:#222255; stroke-width:2; stroke-opacity:0.05; fill:none" points="
  209.936,1102.64 3952.76,1102.64 
  "/>
<polyline clip-path="url(#clip362)" style="stroke:#222255; stroke-width:2; stroke-opacity:0.05; fill:none" points="
  209.936,1058.41 3952.76,1058.41 
  "/>
<polyline clip-path="url(#clip362)" style="stroke:#222255; stroke-width:2; stroke-opacity:0.05; fill:none" points="
  209.936,1014.18 3952.76,1014.18 
  "/>
<polyline clip-path="url(#clip362)" style="stroke:#222255; stroke-width:2; stroke-opacity:0.05; fill:none" points="
  209.936,969.959 3952.76,969.959 
  "/>
<polyline clip-path="url(#clip362)" style="stroke:#222255; stroke-width:2; stroke-opacity:0.05; fill:none" points="
  209.936,881.507 3952.76,881.507 
  "/>
<polyline clip-path="url(#clip362)" style="stroke:#222255; stroke-width:2; stroke-opacity:0.05; fill:none" points="
  209.936,837.281 3952.76,837.281 
  "/>
<polyline clip-path="url(#clip362)" style="stroke:#222255; stroke-width:2; stroke-opacity:0.05; fill:none" points="
  209.936,793.055 3952.76,793.055 
  "/>
<polyline clip-path="url(#clip362)" style="stroke:#222255; stroke-width:2; stroke-opacity:0.05; fill:none" points="
  209.936,748.829 3952.76,748.829 
  "/>
<polyline clip-path="url(#clip362)" style="stroke:#222255; stroke-width:2; stroke-opacity:0.05; fill:none" points="
  209.936,660.378 3952.76,660.378 
  "/>
<polyline clip-path="url(#clip362)" style="stroke:#222255; stroke-width:2; stroke-opacity:0.05; fill:none" points="
  209.936,616.152 3952.76,616.152 
  "/>
<polyline clip-path="url(#clip362)" style="stroke:#222255; stroke-width:2; stroke-opacity:0.05; fill:none" points="
  209.936,571.926 3952.76,571.926 
  "/>
<polyline clip-path="url(#clip362)" style="stroke:#222255; stroke-width:2; stroke-opacity:0.05; fill:none" points="
  209.936,527.7 3952.76,527.7 
  "/>
<polyline clip-path="url(#clip362)" style="stroke:#222255; stroke-width:2; stroke-opacity:0.05; fill:none" points="
  209.936,439.248 3952.76,439.248 
  "/>
<polyline clip-path="url(#clip362)" style="stroke:#222255; stroke-width:2; stroke-opacity:0.05; fill:none" points="
  209.936,395.022 3952.76,395.022 
  "/>
<polyline clip-path="url(#clip362)" style="stroke:#222255; stroke-width:2; stroke-opacity:0.05; fill:none" points="
  209.936,350.796 3952.76,350.796 
  "/>
<polyline clip-path="url(#clip362)" style="stroke:#222255; stroke-width:2; stroke-opacity:0.05; fill:none" points="
  209.936,306.57 3952.76,306.57 
  "/>
<polyline clip-path="url(#clip362)" style="stroke:#222255; stroke-width:2; stroke-opacity:0.05; fill:none" points="
  209.936,218.118 3952.76,218.118 
  "/>
<polyline clip-path="url(#clip362)" style="stroke:#222255; stroke-width:2; stroke-opacity:0.05; fill:none" points="
  209.936,173.892 3952.76,173.892 
  "/>
<polyline clip-path="url(#clip362)" style="stroke:#222255; stroke-width:2; stroke-opacity:0.05; fill:none" points="
  209.936,129.666 3952.76,129.666 
  "/>
<polyline clip-path="url(#clip362)" style="stroke:#222255; stroke-width:2; stroke-opacity:0.05; fill:none" points="
  209.936,85.4405 3952.76,85.4405 
  "/>
<polyline clip-path="url(#clip360)" style="stroke:#222255; stroke-width:4; stroke-opacity:0; fill:none" points="
  209.936,1367.99 254.85,1367.99 
  "/>
<polyline clip-path="url(#clip360)" style="stroke:#222255; stroke-width:4; stroke-opacity:0; fill:none" points="
  209.936,1146.86 254.85,1146.86 
  "/>
<polyline clip-path="url(#clip360)" style="stroke:#222255; stroke-width:4; stroke-opacity:0; fill:none" points="
  209.936,925.733 254.85,925.733 
  "/>
<polyline clip-path="url(#clip360)" style="stroke:#222255; stroke-width:4; stroke-opacity:0; fill:none" points="
  209.936,704.603 254.85,704.603 
  "/>
<polyline clip-path="url(#clip360)" style="stroke:#222255; stroke-width:4; stroke-opacity:0; fill:none" points="
  209.936,483.474 254.85,483.474 
  "/>
<polyline clip-path="url(#clip360)" style="stroke:#222255; stroke-width:4; stroke-opacity:0; fill:none" points="
  209.936,262.344 254.85,262.344 
  "/>
<polyline clip-path="url(#clip360)" style="stroke:#222255; stroke-width:4; stroke-opacity:0; fill:none" points="
  209.936,1456.44 232.393,1456.44 
  "/>
<polyline clip-path="url(#clip360)" style="stroke:#222255; stroke-width:4; stroke-opacity:0; fill:none" points="
  209.936,1412.22 232.393,1412.22 
  "/>
<polyline clip-path="url(#clip360)" style="stroke:#222255; stroke-width:4; stroke-opacity:0; fill:none" points="
  209.936,1323.77 232.393,1323.77 
  "/>
<polyline clip-path="url(#clip360)" style="stroke:#222255; stroke-width:4; stroke-opacity:0; fill:none" points="
  209.936,1279.54 232.393,1279.54 
  "/>
<polyline clip-path="url(#clip360)" style="stroke:#222255; stroke-width:4; stroke-opacity:0; fill:none" points="
  209.936,1235.31 232.393,1235.31 
  "/>
<polyline clip-path="url(#clip360)" style="stroke:#222255; stroke-width:4; stroke-opacity:0; fill:none" points="
  209.936,1191.09 232.393,1191.09 
  "/>
<polyline clip-path="url(#clip360)" style="stroke:#222255; stroke-width:4; stroke-opacity:0; fill:none" points="
  209.936,1102.64 232.393,1102.64 
  "/>
<polyline clip-path="url(#clip360)" style="stroke:#222255; stroke-width:4; stroke-opacity:0; fill:none" points="
  209.936,1058.41 232.393,1058.41 
  "/>
<polyline clip-path="url(#clip360)" style="stroke:#222255; stroke-width:4; stroke-opacity:0; fill:none" points="
  209.936,1014.18 232.393,1014.18 
  "/>
<polyline clip-path="url(#clip360)" style="stroke:#222255; stroke-width:4; stroke-opacity:0; fill:none" points="
  209.936,969.959 232.393,969.959 
  "/>
<polyline clip-path="url(#clip360)" style="stroke:#222255; stroke-width:4; stroke-opacity:0; fill:none" points="
  209.936,881.507 232.393,881.507 
  "/>
<polyline clip-path="url(#clip360)" style="stroke:#222255; stroke-width:4; stroke-opacity:0; fill:none" points="
  209.936,837.281 232.393,837.281 
  "/>
<polyline clip-path="url(#clip360)" style="stroke:#222255; stroke-width:4; stroke-opacity:0; fill:none" points="
  209.936,793.055 232.393,793.055 
  "/>
<polyline clip-path="url(#clip360)" style="stroke:#222255; stroke-width:4; stroke-opacity:0; fill:none" points="
  209.936,748.829 232.393,748.829 
  "/>
<polyline clip-path="url(#clip360)" style="stroke:#222255; stroke-width:4; stroke-opacity:0; fill:none" points="
  209.936,660.378 232.393,660.378 
  "/>
<polyline clip-path="url(#clip360)" style="stroke:#222255; stroke-width:4; stroke-opacity:0; fill:none" points="
  209.936,616.152 232.393,616.152 
  "/>
<polyline clip-path="url(#clip360)" style="stroke:#222255; stroke-width:4; stroke-opacity:0; fill:none" points="
  209.936,571.926 232.393,571.926 
  "/>
<polyline clip-path="url(#clip360)" style="stroke:#222255; stroke-width:4; stroke-opacity:0; fill:none" points="
  209.936,527.7 232.393,527.7 
  "/>
<polyline clip-path="url(#clip360)" style="stroke:#222255; stroke-width:4; stroke-opacity:0; fill:none" points="
  209.936,439.248 232.393,439.248 
  "/>
<polyline clip-path="url(#clip360)" style="stroke:#222255; stroke-width:4; stroke-opacity:0; fill:none" points="
  209.936,395.022 232.393,395.022 
  "/>
<polyline clip-path="url(#clip360)" style="stroke:#222255; stroke-width:4; stroke-opacity:0; fill:none" points="
  209.936,350.796 232.393,350.796 
  "/>
<polyline clip-path="url(#clip360)" style="stroke:#222255; stroke-width:4; stroke-opacity:0; fill:none" points="
  209.936,306.57 232.393,306.57 
  "/>
<polyline clip-path="url(#clip360)" style="stroke:#222255; stroke-width:4; stroke-opacity:0; fill:none" points="
  209.936,218.118 232.393,218.118 
  "/>
<polyline clip-path="url(#clip360)" style="stroke:#222255; stroke-width:4; stroke-opacity:0; fill:none" points="
  209.936,173.892 232.393,173.892 
  "/>
<polyline clip-path="url(#clip360)" style="stroke:#222255; stroke-width:4; stroke-opacity:0; fill:none" points="
  209.936,129.666 232.393,129.666 
  "/>
<polyline clip-path="url(#clip360)" style="stroke:#222255; stroke-width:4; stroke-opacity:0; fill:none" points="
  209.936,85.4405 232.393,85.4405 
  "/>
<path clip-path="url(#clip360)" d="M 0 0 M43.9875 1368.44 L73.6633 1368.44 L73.6633 1372.38 L43.9875 1372.38 L43.9875 1368.44 Z" fill="#000000" fill-rule="evenodd" fill-opacity="1" /><path clip-path="url(#clip360)" d="M 0 0 M84.566 1381.34 L92.2048 1381.34 L92.2048 1354.97 L83.8947 1356.64 L83.8947 1352.38 L92.1585 1350.71 L96.8344 1350.71 L96.8344 1381.34 L104.473 1381.34 L104.473 1385.27 L84.566 1385.27 L84.566 1381.34 Z" fill="#000000" fill-rule="evenodd" fill-opacity="1" /><path clip-path="url(#clip360)" d="M 0 0 M113.918 1379.39 L118.802 1379.39 L118.802 1385.27 L113.918 1385.27 L113.918 1379.39 Z" fill="#000000" fill-rule="evenodd" fill-opacity="1" /><path clip-path="url(#clip360)" d="M 0 0 M129.033 1350.71 L147.39 1350.71 L147.39 1354.65 L133.316 1354.65 L133.316 1363.12 Q134.334 1362.77 135.353 1362.61 Q136.371 1362.43 137.39 1362.43 Q143.177 1362.43 146.556 1365.6 Q149.936 1368.77 149.936 1374.18 Q149.936 1379.76 146.464 1382.86 Q142.992 1385.94 136.672 1385.94 Q134.496 1385.94 132.228 1385.57 Q129.982 1385.2 127.575 1384.46 L127.575 1379.76 Q129.658 1380.9 131.881 1381.45 Q134.103 1382.01 136.58 1382.01 Q140.584 1382.01 142.922 1379.9 Q145.26 1377.8 145.26 1374.18 Q145.26 1370.57 142.922 1368.47 Q140.584 1366.36 136.58 1366.36 Q134.705 1366.36 132.83 1366.78 Q130.978 1367.19 129.033 1368.07 L129.033 1350.71 Z" fill="#000000" fill-rule="evenodd" fill-opacity="1" /><path clip-path="url(#clip360)" d="M 0 0 M42.9921 1147.31 L72.6679 1147.31 L72.6679 1151.25 L42.9921 1151.25 L42.9921 1147.31 Z" fill="#000000" fill-rule="evenodd" fill-opacity="1" /><path clip-path="url(#clip360)" d="M 0 0 M83.5706 1160.21 L91.2095 1160.21 L91.2095 1133.84 L82.8993 1135.51 L82.8993 1131.25 L91.1632 1129.58 L95.8391 1129.58 L95.8391 1160.21 L103.478 1160.21 L103.478 1164.14 L83.5706 1164.14 L83.5706 1160.21 Z" fill="#000000" fill-rule="evenodd" fill-opacity="1" /><path clip-path="url(#clip360)" d="M 0 0 M112.922 1158.26 L117.807 1158.26 L117.807 1164.14 L112.922 1164.14 L112.922 1158.26 Z" fill="#000000" fill-rule="evenodd" fill-opacity="1" /><path clip-path="url(#clip360)" d="M 0 0 M137.992 1132.66 Q134.381 1132.66 132.552 1136.23 Q130.746 1139.77 130.746 1146.9 Q130.746 1154 132.552 1157.57 Q134.381 1161.11 137.992 1161.11 Q141.626 1161.11 143.431 1157.57 Q145.26 1154 145.26 1146.9 Q145.26 1139.77 143.431 1136.23 Q141.626 1132.66 137.992 1132.66 M137.992 1128.96 Q143.802 1128.96 146.857 1133.56 Q149.936 1138.15 149.936 1146.9 Q149.936 1155.62 146.857 1160.23 Q143.802 1164.81 137.992 1164.81 Q132.181 1164.81 129.103 1160.23 Q126.047 1155.62 126.047 1146.9 Q126.047 1138.15 129.103 1133.56 Q132.181 1128.96 137.992 1128.96 Z" fill="#000000" fill-rule="evenodd" fill-opacity="1" /><path clip-path="url(#clip360)" d="M 0 0 M43.9875 926.184 L73.6633 926.184 L73.6633 930.12 L43.9875 930.12 L43.9875 926.184 Z" fill="#000000" fill-rule="evenodd" fill-opacity="1" /><path clip-path="url(#clip360)" d="M 0 0 M93.7557 911.532 Q90.1447 911.532 88.316 915.097 Q86.5104 918.638 86.5104 925.768 Q86.5104 932.874 88.316 936.439 Q90.1447 939.981 93.7557 939.981 Q97.39 939.981 99.1955 936.439 Q101.024 932.874 101.024 925.768 Q101.024 918.638 99.1955 915.097 Q97.39 911.532 93.7557 911.532 M93.7557 907.828 Q99.5659 907.828 102.621 912.435 Q105.7 917.018 105.7 925.768 Q105.7 934.495 102.621 939.101 Q99.5659 943.684 93.7557 943.684 Q87.9456 943.684 84.8669 939.101 Q81.8114 934.495 81.8114 925.768 Q81.8114 917.018 84.8669 912.435 Q87.9456 907.828 93.7557 907.828 Z" fill="#000000" fill-rule="evenodd" fill-opacity="1" /><path clip-path="url(#clip360)" d="M 0 0 M113.918 937.133 L118.802 937.133 L118.802 943.013 L113.918 943.013 L113.918 937.133 Z" fill="#000000" fill-rule="evenodd" fill-opacity="1" /><path clip-path="url(#clip360)" d="M 0 0 M129.033 908.453 L147.39 908.453 L147.39 912.388 L133.316 912.388 L133.316 920.86 Q134.334 920.513 135.353 920.351 Q136.371 920.166 137.39 920.166 Q143.177 920.166 146.556 923.337 Q149.936 926.509 149.936 931.925 Q149.936 937.504 146.464 940.606 Q142.992 943.684 136.672 943.684 Q134.496 943.684 132.228 943.314 Q129.982 942.944 127.575 942.203 L127.575 937.504 Q129.658 938.638 131.881 939.194 Q134.103 939.749 136.58 939.749 Q140.584 939.749 142.922 937.643 Q145.26 935.536 145.26 931.925 Q145.26 928.314 142.922 926.208 Q140.584 924.101 136.58 924.101 Q134.705 924.101 132.83 924.518 Q130.978 924.934 129.033 925.814 L129.033 908.453 Z" fill="#000000" fill-rule="evenodd" fill-opacity="1" /><path clip-path="url(#clip360)" d="M 0 0 M92.7604 690.402 Q89.1493 690.402 87.3206 693.967 Q85.515 697.509 85.515 704.638 Q85.515 711.745 87.3206 715.309 Q89.1493 718.851 92.7604 718.851 Q96.3946 718.851 98.2002 715.309 Q100.029 711.745 100.029 704.638 Q100.029 697.509 98.2002 693.967 Q96.3946 690.402 92.7604 690.402 M92.7604 686.698 Q98.5705 686.698 101.626 691.305 Q104.705 695.888 104.705 704.638 Q104.705 713.365 101.626 717.971 Q98.5705 722.555 92.7604 722.555 Q86.9502 722.555 83.8715 717.971 Q80.816 713.365 80.816 704.638 Q80.816 695.888 83.8715 691.305 Q86.9502 686.698 92.7604 686.698 Z" fill="#000000" fill-rule="evenodd" fill-opacity="1" /><path clip-path="url(#clip360)" d="M 0 0 M112.922 716.004 L117.807 716.004 L117.807 721.883 L112.922 721.883 L112.922 716.004 Z" fill="#000000" fill-rule="evenodd" fill-opacity="1" /><path clip-path="url(#clip360)" d="M 0 0 M137.992 690.402 Q134.381 690.402 132.552 693.967 Q130.746 697.509 130.746 704.638 Q130.746 711.745 132.552 715.309 Q134.381 718.851 137.992 718.851 Q141.626 718.851 143.431 715.309 Q145.26 711.745 145.26 704.638 Q145.26 697.509 143.431 693.967 Q141.626 690.402 137.992 690.402 M137.992 686.698 Q143.802 686.698 146.857 691.305 Q149.936 695.888 149.936 704.638 Q149.936 713.365 146.857 717.971 Q143.802 722.555 137.992 722.555 Q132.181 722.555 129.103 717.971 Q126.047 713.365 126.047 704.638 Q126.047 695.888 129.103 691.305 Q132.181 686.698 137.992 686.698 Z" fill="#000000" fill-rule="evenodd" fill-opacity="1" /><path clip-path="url(#clip360)" d="M 0 0 M93.7557 469.273 Q90.1447 469.273 88.316 472.837 Q86.5104 476.379 86.5104 483.509 Q86.5104 490.615 88.316 494.18 Q90.1447 497.721 93.7557 497.721 Q97.39 497.721 99.1955 494.18 Q101.024 490.615 101.024 483.509 Q101.024 476.379 99.1955 472.837 Q97.39 469.273 93.7557 469.273 M93.7557 465.569 Q99.5659 465.569 102.621 470.175 Q105.7 474.759 105.7 483.509 Q105.7 492.235 102.621 496.842 Q99.5659 501.425 93.7557 501.425 Q87.9456 501.425 84.8669 496.842 Q81.8114 492.235 81.8114 483.509 Q81.8114 474.759 84.8669 470.175 Q87.9456 465.569 93.7557 465.569 Z" fill="#000000" fill-rule="evenodd" fill-opacity="1" /><path clip-path="url(#clip360)" d="M 0 0 M113.918 494.874 L118.802 494.874 L118.802 500.754 L113.918 500.754 L113.918 494.874 Z" fill="#000000" fill-rule="evenodd" fill-opacity="1" /><path clip-path="url(#clip360)" d="M 0 0 M129.033 466.194 L147.39 466.194 L147.39 470.129 L133.316 470.129 L133.316 478.601 Q134.334 478.254 135.353 478.092 Q136.371 477.907 137.39 477.907 Q143.177 477.907 146.556 481.078 Q149.936 484.249 149.936 489.666 Q149.936 495.245 146.464 498.346 Q142.992 501.425 136.672 501.425 Q134.496 501.425 132.228 501.055 Q129.982 500.684 127.575 499.944 L127.575 495.245 Q129.658 496.379 131.881 496.934 Q134.103 497.49 136.58 497.49 Q140.584 497.49 142.922 495.383 Q145.26 493.277 145.26 489.666 Q145.26 486.055 142.922 483.948 Q140.584 481.842 136.58 481.842 Q134.705 481.842 132.83 482.259 Q130.978 482.675 129.033 483.555 L129.033 466.194 Z" fill="#000000" fill-rule="evenodd" fill-opacity="1" /><path clip-path="url(#clip360)" d="M 0 0 M83.5706 275.689 L91.2095 275.689 L91.2095 249.323 L82.8993 250.99 L82.8993 246.731 L91.1632 245.064 L95.8391 245.064 L95.8391 275.689 L103.478 275.689 L103.478 279.624 L83.5706 279.624 L83.5706 275.689 Z" fill="#000000" fill-rule="evenodd" fill-opacity="1" /><path clip-path="url(#clip360)" d="M 0 0 M112.922 273.745 L117.807 273.745 L117.807 279.624 L112.922 279.624 L112.922 273.745 Z" fill="#000000" fill-rule="evenodd" fill-opacity="1" /><path clip-path="url(#clip360)" d="M 0 0 M137.992 248.143 Q134.381 248.143 132.552 251.708 Q130.746 255.249 130.746 262.379 Q130.746 269.485 132.552 273.05 Q134.381 276.592 137.992 276.592 Q141.626 276.592 143.431 273.05 Q145.26 269.485 145.26 262.379 Q145.26 255.249 143.431 251.708 Q141.626 248.143 137.992 248.143 M137.992 244.439 Q143.802 244.439 146.857 249.046 Q149.936 253.629 149.936 262.379 Q149.936 271.106 146.857 275.712 Q143.802 280.295 137.992 280.295 Q132.181 280.295 129.103 275.712 Q126.047 271.106 126.047 262.379 Q126.047 253.629 129.103 249.046 Q132.181 244.439 137.992 244.439 Z" fill="#000000" fill-rule="evenodd" fill-opacity="1" /><path clip-path="url(#clip362)" d="
M315.865 804.043 L351.531 743.31 L387.197 716.954 L422.864 708.724 L458.53 698.641 L494.196 678.867 L529.863 646.406 L565.529 601.047 L601.195 545.068 L636.861 482.999 
  L672.528 421.102 L708.194 366.627 L743.86 327.317 L779.527 311.863 L815.193 327.301 L850.859 364.881 L886.525 406.857 L922.192 443.567 L957.858 472.919 L993.524 498.819 
  L1029.19 530.148 L1064.86 574.177 L1100.52 630.386 L1136.19 694.437 L1171.86 761.676 L1207.52 827.559 L1243.19 888.027 L1278.85 940.494 L1314.52 985.74 L1350.19 1032.47 
  L1385.85 1101.73 L1421.52 1197.43 L1457.19 1295.12 L1492.85 1376.72 L1528.52 1432.69 L1564.18 1458.26 L1599.85 1452.27 L1635.52 1417.1 L1671.18 1359.33 L1706.85 1293.18 
  L1742.52 1247.47 L1778.18 1234.45 L1813.85 1227.68 L1849.52 1210.61 L1885.18 1178.27 L1920.85 1130.37 L1956.51 1069.05 L1992.18 997.717 L2027.85 920.351 L2063.51 841.619 
  L2099.18 770.178 L2134.85 726.029 L2170.51 712.226 L2206.18 704.57 L2241.84 690.226 L2277.51 664.295 L2313.18 625.253 L2348.84 574.15 L2384.51 514.435 L2420.18 451.59 
  L2455.84 392.464 L2491.51 344.567 L2527.17 316.012 L2562.84 315.747 L2598.51 344.545 L2634.17 386.14 L2669.84 426.146 L2705.51 459.058 L2741.17 485.825 L2776.84 513.189 
  L2812.5 550.441 L2848.17 601.007 L2883.84 661.724 L2919.5 727.946 L2955.17 795.061 L2990.84 858.682 L3026.5 915.323 L3062.17 963.748 L3097.84 1007.84 L3133.5 1062.97 
  L3169.17 1147.71 L3204.83 1247.43 L3240.5 1338.66 L3276.17 1408.3 L3311.83 1449.43 L3347.5 1459.15 L3383.17 1438.04 L3418.83 1390.41 L3454.5 1325.88 L3490.16 1265.69 
  L3525.83 1238.38 L3561.5 1231.72 L3597.16 1220.9 L3632.83 1196.44 L3668.5 1156.18 L3704.16 1101.2 L3739.83 1034.39 L3775.49 959.526 L3811.16 880.791 L3846.83 804.043 
  L3846.83 632.218 L3811.16 632.426 L3775.49 634.355 L3739.83 646.476 L3704.16 673.958 L3668.5 719.687 L3632.83 783.994 L3597.16 864.15 L3561.5 953.427 L3525.83 1037.67 
  L3490.16 1087.71 L3454.5 1087.63 L3418.83 1063.11 L3383.17 1033.32 L3347.5 1006.56 L3311.83 986.453 L3276.17 973.524 L3240.5 965.524 L3204.83 957.121 L3169.17 937.924 
  L3133.5 888.458 L3097.84 799.449 L3062.17 695.81 L3026.5 599.751 L2990.84 521.607 L2955.17 465.246 L2919.5 430.057 L2883.84 411.732 L2848.17 402.91 L2812.5 393.98 
  L2776.84 375.777 L2741.17 346.216 L2705.51 311.078 L2669.84 276.69 L2634.17 247.056 L2598.51 222.732 L2562.84 197.175 L2527.17 162.096 L2491.51 124.681 L2455.84 97.4105 
  L2420.18 88.3675 L2384.51 101.549 L2348.84 137.559 L2313.18 194.124 L2277.51 266.826 L2241.84 350.03 L2206.18 437.666 L2170.51 522.892 L2134.85 593.477 L2099.18 627.851 
  L2063.51 632.873 L2027.85 632.536 L1992.18 638.764 L1956.51 658.062 L1920.85 694.456 L1885.18 749.61 L1849.52 822.399 L1813.85 908.281 L1778.18 997.581 L1742.52 1069.2 
  L1706.85 1092.63 L1671.18 1076.85 L1635.52 1048.21 L1599.85 1019.26 L1564.18 995.578 L1528.52 979.166 L1492.85 969.159 L1457.19 961.858 L1421.52 949.851 L1385.85 918.411 
  L1350.19 847.755 L1314.52 747.706 L1278.85 645.994 L1243.19 558.08 L1207.52 490.647 L1171.86 445.195 L1136.19 419.182 L1100.52 406.694 L1064.86 399.105 L1029.19 386.415 
  L993.524 362.15 L957.858 328.899 L922.192 293.482 L886.525 261.132 L850.859 234.425 L815.193 210.838 L779.527 180.754 L743.86 142.817 L708.194 109.164 L672.528 90.2756 
  L636.861 92.0684 L601.195 116.782 L565.529 163.508 L529.863 228.792 L494.196 307.49 L458.53 393.684 L422.864 481.108 L387.197 561.294 L351.531 615.969 L315.865 632.218 
   Z
  " fill="#008000" fill-rule="evenodd" fill-opacity="0.3"/>
<polyline clip-path="url(#clip362)" style="stroke:#ee7733; stroke-width:8; stroke-opacity:1; fill:none" points="
  315.865,718.131 351.531,679.64 387.197,639.124 422.864,594.916 458.53,546.163 494.196,493.179 529.863,437.599 565.529,382.278 601.195,330.925 636.861,287.534 
  672.528,255.689 708.194,237.896 743.86,235.067 779.527,246.309 815.193,269.069 850.859,299.653 886.525,333.994 922.192,368.525 957.858,400.909 993.524,430.485 
  1029.19,458.282 1064.86,486.641 1100.52,518.54 1136.19,556.81 1171.86,603.436 1207.52,659.103 1243.19,723.054 1278.85,793.244 1314.52,866.723 1350.19,940.112 
  1385.85,1010.07 1421.52,1073.64 1457.19,1128.49 1492.85,1172.94 1528.52,1205.93 1564.18,1226.92 1599.85,1235.77 1635.52,1232.66 1671.18,1218.09 1706.85,1192.9 
  1742.52,1158.33 1778.18,1116.02 1813.85,1067.98 1849.52,1016.51 1885.18,963.941 1920.85,912.415 1956.51,863.556 1992.18,818.241 2027.85,776.444 2063.51,737.246 
  2099.18,699.015 2134.85,659.753 2170.51,617.559 2206.18,571.118 2241.84,520.128 2277.51,465.56 2313.18,409.688 2348.84,355.855 2384.51,307.992 2420.18,269.979 
  2455.84,244.937 2491.51,234.624 2527.17,239.054 2562.84,256.461 2598.51,283.639 2634.17,316.598 2669.84,351.418 2705.51,385.068 2741.17,416.021 2776.84,444.483 
  2812.5,472.211 2848.17,501.959 2883.84,536.728 2919.5,579.002 2955.17,630.153 2990.84,690.144 3026.5,757.537 3062.17,829.779 3097.84,903.644 3133.5,975.716 
  3169.17,1042.82 3204.83,1102.28 3240.5,1152.09 3276.17,1190.91 3311.83,1217.94 3347.5,1232.86 3383.17,1235.68 3418.83,1226.76 3454.5,1206.76 3490.16,1176.7 
  3525.83,1138.02 3561.5,1092.57 3597.16,1042.52 3632.83,990.218 3668.5,937.931 3704.16,887.578 3739.83,840.435 3775.49,796.94 3811.16,756.609 3846.83,718.131 
  
  "/>
<polyline clip-path="url(#clip362)" style="stroke:#0077bb; stroke-width:4.8; stroke-opacity:1; fill:none" points="
  315.865,704.603 351.531,648.617 387.197,593.531 422.864,540.232 458.53,489.578 494.196,442.384 529.863,399.41 565.529,361.345 601.195,328.805 636.861,302.31 
  672.528,282.289 708.194,269.063 743.86,262.845 779.527,263.735 815.193,271.719 850.859,286.668 886.525,308.342 922.192,336.392 957.858,370.366 993.524,409.719 
  1029.19,453.816 1064.86,501.949 1100.52,553.342 1136.19,607.169 1171.86,662.564 1207.52,718.635 1243.19,774.481 1278.85,829.202 1314.52,881.919 1350.19,931.782 
  1385.85,977.99 1421.52,1019.8 1457.19,1056.54 1492.85,1087.61 1528.52,1112.52 1564.18,1130.87 1599.85,1142.36 1635.52,1146.81 1671.18,1144.14 1706.85,1134.4 
  1742.52,1117.74 1778.18,1094.43 1813.85,1064.86 1849.52,1029.48 1885.18,988.882 1920.85,943.707 1956.51,894.684 1992.18,842.603 2027.85,788.302 2063.51,732.653 
  2099.18,676.554 2134.85,620.905 2170.51,566.604 2206.18,514.523 2241.84,465.5 2277.51,420.325 2313.18,379.723 2348.84,344.35 2384.51,314.773 2420.18,291.468 
  2455.84,274.811 2491.51,265.069 2527.17,262.4 2562.84,266.846 2598.51,278.335 2634.17,296.684 2669.84,321.596 2705.51,352.67 2741.17,389.408 2776.84,431.217 
  2812.5,477.425 2848.17,527.288 2883.84,580.005 2919.5,634.726 2955.17,690.571 2990.84,746.643 3026.5,802.038 3062.17,855.865 3097.84,907.258 3133.5,955.391 
  3169.17,999.488 3204.83,1038.84 3240.5,1072.82 3276.17,1100.86 3311.83,1122.54 3347.5,1137.49 3383.17,1145.47 3418.83,1146.36 3454.5,1140.14 3490.16,1126.92 
  3525.83,1106.9 3561.5,1080.4 3597.16,1047.86 3632.83,1009.8 3668.5,966.822 3704.16,919.628 3739.83,868.975 3775.49,815.676 3811.16,760.59 3846.83,704.603 
  
  "/>
<circle clip-path="url(#clip362)" cx="2563.6" cy="215.213" r="21" fill="#ee3377" fill-rule="evenodd" fill-opacity="1" stroke="#000000" stroke-opacity="1" stroke-width="0"/>
<circle clip-path="url(#clip362)" cx="2548.49" cy="263.787" r="21" fill="#ee3377" fill-rule="evenodd" fill-opacity="1" stroke="#000000" stroke-opacity="1" stroke-width="0"/>
<circle clip-path="url(#clip362)" cx="2090.41" cy="692.864" r="21" fill="#ee3377" fill-rule="evenodd" fill-opacity="1" stroke="#000000" stroke-opacity="1" stroke-width="0"/>
<circle clip-path="url(#clip362)" cx="1732.59" cy="1174.07" r="21" fill="#ee3377" fill-rule="evenodd" fill-opacity="1" stroke="#000000" stroke-opacity="1" stroke-width="0"/>
<circle clip-path="url(#clip362)" cx="2819.07" cy="452.184" r="21" fill="#ee3377" fill-rule="evenodd" fill-opacity="1" stroke="#000000" stroke-opacity="1" stroke-width="0"/>
<circle clip-path="url(#clip362)" cx="1371.94" cy="989.17" r="21" fill="#ee3377" fill-rule="evenodd" fill-opacity="1" stroke="#000000" stroke-opacity="1" stroke-width="0"/>
<circle clip-path="url(#clip362)" cx="2152.54" cy="655.818" r="21" fill="#ee3377" fill-rule="evenodd" fill-opacity="1" stroke="#000000" stroke-opacity="1" stroke-width="0"/>
<circle clip-path="url(#clip362)" cx="2704.13" cy="423.404" r="21" fill="#ee3377" fill-rule="evenodd" fill-opacity="1" stroke="#000000" stroke-opacity="1" stroke-width="0"/>
<path clip-path="url(#clip360)" d="
M3064.56 1451.84 L3828 1451.84 L3828 1209.92 L3064.56 1209.92  Z
  " fill="#ffffff" fill-rule="evenodd" fill-opacity="0.9"/>
<polyline clip-path="url(#clip360)" style="stroke:#222255; stroke-width:4; stroke-opacity:0.1; fill:none" points="
  3064.56,1451.84 3828,1451.84 3828,1209.92 3064.56,1209.92 3064.56,1451.84 
  "/>
<polyline clip-path="url(#clip360)" style="stroke:#ee7733; stroke-width:4; stroke-opacity:1; fill:none" points="
  3106.15,1270.4 3355.67,1270.4 
  "/>
<path clip-path="url(#clip360)" d="M 0 0 M3417.6 1266.73 Q3419.2 1263.86 3421.42 1262.49 Q3423.64 1261.13 3426.65 1261.13 Q3430.7 1261.13 3432.9 1263.97 Q3435.1 1266.8 3435.1 1272.03 L3435.1 1287.68 L3430.82 1287.68 L3430.82 1272.17 Q3430.82 1268.44 3429.5 1266.64 Q3428.18 1264.83 3425.47 1264.83 Q3422.16 1264.83 3420.24 1267.03 Q3418.32 1269.23 3418.32 1273.02 L3418.32 1287.68 L3414.04 1287.68 L3414.04 1272.17 Q3414.04 1268.42 3412.72 1266.64 Q3411.4 1264.83 3408.64 1264.83 Q3405.38 1264.83 3403.46 1267.05 Q3401.54 1269.25 3401.54 1273.02 L3401.54 1287.68 L3397.25 1287.68 L3397.25 1261.75 L3401.54 1261.75 L3401.54 1265.78 Q3402.99 1263.4 3405.03 1262.26 Q3407.07 1261.13 3409.87 1261.13 Q3412.69 1261.13 3414.66 1262.56 Q3416.65 1264 3417.6 1266.73 Z" fill="#000000" fill-rule="evenodd" fill-opacity="1" /><path clip-path="url(#clip360)" d="M 0 0 M3453.64 1264.74 Q3450.22 1264.74 3448.23 1267.42 Q3446.24 1270.09 3446.24 1274.74 Q3446.24 1279.39 3448.2 1282.08 Q3450.19 1284.74 3453.64 1284.74 Q3457.05 1284.74 3459.04 1282.05 Q3461.03 1279.37 3461.03 1274.74 Q3461.03 1270.13 3459.04 1267.45 Q3457.05 1264.74 3453.64 1264.74 M3453.64 1261.13 Q3459.2 1261.13 3462.37 1264.74 Q3465.54 1268.35 3465.54 1274.74 Q3465.54 1281.1 3462.37 1284.74 Q3459.2 1288.35 3453.64 1288.35 Q3448.06 1288.35 3444.89 1284.74 Q3441.74 1281.1 3441.74 1274.74 Q3441.74 1268.35 3444.89 1264.74 Q3448.06 1261.13 3453.64 1261.13 Z" fill="#000000" fill-rule="evenodd" fill-opacity="1" /><path clip-path="url(#clip360)" d="M 0 0 M3489.66 1265.69 L3489.66 1251.66 L3493.92 1251.66 L3493.92 1287.68 L3489.66 1287.68 L3489.66 1283.79 Q3488.32 1286.1 3486.26 1287.24 Q3484.22 1288.35 3481.35 1288.35 Q3476.65 1288.35 3473.69 1284.6 Q3470.75 1280.85 3470.75 1274.74 Q3470.75 1268.63 3473.69 1264.88 Q3476.65 1261.13 3481.35 1261.13 Q3484.22 1261.13 3486.26 1262.26 Q3488.32 1263.37 3489.66 1265.69 M3475.15 1274.74 Q3475.15 1279.44 3477.07 1282.12 Q3479.01 1284.78 3482.39 1284.78 Q3485.77 1284.78 3487.72 1282.12 Q3489.66 1279.44 3489.66 1274.74 Q3489.66 1270.04 3487.72 1267.38 Q3485.77 1264.69 3482.39 1264.69 Q3479.01 1264.69 3477.07 1267.38 Q3475.15 1270.04 3475.15 1274.74 Z" fill="#000000" fill-rule="evenodd" fill-opacity="1" /><path clip-path="url(#clip360)" d="M 0 0 M3524.87 1273.65 L3524.87 1275.73 L3505.29 1275.73 Q3505.56 1280.13 3507.92 1282.45 Q3510.31 1284.74 3514.54 1284.74 Q3517 1284.74 3519.29 1284.14 Q3521.61 1283.53 3523.87 1282.33 L3523.87 1286.36 Q3521.58 1287.33 3519.17 1287.84 Q3516.77 1288.35 3514.29 1288.35 Q3508.09 1288.35 3504.45 1284.74 Q3500.84 1281.13 3500.84 1274.97 Q3500.84 1268.6 3504.27 1264.88 Q3507.72 1261.13 3513.55 1261.13 Q3518.78 1261.13 3521.81 1264.51 Q3524.87 1267.86 3524.87 1273.65 M3520.61 1272.4 Q3520.56 1268.9 3518.64 1266.82 Q3516.74 1264.74 3513.6 1264.74 Q3510.03 1264.74 3507.88 1266.75 Q3505.75 1268.77 3505.42 1272.42 L3520.61 1272.4 Z" fill="#000000" fill-rule="evenodd" fill-opacity="1" /><path clip-path="url(#clip360)" d="M 0 0 M3531.86 1251.66 L3536.12 1251.66 L3536.12 1287.68 L3531.86 1287.68 L3531.86 1251.66 Z" fill="#000000" fill-rule="evenodd" fill-opacity="1" /><polyline clip-path="url(#clip360)" style="stroke:#0077bb; stroke-width:4; stroke-opacity:1; fill:none" points="
  3106.15,1330.88 3355.67,1330.88 
  "/>
<path clip-path="url(#clip360)" d="M 0 0 M3404.66 1314.87 L3404.66 1322.23 L3413.43 1322.23 L3413.43 1325.54 L3404.66 1325.54 L3404.66 1339.62 Q3404.66 1342.79 3405.52 1343.69 Q3406.4 1344.59 3409.06 1344.59 L3413.43 1344.59 L3413.43 1348.16 L3409.06 1348.16 Q3404.13 1348.16 3402.25 1346.33 Q3400.38 1344.48 3400.38 1339.62 L3400.38 1325.54 L3397.25 1325.54 L3397.25 1322.23 L3400.38 1322.23 L3400.38 1314.87 L3404.66 1314.87 Z" fill="#000000" fill-rule="evenodd" fill-opacity="1" /><path clip-path="url(#clip360)" d="M 0 0 M3430.82 1335.13 Q3425.66 1335.13 3423.67 1336.31 Q3421.68 1337.49 3421.68 1340.33 Q3421.68 1342.6 3423.16 1343.94 Q3424.66 1345.26 3427.23 1345.26 Q3430.77 1345.26 3432.9 1342.76 Q3435.05 1340.24 3435.05 1336.07 L3435.05 1335.13 L3430.82 1335.13 M3439.31 1333.37 L3439.31 1348.16 L3435.05 1348.16 L3435.05 1344.22 Q3433.6 1346.58 3431.42 1347.72 Q3429.24 1348.83 3426.1 1348.83 Q3422.11 1348.83 3419.75 1346.61 Q3417.42 1344.36 3417.42 1340.61 Q3417.42 1336.24 3420.33 1334.01 Q3423.27 1331.79 3429.08 1331.79 L3435.05 1331.79 L3435.05 1331.38 Q3435.05 1328.44 3433.11 1326.84 Q3431.19 1325.22 3427.69 1325.22 Q3425.47 1325.22 3423.36 1325.75 Q3421.26 1326.28 3419.31 1327.35 L3419.31 1323.41 Q3421.65 1322.51 3423.85 1322.07 Q3426.05 1321.61 3428.13 1321.61 Q3433.76 1321.61 3436.54 1324.52 Q3439.31 1327.44 3439.31 1333.37 Z" fill="#000000" fill-rule="evenodd" fill-opacity="1" /><path clip-path="url(#clip360)" d="M 0 0 M3463.11 1326.21 Q3462.39 1325.8 3461.54 1325.61 Q3460.7 1325.4 3459.68 1325.4 Q3456.07 1325.4 3454.13 1327.76 Q3452.21 1330.1 3452.21 1334.5 L3452.21 1348.16 L3447.92 1348.16 L3447.92 1322.23 L3452.21 1322.23 L3452.21 1326.26 Q3453.55 1323.9 3455.7 1322.76 Q3457.86 1321.61 3460.93 1321.61 Q3461.37 1321.61 3461.91 1321.68 Q3462.44 1321.72 3463.09 1321.84 L3463.11 1326.21 Z" fill="#000000" fill-rule="evenodd" fill-opacity="1" /><path clip-path="url(#clip360)" d="M 0 0 M3483.8 1334.89 Q3483.8 1330.26 3481.88 1327.72 Q3479.98 1325.17 3476.54 1325.17 Q3473.11 1325.17 3471.19 1327.72 Q3469.29 1330.26 3469.29 1334.89 Q3469.29 1339.5 3471.19 1342.05 Q3473.11 1344.59 3476.54 1344.59 Q3479.98 1344.59 3481.88 1342.05 Q3483.8 1339.5 3483.8 1334.89 M3488.06 1344.94 Q3488.06 1351.56 3485.12 1354.78 Q3482.18 1358.02 3476.12 1358.02 Q3473.87 1358.02 3471.88 1357.67 Q3469.89 1357.35 3468.02 1356.65 L3468.02 1352.51 Q3469.89 1353.53 3471.72 1354.01 Q3473.55 1354.5 3475.45 1354.5 Q3479.64 1354.5 3481.72 1352.3 Q3483.8 1350.13 3483.8 1345.7 L3483.8 1343.6 Q3482.48 1345.89 3480.42 1347.02 Q3478.36 1348.16 3475.49 1348.16 Q3470.73 1348.16 3467.81 1344.52 Q3464.89 1340.89 3464.89 1334.89 Q3464.89 1328.88 3467.81 1325.24 Q3470.73 1321.61 3475.49 1321.61 Q3478.36 1321.61 3480.42 1322.74 Q3482.48 1323.88 3483.8 1326.17 L3483.8 1322.23 L3488.06 1322.23 L3488.06 1344.94 Z" fill="#000000" fill-rule="evenodd" fill-opacity="1" /><path clip-path="url(#clip360)" d="M 0 0 M3519.01 1334.13 L3519.01 1336.21 L3499.43 1336.21 Q3499.71 1340.61 3502.07 1342.93 Q3504.45 1345.22 3508.69 1345.22 Q3511.14 1345.22 3513.43 1344.62 Q3515.75 1344.01 3518.02 1342.81 L3518.02 1346.84 Q3515.73 1347.81 3513.32 1348.32 Q3510.91 1348.83 3508.43 1348.83 Q3502.23 1348.83 3498.6 1345.22 Q3494.98 1341.61 3494.98 1335.45 Q3494.98 1329.08 3498.41 1325.36 Q3501.86 1321.61 3507.69 1321.61 Q3512.92 1321.61 3515.96 1324.99 Q3519.01 1328.34 3519.01 1334.13 M3514.75 1332.88 Q3514.71 1329.38 3512.79 1327.3 Q3510.89 1325.22 3507.74 1325.22 Q3504.17 1325.22 3502.02 1327.23 Q3499.89 1329.25 3499.57 1332.9 L3514.75 1332.88 Z" fill="#000000" fill-rule="evenodd" fill-opacity="1" /><path clip-path="url(#clip360)" d="M 0 0 M3530.22 1314.87 L3530.22 1322.23 L3538.99 1322.23 L3538.99 1325.54 L3530.22 1325.54 L3530.22 1339.62 Q3530.22 1342.79 3531.07 1343.69 Q3531.95 1344.59 3534.61 1344.59 L3538.99 1344.59 L3538.99 1348.16 L3534.61 1348.16 Q3529.68 1348.16 3527.81 1346.33 Q3525.93 1344.48 3525.93 1339.62 L3525.93 1325.54 L3522.81 1325.54 L3522.81 1322.23 L3525.93 1322.23 L3525.93 1314.87 L3530.22 1314.87 Z" fill="#000000" fill-rule="evenodd" fill-opacity="1" /><path clip-path="url(#clip360)" d="M 0 0 M3572.79 1312.14 L3572.79 1315.68 L3568.71 1315.68 Q3566.42 1315.68 3565.52 1316.61 Q3564.64 1317.53 3564.64 1319.94 L3564.64 1322.23 L3571.65 1322.23 L3571.65 1325.54 L3564.64 1325.54 L3564.64 1348.16 L3560.35 1348.16 L3560.35 1325.54 L3556.28 1325.54 L3556.28 1322.23 L3560.35 1322.23 L3560.35 1320.43 Q3560.35 1316.1 3562.37 1314.13 Q3564.38 1312.14 3568.76 1312.14 L3572.79 1312.14 Z" fill="#000000" fill-rule="evenodd" fill-opacity="1" /><path clip-path="url(#clip360)" d="M 0 0 M3575.91 1337.93 L3575.91 1322.23 L3580.17 1322.23 L3580.17 1337.76 Q3580.17 1341.44 3581.6 1343.3 Q3583.04 1345.13 3585.91 1345.13 Q3589.36 1345.13 3591.35 1342.93 Q3593.36 1340.73 3593.36 1336.93 L3593.36 1322.23 L3597.62 1322.23 L3597.62 1348.16 L3593.36 1348.16 L3593.36 1344.18 Q3591.81 1346.54 3589.75 1347.69 Q3587.72 1348.83 3585.01 1348.83 Q3580.54 1348.83 3578.23 1346.05 Q3575.91 1343.27 3575.91 1337.93 M3586.63 1321.61 L3586.63 1321.61 Z" fill="#000000" fill-rule="evenodd" fill-opacity="1" /><path clip-path="url(#clip360)" d="M 0 0 M3627.95 1332.51 L3627.95 1348.16 L3623.69 1348.16 L3623.69 1332.65 Q3623.69 1328.97 3622.25 1327.14 Q3620.82 1325.31 3617.95 1325.31 Q3614.5 1325.31 3612.51 1327.51 Q3610.52 1329.71 3610.52 1333.5 L3610.52 1348.16 L3606.23 1348.16 L3606.23 1322.23 L3610.52 1322.23 L3610.52 1326.26 Q3612.04 1323.92 3614.1 1322.76 Q3616.19 1321.61 3618.9 1321.61 Q3623.36 1321.61 3625.66 1324.38 Q3627.95 1327.14 3627.95 1332.51 Z" fill="#000000" fill-rule="evenodd" fill-opacity="1" /><path clip-path="url(#clip360)" d="M 0 0 M3655.1 1323.23 L3655.1 1327.21 Q3653.29 1326.21 3651.47 1325.73 Q3649.66 1325.22 3647.81 1325.22 Q3643.66 1325.22 3641.37 1327.86 Q3639.08 1330.47 3639.08 1335.22 Q3639.08 1339.96 3641.37 1342.6 Q3643.66 1345.22 3647.81 1345.22 Q3649.66 1345.22 3651.47 1344.73 Q3653.29 1344.22 3655.1 1343.23 L3655.1 1347.16 Q3653.32 1348 3651.4 1348.41 Q3649.5 1348.83 3647.35 1348.83 Q3641.49 1348.83 3638.04 1345.15 Q3634.59 1341.47 3634.59 1335.22 Q3634.59 1328.88 3638.06 1325.24 Q3641.56 1321.61 3647.62 1321.61 Q3649.59 1321.61 3651.47 1322.02 Q3653.34 1322.42 3655.1 1323.23 Z" fill="#000000" fill-rule="evenodd" fill-opacity="1" /><path clip-path="url(#clip360)" d="M 0 0 M3666.72 1314.87 L3666.72 1322.23 L3675.49 1322.23 L3675.49 1325.54 L3666.72 1325.54 L3666.72 1339.62 Q3666.72 1342.79 3667.58 1343.69 Q3668.46 1344.59 3671.12 1344.59 L3675.49 1344.59 L3675.49 1348.16 L3671.12 1348.16 Q3666.19 1348.16 3664.31 1346.33 Q3662.44 1344.48 3662.44 1339.62 L3662.44 1325.54 L3659.31 1325.54 L3659.31 1322.23 L3662.44 1322.23 L3662.44 1314.87 L3666.72 1314.87 Z" fill="#000000" fill-rule="evenodd" fill-opacity="1" /><path clip-path="url(#clip360)" d="M 0 0 M3681.09 1322.23 L3685.35 1322.23 L3685.35 1348.16 L3681.09 1348.16 L3681.09 1322.23 M3681.09 1312.14 L3685.35 1312.14 L3685.35 1317.53 L3681.09 1317.53 L3681.09 1312.14 Z" fill="#000000" fill-rule="evenodd" fill-opacity="1" /><path clip-path="url(#clip360)" d="M 0 0 M3704.31 1325.22 Q3700.89 1325.22 3698.9 1327.9 Q3696.91 1330.57 3696.91 1335.22 Q3696.91 1339.87 3698.87 1342.56 Q3700.86 1345.22 3704.31 1345.22 Q3707.72 1345.22 3709.71 1342.53 Q3711.7 1339.85 3711.7 1335.22 Q3711.7 1330.61 3709.71 1327.93 Q3707.72 1325.22 3704.31 1325.22 M3704.31 1321.61 Q3709.87 1321.61 3713.04 1325.22 Q3716.21 1328.83 3716.21 1335.22 Q3716.21 1341.58 3713.04 1345.22 Q3709.87 1348.83 3704.31 1348.83 Q3698.73 1348.83 3695.56 1345.22 Q3692.41 1341.58 3692.41 1335.22 Q3692.41 1328.83 3695.56 1325.22 Q3698.73 1321.61 3704.31 1321.61 Z" fill="#000000" fill-rule="evenodd" fill-opacity="1" /><path clip-path="url(#clip360)" d="M 0 0 M3744.82 1332.51 L3744.82 1348.16 L3740.56 1348.16 L3740.56 1332.65 Q3740.56 1328.97 3739.13 1327.14 Q3737.69 1325.31 3734.82 1325.31 Q3731.37 1325.31 3729.38 1327.51 Q3727.39 1329.71 3727.39 1333.5 L3727.39 1348.16 L3723.11 1348.16 L3723.11 1322.23 L3727.39 1322.23 L3727.39 1326.26 Q3728.92 1323.92 3730.98 1322.76 Q3733.06 1321.61 3735.77 1321.61 Q3740.24 1321.61 3742.53 1324.38 Q3744.82 1327.14 3744.82 1332.51 Z" fill="#000000" fill-rule="evenodd" fill-opacity="1" /><circle clip-path="url(#clip360)" cx="3230.91" cy="1391.36" r="23" fill="#ee3377" fill-rule="evenodd" fill-opacity="1" stroke="#000000" stroke-opacity="1" stroke-width="0"/>
<path clip-path="url(#clip360)" d="M 0 0 M3409.15 1385.7 Q3405.73 1385.7 3403.74 1388.38 Q3401.74 1391.05 3401.74 1395.7 Q3401.74 1400.35 3403.71 1403.04 Q3405.7 1405.7 3409.15 1405.7 Q3412.55 1405.7 3414.55 1403.01 Q3416.54 1400.33 3416.54 1395.7 Q3416.54 1391.09 3414.55 1388.41 Q3412.55 1385.7 3409.15 1385.7 M3409.15 1382.09 Q3414.71 1382.09 3417.88 1385.7 Q3421.05 1389.31 3421.05 1395.7 Q3421.05 1402.06 3417.88 1405.7 Q3414.71 1409.31 3409.15 1409.31 Q3403.57 1409.31 3400.4 1405.7 Q3397.25 1402.06 3397.25 1395.7 Q3397.25 1389.31 3400.4 1385.7 Q3403.57 1382.09 3409.15 1382.09 Z" fill="#000000" fill-rule="evenodd" fill-opacity="1" /><path clip-path="url(#clip360)" d="M 0 0 M3446.72 1395.7 Q3446.72 1391 3444.78 1388.34 Q3442.86 1385.65 3439.48 1385.65 Q3436.1 1385.65 3434.15 1388.34 Q3432.23 1391 3432.23 1395.7 Q3432.23 1400.4 3434.15 1403.08 Q3436.1 1405.74 3439.48 1405.74 Q3442.86 1405.74 3444.78 1403.08 Q3446.72 1400.4 3446.72 1395.7 M3432.23 1386.65 Q3433.57 1384.33 3435.61 1383.22 Q3437.67 1382.09 3440.52 1382.09 Q3445.24 1382.09 3448.18 1385.84 Q3451.14 1389.59 3451.14 1395.7 Q3451.14 1401.81 3448.18 1405.56 Q3445.24 1409.31 3440.52 1409.31 Q3437.67 1409.31 3435.61 1408.2 Q3433.57 1407.06 3432.23 1404.75 L3432.23 1408.64 L3427.95 1408.64 L3427.95 1372.62 L3432.23 1372.62 L3432.23 1386.65 Z" fill="#000000" fill-rule="evenodd" fill-opacity="1" /><path clip-path="url(#clip360)" d="M 0 0 M3474.73 1383.48 L3474.73 1387.5 Q3472.92 1386.58 3470.98 1386.11 Q3469.04 1385.65 3466.95 1385.65 Q3463.78 1385.65 3462.18 1386.62 Q3460.61 1387.6 3460.61 1389.54 Q3460.61 1391.02 3461.74 1391.88 Q3462.88 1392.71 3466.3 1393.48 L3467.76 1393.8 Q3472.3 1394.77 3474.2 1396.55 Q3476.12 1398.31 3476.12 1401.48 Q3476.12 1405.1 3473.25 1407.2 Q3470.4 1409.31 3465.4 1409.31 Q3463.32 1409.31 3461.05 1408.89 Q3458.8 1408.5 3456.3 1407.69 L3456.3 1403.29 Q3458.67 1404.52 3460.96 1405.14 Q3463.25 1405.74 3465.49 1405.74 Q3468.5 1405.74 3470.12 1404.73 Q3471.74 1403.68 3471.74 1401.81 Q3471.74 1400.07 3470.56 1399.15 Q3469.41 1398.22 3465.45 1397.36 L3463.97 1397.02 Q3460.01 1396.18 3458.25 1394.47 Q3456.49 1392.73 3456.49 1389.73 Q3456.49 1386.07 3459.08 1384.08 Q3461.67 1382.09 3466.44 1382.09 Q3468.8 1382.09 3470.89 1382.43 Q3472.97 1382.78 3474.73 1383.48 Z" fill="#000000" fill-rule="evenodd" fill-opacity="1" /><path clip-path="url(#clip360)" d="M 0 0 M3505.08 1394.61 L3505.08 1396.69 L3485.49 1396.69 Q3485.77 1401.09 3488.13 1403.41 Q3490.52 1405.7 3494.75 1405.7 Q3497.21 1405.7 3499.5 1405.1 Q3501.81 1404.49 3504.08 1403.29 L3504.08 1407.32 Q3501.79 1408.29 3499.38 1408.8 Q3496.98 1409.31 3494.5 1409.31 Q3488.3 1409.31 3484.66 1405.7 Q3481.05 1402.09 3481.05 1395.93 Q3481.05 1389.56 3484.48 1385.84 Q3487.92 1382.09 3493.76 1382.09 Q3498.99 1382.09 3502.02 1385.47 Q3505.08 1388.82 3505.08 1394.61 M3500.82 1393.36 Q3500.77 1389.86 3498.85 1387.78 Q3496.95 1385.7 3493.8 1385.7 Q3490.24 1385.7 3488.09 1387.71 Q3485.96 1389.73 3485.63 1393.38 L3500.82 1393.36 Z" fill="#000000" fill-rule="evenodd" fill-opacity="1" /><path clip-path="url(#clip360)" d="M 0 0 M3527.09 1386.69 Q3526.37 1386.28 3525.52 1386.09 Q3524.68 1385.88 3523.67 1385.88 Q3520.05 1385.88 3518.11 1388.24 Q3516.19 1390.58 3516.19 1394.98 L3516.19 1408.64 L3511.91 1408.64 L3511.91 1382.71 L3516.19 1382.71 L3516.19 1386.74 Q3517.53 1384.38 3519.68 1383.24 Q3521.84 1382.09 3524.92 1382.09 Q3525.36 1382.09 3525.89 1382.16 Q3526.42 1382.2 3527.07 1382.32 L3527.09 1386.69 Z" fill="#000000" fill-rule="evenodd" fill-opacity="1" /><path clip-path="url(#clip360)" d="M 0 0 M3528.5 1382.71 L3533.02 1382.71 L3541.12 1404.47 L3549.22 1382.71 L3553.73 1382.71 L3544.01 1408.64 L3538.23 1408.64 L3528.5 1382.71 Z" fill="#000000" fill-rule="evenodd" fill-opacity="1" /><path clip-path="url(#clip360)" d="M 0 0 M3571.4 1395.61 Q3566.23 1395.61 3564.24 1396.79 Q3562.25 1397.97 3562.25 1400.81 Q3562.25 1403.08 3563.73 1404.42 Q3565.24 1405.74 3567.81 1405.74 Q3571.35 1405.74 3573.48 1403.24 Q3575.63 1400.72 3575.63 1396.55 L3575.63 1395.61 L3571.4 1395.61 M3579.89 1393.85 L3579.89 1408.64 L3575.63 1408.64 L3575.63 1404.7 Q3574.17 1407.06 3572 1408.2 Q3569.82 1409.31 3566.67 1409.31 Q3562.69 1409.31 3560.33 1407.09 Q3557.99 1404.84 3557.99 1401.09 Q3557.99 1396.72 3560.91 1394.49 Q3563.85 1392.27 3569.66 1392.27 L3575.63 1392.27 L3575.63 1391.86 Q3575.63 1388.92 3573.69 1387.32 Q3571.77 1385.7 3568.27 1385.7 Q3566.05 1385.7 3563.94 1386.23 Q3561.84 1386.76 3559.89 1387.83 L3559.89 1383.89 Q3562.23 1382.99 3564.43 1382.55 Q3566.63 1382.09 3568.71 1382.09 Q3574.34 1382.09 3577.11 1385 Q3579.89 1387.92 3579.89 1393.85 Z" fill="#000000" fill-rule="evenodd" fill-opacity="1" /><path clip-path="url(#clip360)" d="M 0 0 M3592.88 1375.35 L3592.88 1382.71 L3601.65 1382.71 L3601.65 1386.02 L3592.88 1386.02 L3592.88 1400.1 Q3592.88 1403.27 3593.73 1404.17 Q3594.61 1405.07 3597.28 1405.07 L3601.65 1405.07 L3601.65 1408.64 L3597.28 1408.64 Q3592.35 1408.64 3590.47 1406.81 Q3588.6 1404.96 3588.6 1400.1 L3588.6 1386.02 L3585.47 1386.02 L3585.47 1382.71 L3588.6 1382.71 L3588.6 1375.35 L3592.88 1375.35 Z" fill="#000000" fill-rule="evenodd" fill-opacity="1" /><path clip-path="url(#clip360)" d="M 0 0 M3607.25 1382.71 L3611.51 1382.71 L3611.51 1408.64 L3607.25 1408.64 L3607.25 1382.71 M3607.25 1372.62 L3611.51 1372.62 L3611.51 1378.01 L3607.25 1378.01 L3607.25 1372.62 Z" fill="#000000" fill-rule="evenodd" fill-opacity="1" /><path clip-path="url(#clip360)" d="M 0 0 M3630.47 1385.7 Q3627.04 1385.7 3625.05 1388.38 Q3623.06 1391.05 3623.06 1395.7 Q3623.06 1400.35 3625.03 1403.04 Q3627.02 1405.7 3630.47 1405.7 Q3633.87 1405.7 3635.86 1403.01 Q3637.85 1400.33 3637.85 1395.7 Q3637.85 1391.09 3635.86 1388.41 Q3633.87 1385.7 3630.47 1385.7 M3630.47 1382.09 Q3636.03 1382.09 3639.2 1385.7 Q3642.37 1389.31 3642.37 1395.7 Q3642.37 1402.06 3639.2 1405.7 Q3636.03 1409.31 3630.47 1409.31 Q3624.89 1409.31 3621.72 1405.7 Q3618.57 1402.06 3618.57 1395.7 Q3618.57 1389.31 3621.72 1385.7 Q3624.89 1382.09 3630.47 1382.09 Z" fill="#000000" fill-rule="evenodd" fill-opacity="1" /><path clip-path="url(#clip360)" d="M 0 0 M3670.98 1392.99 L3670.98 1408.64 L3666.72 1408.64 L3666.72 1393.13 Q3666.72 1389.45 3665.28 1387.62 Q3663.85 1385.79 3660.98 1385.79 Q3657.53 1385.79 3655.54 1387.99 Q3653.55 1390.19 3653.55 1393.98 L3653.55 1408.64 L3649.27 1408.64 L3649.27 1382.71 L3653.55 1382.71 L3653.55 1386.74 Q3655.08 1384.4 3657.14 1383.24 Q3659.22 1382.09 3661.93 1382.09 Q3666.4 1382.09 3668.69 1384.86 Q3670.98 1387.62 3670.98 1392.99 Z" fill="#000000" fill-rule="evenodd" fill-opacity="1" /><path clip-path="url(#clip360)" d="M 0 0 M3696 1383.48 L3696 1387.5 Q3694.2 1386.58 3692.25 1386.11 Q3690.31 1385.65 3688.22 1385.65 Q3685.05 1385.65 3683.46 1386.62 Q3681.88 1387.6 3681.88 1389.54 Q3681.88 1391.02 3683.02 1391.88 Q3684.15 1392.71 3687.58 1393.48 L3689.03 1393.8 Q3693.57 1394.77 3695.47 1396.55 Q3697.39 1398.31 3697.39 1401.48 Q3697.39 1405.1 3694.52 1407.2 Q3691.67 1409.31 3686.67 1409.31 Q3684.59 1409.31 3682.32 1408.89 Q3680.08 1408.5 3677.58 1407.69 L3677.58 1403.29 Q3679.94 1404.52 3682.23 1405.14 Q3684.52 1405.74 3686.77 1405.74 Q3689.78 1405.74 3691.4 1404.73 Q3693.02 1403.68 3693.02 1401.81 Q3693.02 1400.07 3691.84 1399.15 Q3690.68 1398.22 3686.72 1397.36 L3685.24 1397.02 Q3681.28 1396.18 3679.52 1394.47 Q3677.76 1392.73 3677.76 1389.73 Q3677.76 1386.07 3680.35 1384.08 Q3682.95 1382.09 3687.72 1382.09 Q3690.08 1382.09 3692.16 1382.43 Q3694.24 1382.78 3696 1383.48 Z" fill="#000000" fill-rule="evenodd" fill-opacity="1" /></svg>
