<?xml version="1.0" encoding="utf-8"?>
<svg xmlns="http://www.w3.org/2000/svg" xmlns:xlink="http://www.w3.org/1999/xlink" width="1000" height="400" viewBox="0 0 4000 1600">
<defs>
  <clipPath id="clip250">
    <rect x="0" y="0" width="4000" height="1600"/>
  </clipPath>
</defs>
<path clip-path="url(#clip250)" d="
M0 1600 L4000 1600 L4000 0 L0 0  Z
  " fill="#ffffff" fill-rule="evenodd" fill-opacity="1"/>
<defs>
  <clipPath id="clip251">
    <rect x="800" y="0" width="2801" height="1600"/>
  </clipPath>
</defs>
<path clip-path="url(#clip250)" d="
M209.936 1500.27 L3952.76 1500.27 L3952.76 47.2441 L209.936 47.2441  Z
  " fill="#ffffff" fill-rule="evenodd" fill-opacity="1"/>
<defs>
  <clipPath id="clip252">
    <rect x="209" y="47" width="3744" height="1454"/>
  </clipPath>
</defs>
<polyline clip-path="url(#clip252)" style="stroke:#222255; stroke-width:2; stroke-opacity:0.1; fill:none" points="
  283.042,1500.27 283.042,47.2441 
  "/>
<polyline clip-path="url(#clip252)" style="stroke:#222255; stroke-width:2; stroke-opacity:0.1; fill:none" points="
  1182.19,1500.27 1182.19,47.2441 
  "/>
<polyline clip-path="url(#clip252)" style="stroke:#222255; stroke-width:2; stroke-opacity:0.1; fill:none" points="
  2081.35,1500.27 2081.35,47.2441 
  "/>
<polyline clip-path="url(#clip252)" style="stroke:#222255; stroke-width:2; stroke-opacity:0.1; fill:none" points="
  2980.5,1500.27 2980.5,47.2441 
  "/>
<polyline clip-path="url(#clip252)" style="stroke:#222255; stroke-width:2; stroke-opacity:0.1; fill:none" points="
  3879.65,1500.27 3879.65,47.2441 
  "/>
<polyline clip-path="url(#clip252)" style="stroke:#222255; stroke-width:2; stroke-opacity:0.05; fill:none" points="
  462.872,1500.27 462.872,47.2441 
  "/>
<polyline clip-path="url(#clip252)" style="stroke:#222255; stroke-width:2; stroke-opacity:0.05; fill:none" points="
  642.703,1500.27 642.703,47.2441 
  "/>
<polyline clip-path="url(#clip252)" style="stroke:#222255; stroke-width:2; stroke-opacity:0.05; fill:none" points="
  822.533,1500.27 822.533,47.2441 
  "/>
<polyline clip-path="url(#clip252)" style="stroke:#222255; stroke-width:2; stroke-opacity:0.05; fill:none" points="
  1002.36,1500.27 1002.36,47.2441 
  "/>
<polyline clip-path="url(#clip252)" style="stroke:#222255; stroke-width:2; stroke-opacity:0.05; fill:none" points="
  1362.02,1500.27 1362.02,47.2441 
  "/>
<polyline clip-path="url(#clip252)" style="stroke:#222255; stroke-width:2; stroke-opacity:0.05; fill:none" points="
  1541.85,1500.27 1541.85,47.2441 
  "/>
<polyline clip-path="url(#clip252)" style="stroke:#222255; stroke-width:2; stroke-opacity:0.05; fill:none" points="
  1721.69,1500.27 1721.69,47.2441 
  "/>
<polyline clip-path="url(#clip252)" style="stroke:#222255; stroke-width:2; stroke-opacity:0.05; fill:none" points="
  1901.52,1500.27 1901.52,47.2441 
  "/>
<polyline clip-path="url(#clip252)" style="stroke:#222255; stroke-width:2; stroke-opacity:0.05; fill:none" points="
  2261.18,1500.27 2261.18,47.2441 
  "/>
<polyline clip-path="url(#clip252)" style="stroke:#222255; stroke-width:2; stroke-opacity:0.05; fill:none" points="
  2441.01,1500.27 2441.01,47.2441 
  "/>
<polyline clip-path="url(#clip252)" style="stroke:#222255; stroke-width:2; stroke-opacity:0.05; fill:none" points="
  2620.84,1500.27 2620.84,47.2441 
  "/>
<polyline clip-path="url(#clip252)" style="stroke:#222255; stroke-width:2; stroke-opacity:0.05; fill:none" points="
  2800.67,1500.27 2800.67,47.2441 
  "/>
<polyline clip-path="url(#clip252)" style="stroke:#222255; stroke-width:2; stroke-opacity:0.05; fill:none" points="
  3160.33,1500.27 3160.33,47.2441 
  "/>
<polyline clip-path="url(#clip252)" style="stroke:#222255; stroke-width:2; stroke-opacity:0.05; fill:none" points="
  3340.16,1500.27 3340.16,47.2441 
  "/>
<polyline clip-path="url(#clip252)" style="stroke:#222255; stroke-width:2; stroke-opacity:0.05; fill:none" points="
  3519.99,1500.27 3519.99,47.2441 
  "/>
<polyline clip-path="url(#clip252)" style="stroke:#222255; stroke-width:2; stroke-opacity:0.05; fill:none" points="
  3699.82,1500.27 3699.82,47.2441 
  "/>
<polyline clip-path="url(#clip250)" style="stroke:#222255; stroke-width:4; stroke-opacity:0; fill:none" points="
  283.042,1500.27 283.042,1482.84 
  "/>
<polyline clip-path="url(#clip250)" style="stroke:#222255; stroke-width:4; stroke-opacity:0; fill:none" points="
  1182.19,1500.27 1182.19,1482.84 
  "/>
<polyline clip-path="url(#clip250)" style="stroke:#222255; stroke-width:4; stroke-opacity:0; fill:none" points="
  2081.35,1500.27 2081.35,1482.84 
  "/>
<polyline clip-path="url(#clip250)" style="stroke:#222255; stroke-width:4; stroke-opacity:0; fill:none" points="
  2980.5,1500.27 2980.5,1482.84 
  "/>
<polyline clip-path="url(#clip250)" style="stroke:#222255; stroke-width:4; stroke-opacity:0; fill:none" points="
  3879.65,1500.27 3879.65,1482.84 
  "/>
<polyline clip-path="url(#clip250)" style="stroke:#222255; stroke-width:4; stroke-opacity:0; fill:none" points="
  462.872,1500.27 462.872,1491.55 
  "/>
<polyline clip-path="url(#clip250)" style="stroke:#222255; stroke-width:4; stroke-opacity:0; fill:none" points="
  642.703,1500.27 642.703,1491.55 
  "/>
<polyline clip-path="url(#clip250)" style="stroke:#222255; stroke-width:4; stroke-opacity:0; fill:none" points="
  822.533,1500.27 822.533,1491.55 
  "/>
<polyline clip-path="url(#clip250)" style="stroke:#222255; stroke-width:4; stroke-opacity:0; fill:none" points="
  1002.36,1500.27 1002.36,1491.55 
  "/>
<polyline clip-path="url(#clip250)" style="stroke:#222255; stroke-width:4; stroke-opacity:0; fill:none" points="
  1362.02,1500.27 1362.02,1491.55 
  "/>
<polyline clip-path="url(#clip250)" style="stroke:#222255; stroke-width:4; stroke-opacity:0; fill:none" points="
  1541.85,1500.27 1541.85,1491.55 
  "/>
<polyline clip-path="url(#clip250)" style="stroke:#222255; stroke-width:4; stroke-opacity:0; fill:none" points="
  1721.69,1500.27 1721.69,1491.55 
  "/>
<polyline clip-path="url(#clip250)" style="stroke:#222255; stroke-width:4; stroke-opacity:0; fill:none" points="
  1901.52,1500.27 1901.52,1491.55 
  "/>
<polyline clip-path="url(#clip250)" style="stroke:#222255; stroke-width:4; stroke-opacity:0; fill:none" points="
  2261.18,1500.27 2261.18,1491.55 
  "/>
<polyline clip-path="url(#clip250)" style="stroke:#222255; stroke-width:4; stroke-opacity:0; fill:none" points="
  2441.01,1500.27 2441.01,1491.55 
  "/>
<polyline clip-path="url(#clip250)" style="stroke:#222255; stroke-width:4; stroke-opacity:0; fill:none" points="
  2620.84,1500.27 2620.84,1491.55 
  "/>
<polyline clip-path="url(#clip250)" style="stroke:#222255; stroke-width:4; stroke-opacity:0; fill:none" points="
  2800.67,1500.27 2800.67,1491.55 
  "/>
<polyline clip-path="url(#clip250)" style="stroke:#222255; stroke-width:4; stroke-opacity:0; fill:none" points="
  3160.33,1500.27 3160.33,1491.55 
  "/>
<polyline clip-path="url(#clip250)" style="stroke:#222255; stroke-width:4; stroke-opacity:0; fill:none" points="
  3340.16,1500.27 3340.16,1491.55 
  "/>
<polyline clip-path="url(#clip250)" style="stroke:#222255; stroke-width:4; stroke-opacity:0; fill:none" points="
  3519.99,1500.27 3519.99,1491.55 
  "/>
<polyline clip-path="url(#clip250)" style="stroke:#222255; stroke-width:4; stroke-opacity:0; fill:none" points="
  3699.82,1500.27 3699.82,1491.55 
  "/>
<path clip-path="url(#clip250)" d="M 0 0 M251.942 1556.92 L281.618 1556.92 L281.618 1560.85 L251.942 1560.85 L251.942 1556.92 Z" fill="#000000" fill-rule="evenodd" fill-opacity="1" /><path clip-path="url(#clip250)" d="M 0 0 M304.558 1543.26 L292.752 1561.71 L304.558 1561.71 L304.558 1543.26 M303.331 1539.18 L309.211 1539.18 L309.211 1561.71 L314.141 1561.71 L314.141 1565.6 L309.211 1565.6 L309.211 1573.74 L304.558 1573.74 L304.558 1565.6 L288.956 1565.6 L288.956 1561.08 L303.331 1539.18 Z" fill="#000000" fill-rule="evenodd" fill-opacity="1" /><path clip-path="url(#clip250)" d="M 0 0 M1152.14 1556.92 L1181.81 1556.92 L1181.81 1560.85 L1152.14 1560.85 L1152.14 1556.92 Z" fill="#000000" fill-rule="evenodd" fill-opacity="1" /><path clip-path="url(#clip250)" d="M 0 0 M1195.93 1569.81 L1212.25 1569.81 L1212.25 1573.74 L1190.31 1573.74 L1190.31 1569.81 Q1192.97 1567.05 1197.55 1562.42 Q1202.16 1557.77 1203.34 1556.43 Q1205.58 1553.91 1206.46 1552.17 Q1207.37 1550.41 1207.37 1548.72 Q1207.37 1545.97 1205.42 1544.23 Q1203.5 1542.49 1200.4 1542.49 Q1198.2 1542.49 1195.75 1543.26 Q1193.32 1544.02 1190.54 1545.57 L1190.54 1540.85 Q1193.36 1539.72 1195.82 1539.14 Q1198.27 1538.56 1200.31 1538.56 Q1205.68 1538.56 1208.87 1541.24 Q1212.07 1543.93 1212.07 1548.42 Q1212.07 1550.55 1211.26 1552.47 Q1210.47 1554.37 1208.36 1556.96 Q1207.78 1557.63 1204.68 1560.85 Q1201.58 1564.04 1195.93 1569.81 Z" fill="#000000" fill-rule="evenodd" fill-opacity="1" /><path clip-path="url(#clip250)" d="M 0 0 M2081.35 1542.26 Q2077.73 1542.26 2075.91 1545.83 Q2074.1 1549.37 2074.1 1556.5 Q2074.1 1563.61 2075.91 1567.17 Q2077.73 1570.71 2081.35 1570.71 Q2084.98 1570.71 2086.79 1567.17 Q2088.61 1563.61 2088.61 1556.5 Q2088.61 1549.37 2086.79 1545.83 Q2084.98 1542.26 2081.35 1542.26 M2081.35 1538.56 Q2087.16 1538.56 2090.21 1543.17 Q2093.29 1547.75 2093.29 1556.5 Q2093.29 1565.23 2090.21 1569.83 Q2087.16 1574.42 2081.35 1574.42 Q2075.54 1574.42 2072.46 1569.83 Q2069.4 1565.23 2069.4 1556.5 Q2069.4 1547.75 2072.46 1543.17 Q2075.54 1538.56 2081.35 1538.56 Z" fill="#000000" fill-rule="evenodd" fill-opacity="1" /><path clip-path="url(#clip250)" d="M 0 0 M2975.15 1569.81 L2991.47 1569.81 L2991.47 1573.74 L2969.53 1573.74 L2969.53 1569.81 Q2972.19 1567.05 2976.77 1562.42 Q2981.38 1557.77 2982.56 1556.43 Q2984.8 1553.91 2985.68 1552.17 Q2986.59 1550.41 2986.59 1548.72 Q2986.59 1545.97 2984.64 1544.23 Q2982.72 1542.49 2979.62 1542.49 Q2977.42 1542.49 2974.97 1543.26 Q2972.54 1544.02 2969.76 1545.57 L2969.76 1540.85 Q2972.58 1539.72 2975.04 1539.14 Q2977.49 1538.56 2979.53 1538.56 Q2984.9 1538.56 2988.09 1541.24 Q2991.29 1543.93 2991.29 1548.42 Q2991.29 1550.55 2990.47 1552.47 Q2989.69 1554.37 2987.58 1556.96 Q2987 1557.63 2983.9 1560.85 Q2980.8 1564.04 2975.15 1569.81 Z" fill="#000000" fill-rule="evenodd" fill-opacity="1" /><path clip-path="url(#clip250)" d="M 0 0 M3882.66 1543.26 L3870.85 1561.71 L3882.66 1561.71 L3882.66 1543.26 M3881.43 1539.18 L3887.31 1539.18 L3887.31 1561.71 L3892.24 1561.71 L3892.24 1565.6 L3887.31 1565.6 L3887.31 1573.74 L3882.66 1573.74 L3882.66 1565.6 L3867.06 1565.6 L3867.06 1561.08 L3881.43 1539.18 Z" fill="#000000" fill-rule="evenodd" fill-opacity="1" /><polyline clip-path="url(#clip252)" style="stroke:#222255; stroke-width:2; stroke-opacity:0.1; fill:none" points="
  209.936,1379.85 3952.76,1379.85 
  "/>
<polyline clip-path="url(#clip252)" style="stroke:#222255; stroke-width:2; stroke-opacity:0.1; fill:none" points="
  209.936,1087.25 3952.76,1087.25 
  "/>
<polyline clip-path="url(#clip252)" style="stroke:#222255; stroke-width:2; stroke-opacity:0.1; fill:none" points="
  209.936,794.649 3952.76,794.649 
  "/>
<polyline clip-path="url(#clip252)" style="stroke:#222255; stroke-width:2; stroke-opacity:0.1; fill:none" points="
  209.936,502.05 3952.76,502.05 
  "/>
<polyline clip-path="url(#clip252)" style="stroke:#222255; stroke-width:2; stroke-opacity:0.1; fill:none" points="
  209.936,209.45 3952.76,209.45 
  "/>
<polyline clip-path="url(#clip252)" style="stroke:#222255; stroke-width:2; stroke-opacity:0.05; fill:none" points="
  209.936,1496.89 3952.76,1496.89 
  "/>
<polyline clip-path="url(#clip252)" style="stroke:#222255; stroke-width:2; stroke-opacity:0.05; fill:none" points="
  209.936,1438.37 3952.76,1438.37 
  "/>
<polyline clip-path="url(#clip252)" style="stroke:#222255; stroke-width:2; stroke-opacity:0.05; fill:none" points="
  209.936,1321.33 3952.76,1321.33 
  "/>
<polyline clip-path="url(#clip252)" style="stroke:#222255; stroke-width:2; stroke-opacity:0.05; fill:none" points="
  209.936,1262.81 3952.76,1262.81 
  "/>
<polyline clip-path="url(#clip252)" style="stroke:#222255; stroke-width:2; stroke-opacity:0.05; fill:none" points="
  209.936,1204.29 3952.76,1204.29 
  "/>
<polyline clip-path="url(#clip252)" style="stroke:#222255; stroke-width:2; stroke-opacity:0.05; fill:none" points="
  209.936,1145.77 3952.76,1145.77 
  "/>
<polyline clip-path="url(#clip252)" style="stroke:#222255; stroke-width:2; stroke-opacity:0.05; fill:none" points="
  209.936,1028.73 3952.76,1028.73 
  "/>
<polyline clip-path="url(#clip252)" style="stroke:#222255; stroke-width:2; stroke-opacity:0.05; fill:none" points="
  209.936,970.209 3952.76,970.209 
  "/>
<polyline clip-path="url(#clip252)" style="stroke:#222255; stroke-width:2; stroke-opacity:0.05; fill:none" points="
  209.936,911.689 3952.76,911.689 
  "/>
<polyline clip-path="url(#clip252)" style="stroke:#222255; stroke-width:2; stroke-opacity:0.05; fill:none" points="
  209.936,853.169 3952.76,853.169 
  "/>
<polyline clip-path="url(#clip252)" style="stroke:#222255; stroke-width:2; stroke-opacity:0.05; fill:none" points="
  209.936,736.129 3952.76,736.129 
  "/>
<polyline clip-path="url(#clip252)" style="stroke:#222255; stroke-width:2; stroke-opacity:0.05; fill:none" points="
  209.936,677.609 3952.76,677.609 
  "/>
<polyline clip-path="url(#clip252)" style="stroke:#222255; stroke-width:2; stroke-opacity:0.05; fill:none" points="
  209.936,619.089 3952.76,619.089 
  "/>
<polyline clip-path="url(#clip252)" style="stroke:#222255; stroke-width:2; stroke-opacity:0.05; fill:none" points="
  209.936,560.569 3952.76,560.569 
  "/>
<polyline clip-path="url(#clip252)" style="stroke:#222255; stroke-width:2; stroke-opacity:0.05; fill:none" points="
  209.936,443.53 3952.76,443.53 
  "/>
<polyline clip-path="url(#clip252)" style="stroke:#222255; stroke-width:2; stroke-opacity:0.05; fill:none" points="
  209.936,385.01 3952.76,385.01 
  "/>
<polyline clip-path="url(#clip252)" style="stroke:#222255; stroke-width:2; stroke-opacity:0.05; fill:none" points="
  209.936,326.49 3952.76,326.49 
  "/>
<polyline clip-path="url(#clip252)" style="stroke:#222255; stroke-width:2; stroke-opacity:0.05; fill:none" points="
  209.936,267.97 3952.76,267.97 
  "/>
<polyline clip-path="url(#clip252)" style="stroke:#222255; stroke-width:2; stroke-opacity:0.05; fill:none" points="
  209.936,150.93 3952.76,150.93 
  "/>
<polyline clip-path="url(#clip252)" style="stroke:#222255; stroke-width:2; stroke-opacity:0.05; fill:none" points="
  209.936,92.4105 3952.76,92.4105 
  "/>
<polyline clip-path="url(#clip250)" style="stroke:#222255; stroke-width:4; stroke-opacity:0; fill:none" points="
  209.936,1379.85 254.85,1379.85 
  "/>
<polyline clip-path="url(#clip250)" style="stroke:#222255; stroke-width:4; stroke-opacity:0; fill:none" points="
  209.936,1087.25 254.85,1087.25 
  "/>
<polyline clip-path="url(#clip250)" style="stroke:#222255; stroke-width:4; stroke-opacity:0; fill:none" points="
  209.936,794.649 254.85,794.649 
  "/>
<polyline clip-path="url(#clip250)" style="stroke:#222255; stroke-width:4; stroke-opacity:0; fill:none" points="
  209.936,502.05 254.85,502.05 
  "/>
<polyline clip-path="url(#clip250)" style="stroke:#222255; stroke-width:4; stroke-opacity:0; fill:none" points="
  209.936,209.45 254.85,209.45 
  "/>
<polyline clip-path="url(#clip250)" style="stroke:#222255; stroke-width:4; stroke-opacity:0; fill:none" points="
  209.936,1496.89 232.393,1496.89 
  "/>
<polyline clip-path="url(#clip250)" style="stroke:#222255; stroke-width:4; stroke-opacity:0; fill:none" points="
  209.936,1438.37 232.393,1438.37 
  "/>
<polyline clip-path="url(#clip250)" style="stroke:#222255; stroke-width:4; stroke-opacity:0; fill:none" points="
  209.936,1321.33 232.393,1321.33 
  "/>
<polyline clip-path="url(#clip250)" style="stroke:#222255; stroke-width:4; stroke-opacity:0; fill:none" points="
  209.936,1262.81 232.393,1262.81 
  "/>
<polyline clip-path="url(#clip250)" style="stroke:#222255; stroke-width:4; stroke-opacity:0; fill:none" points="
  209.936,1204.29 232.393,1204.29 
  "/>
<polyline clip-path="url(#clip250)" style="stroke:#222255; stroke-width:4; stroke-opacity:0; fill:none" points="
  209.936,1145.77 232.393,1145.77 
  "/>
<polyline clip-path="url(#clip250)" style="stroke:#222255; stroke-width:4; stroke-opacity:0; fill:none" points="
  209.936,1028.73 232.393,1028.73 
  "/>
<polyline clip-path="url(#clip250)" style="stroke:#222255; stroke-width:4; stroke-opacity:0; fill:none" points="
  209.936,970.209 232.393,970.209 
  "/>
<polyline clip-path="url(#clip250)" style="stroke:#222255; stroke-width:4; stroke-opacity:0; fill:none" points="
  209.936,911.689 232.393,911.689 
  "/>
<polyline clip-path="url(#clip250)" style="stroke:#222255; stroke-width:4; stroke-opacity:0; fill:none" points="
  209.936,853.169 232.393,853.169 
  "/>
<polyline clip-path="url(#clip250)" style="stroke:#222255; stroke-width:4; stroke-opacity:0; fill:none" points="
  209.936,736.129 232.393,736.129 
  "/>
<polyline clip-path="url(#clip250)" style="stroke:#222255; stroke-width:4; stroke-opacity:0; fill:none" points="
  209.936,677.609 232.393,677.609 
  "/>
<polyline clip-path="url(#clip250)" style="stroke:#222255; stroke-width:4; stroke-opacity:0; fill:none" points="
  209.936,619.089 232.393,619.089 
  "/>
<polyline clip-path="url(#clip250)" style="stroke:#222255; stroke-width:4; stroke-opacity:0; fill:none" points="
  209.936,560.569 232.393,560.569 
  "/>
<polyline clip-path="url(#clip250)" style="stroke:#222255; stroke-width:4; stroke-opacity:0; fill:none" points="
  209.936,443.53 232.393,443.53 
  "/>
<polyline clip-path="url(#clip250)" style="stroke:#222255; stroke-width:4; stroke-opacity:0; fill:none" points="
  209.936,385.01 232.393,385.01 
  "/>
<polyline clip-path="url(#clip250)" style="stroke:#222255; stroke-width:4; stroke-opacity:0; fill:none" points="
  209.936,326.49 232.393,326.49 
  "/>
<polyline clip-path="url(#clip250)" style="stroke:#222255; stroke-width:4; stroke-opacity:0; fill:none" points="
  209.936,267.97 232.393,267.97 
  "/>
<polyline clip-path="url(#clip250)" style="stroke:#222255; stroke-width:4; stroke-opacity:0; fill:none" points="
  209.936,150.93 232.393,150.93 
  "/>
<polyline clip-path="url(#clip250)" style="stroke:#222255; stroke-width:4; stroke-opacity:0; fill:none" points="
  209.936,92.4105 232.393,92.4105 
  "/>
<path clip-path="url(#clip250)" d="M 0 0 M42.9921 1380.3 L72.6679 1380.3 L72.6679 1384.23 L42.9921 1384.23 L42.9921 1380.3 Z" fill="#000000" fill-rule="evenodd" fill-opacity="1" /><path clip-path="url(#clip250)" d="M 0 0 M83.5706 1393.19 L91.2095 1393.19 L91.2095 1366.83 L82.8993 1368.49 L82.8993 1364.23 L91.1632 1362.57 L95.8391 1362.57 L95.8391 1393.19 L103.478 1393.19 L103.478 1397.13 L83.5706 1397.13 L83.5706 1393.19 Z" fill="#000000" fill-rule="evenodd" fill-opacity="1" /><path clip-path="url(#clip250)" d="M 0 0 M112.922 1391.25 L117.807 1391.25 L117.807 1397.13 L112.922 1397.13 L112.922 1391.25 Z" fill="#000000" fill-rule="evenodd" fill-opacity="1" /><path clip-path="url(#clip250)" d="M 0 0 M137.992 1365.65 Q134.381 1365.65 132.552 1369.21 Q130.746 1372.75 130.746 1379.88 Q130.746 1386.99 132.552 1390.55 Q134.381 1394.1 137.992 1394.1 Q141.626 1394.1 143.431 1390.55 Q145.26 1386.99 145.26 1379.88 Q145.26 1372.75 143.431 1369.21 Q141.626 1365.65 137.992 1365.65 M137.992 1361.94 Q143.802 1361.94 146.857 1366.55 Q149.936 1371.13 149.936 1379.88 Q149.936 1388.61 146.857 1393.22 Q143.802 1397.8 137.992 1397.8 Q132.181 1397.8 129.103 1393.22 Q126.047 1388.61 126.047 1379.88 Q126.047 1371.13 129.103 1366.55 Q132.181 1361.94 137.992 1361.94 Z" fill="#000000" fill-rule="evenodd" fill-opacity="1" /><path clip-path="url(#clip250)" d="M 0 0 M43.9875 1087.7 L73.6633 1087.7 L73.6633 1091.63 L43.9875 1091.63 L43.9875 1087.7 Z" fill="#000000" fill-rule="evenodd" fill-opacity="1" /><path clip-path="url(#clip250)" d="M 0 0 M93.7557 1073.05 Q90.1447 1073.05 88.316 1076.61 Q86.5104 1080.15 86.5104 1087.28 Q86.5104 1094.39 88.316 1097.95 Q90.1447 1101.5 93.7557 1101.5 Q97.39 1101.5 99.1955 1097.95 Q101.024 1094.39 101.024 1087.28 Q101.024 1080.15 99.1955 1076.61 Q97.39 1073.05 93.7557 1073.05 M93.7557 1069.34 Q99.5659 1069.34 102.621 1073.95 Q105.7 1078.53 105.7 1087.28 Q105.7 1096.01 102.621 1100.62 Q99.5659 1105.2 93.7557 1105.2 Q87.9456 1105.2 84.8669 1100.62 Q81.8114 1096.01 81.8114 1087.28 Q81.8114 1078.53 84.8669 1073.95 Q87.9456 1069.34 93.7557 1069.34 Z" fill="#000000" fill-rule="evenodd" fill-opacity="1" /><path clip-path="url(#clip250)" d="M 0 0 M113.918 1098.65 L118.802 1098.65 L118.802 1104.53 L113.918 1104.53 L113.918 1098.65 Z" fill="#000000" fill-rule="evenodd" fill-opacity="1" /><path clip-path="url(#clip250)" d="M 0 0 M129.033 1069.97 L147.39 1069.97 L147.39 1073.9 L133.316 1073.9 L133.316 1082.38 Q134.334 1082.03 135.353 1081.87 Q136.371 1081.68 137.39 1081.68 Q143.177 1081.68 146.556 1084.85 Q149.936 1088.02 149.936 1093.44 Q149.936 1099.02 146.464 1102.12 Q142.992 1105.2 136.672 1105.2 Q134.496 1105.2 132.228 1104.83 Q129.982 1104.46 127.575 1103.72 L127.575 1099.02 Q129.658 1100.15 131.881 1100.71 Q134.103 1101.26 136.58 1101.26 Q140.584 1101.26 142.922 1099.16 Q145.26 1097.05 145.26 1093.44 Q145.26 1089.83 142.922 1087.72 Q140.584 1085.62 136.58 1085.62 Q134.705 1085.62 132.83 1086.03 Q130.978 1086.45 129.033 1087.33 L129.033 1069.97 Z" fill="#000000" fill-rule="evenodd" fill-opacity="1" /><path clip-path="url(#clip250)" d="M 0 0 M92.7604 780.448 Q89.1493 780.448 87.3206 784.012 Q85.515 787.554 85.515 794.684 Q85.515 801.79 87.3206 805.355 Q89.1493 808.897 92.7604 808.897 Q96.3946 808.897 98.2002 805.355 Q100.029 801.79 100.029 794.684 Q100.029 787.554 98.2002 784.012 Q96.3946 780.448 92.7604 780.448 M92.7604 776.744 Q98.5705 776.744 101.626 781.35 Q104.705 785.934 104.705 794.684 Q104.705 803.41 101.626 808.017 Q98.5705 812.6 92.7604 812.6 Q86.9502 812.6 83.8715 808.017 Q80.816 803.41 80.816 794.684 Q80.816 785.934 83.8715 781.35 Q86.9502 776.744 92.7604 776.744 Z" fill="#000000" fill-rule="evenodd" fill-opacity="1" /><path clip-path="url(#clip250)" d="M 0 0 M112.922 806.049 L117.807 806.049 L117.807 811.929 L112.922 811.929 L112.922 806.049 Z" fill="#000000" fill-rule="evenodd" fill-opacity="1" /><path clip-path="url(#clip250)" d="M 0 0 M137.992 780.448 Q134.381 780.448 132.552 784.012 Q130.746 787.554 130.746 794.684 Q130.746 801.79 132.552 805.355 Q134.381 808.897 137.992 808.897 Q141.626 808.897 143.431 805.355 Q145.26 801.79 145.26 794.684 Q145.26 787.554 143.431 784.012 Q141.626 780.448 137.992 780.448 M137.992 776.744 Q143.802 776.744 146.857 781.35 Q149.936 785.934 149.936 794.684 Q149.936 803.41 146.857 808.017 Q143.802 812.6 137.992 812.6 Q132.181 812.6 129.103 808.017 Q126.047 803.41 126.047 794.684 Q126.047 785.934 129.103 781.35 Q132.181 776.744 137.992 776.744 Z" fill="#000000" fill-rule="evenodd" fill-opacity="1" /><path clip-path="url(#clip250)" d="M 0 0 M93.7557 487.848 Q90.1447 487.848 88.316 491.413 Q86.5104 494.955 86.5104 502.084 Q86.5104 509.191 88.316 512.756 Q90.1447 516.297 93.7557 516.297 Q97.39 516.297 99.1955 512.756 Q101.024 509.191 101.024 502.084 Q101.024 494.955 99.1955 491.413 Q97.39 487.848 93.7557 487.848 M93.7557 484.145 Q99.5659 484.145 102.621 488.751 Q105.7 493.334 105.7 502.084 Q105.7 510.811 102.621 515.418 Q99.5659 520.001 93.7557 520.001 Q87.9456 520.001 84.8669 515.418 Q81.8114 510.811 81.8114 502.084 Q81.8114 493.334 84.8669 488.751 Q87.9456 484.145 93.7557 484.145 Z" fill="#000000" fill-rule="evenodd" fill-opacity="1" /><path clip-path="url(#clip250)" d="M 0 0 M113.918 513.45 L118.802 513.45 L118.802 519.33 L113.918 519.33 L113.918 513.45 Z" fill="#000000" fill-rule="evenodd" fill-opacity="1" /><path clip-path="url(#clip250)" d="M 0 0 M129.033 484.77 L147.39 484.77 L147.39 488.705 L133.316 488.705 L133.316 497.177 Q134.334 496.83 135.353 496.668 Q136.371 496.482 137.39 496.482 Q143.177 496.482 146.556 499.654 Q149.936 502.825 149.936 508.242 Q149.936 513.82 146.464 516.922 Q142.992 520.001 136.672 520.001 Q134.496 520.001 132.228 519.631 Q129.982 519.26 127.575 518.519 L127.575 513.82 Q129.658 514.955 131.881 515.51 Q134.103 516.066 136.58 516.066 Q140.584 516.066 142.922 513.959 Q145.26 511.853 145.26 508.242 Q145.26 504.631 142.922 502.524 Q140.584 500.418 136.58 500.418 Q134.705 500.418 132.83 500.834 Q130.978 501.251 129.033 502.131 L129.033 484.77 Z" fill="#000000" fill-rule="evenodd" fill-opacity="1" /><path clip-path="url(#clip250)" d="M 0 0 M83.5706 222.795 L91.2095 222.795 L91.2095 196.429 L82.8993 198.096 L82.8993 193.837 L91.1632 192.17 L95.8391 192.17 L95.8391 222.795 L103.478 222.795 L103.478 226.73 L83.5706 226.73 L83.5706 222.795 Z" fill="#000000" fill-rule="evenodd" fill-opacity="1" /><path clip-path="url(#clip250)" d="M 0 0 M112.922 220.851 L117.807 220.851 L117.807 226.73 L112.922 226.73 L112.922 220.851 Z" fill="#000000" fill-rule="evenodd" fill-opacity="1" /><path clip-path="url(#clip250)" d="M 0 0 M137.992 195.249 Q134.381 195.249 132.552 198.814 Q130.746 202.355 130.746 209.485 Q130.746 216.591 132.552 220.156 Q134.381 223.698 137.992 223.698 Q141.626 223.698 143.431 220.156 Q145.26 216.591 145.26 209.485 Q145.26 202.355 143.431 198.814 Q141.626 195.249 137.992 195.249 M137.992 191.545 Q143.802 191.545 146.857 196.152 Q149.936 200.735 149.936 209.485 Q149.936 218.212 146.857 222.818 Q143.802 227.402 137.992 227.402 Q132.181 227.402 129.103 222.818 Q126.047 218.212 126.047 209.485 Q126.047 200.735 129.103 196.152 Q132.181 191.545 137.992 191.545 Z" fill="#000000" fill-rule="evenodd" fill-opacity="1" /><polyline clip-path="url(#clip252)" style="stroke:#ee7733; stroke-width:8; stroke-opacity:1; fill:none" points="
  315.865,636.748 351.531,663.685 387.197,690.623 422.864,717.56 458.53,744.497 494.196,771.435 529.863,798.372 565.529,825.311 601.195,852.251 636.861,879.19 
  672.528,906.13 708.194,933.069 743.86,960.009 779.527,986.948 815.193,1013.89 850.859,1040.83 886.525,1067.77 922.192,1094.71 957.858,1121.65 993.524,1148.59 
  1029.19,1175.52 1064.86,1202.46 1100.52,1229.4 1136.19,1256.34 1171.86,1283.28 1207.52,1310.22 1243.19,1337.16 1278.85,1364.1 1314.52,1385.27 1350.19,1394.6 
  1385.85,1389.67 1421.52,1378.09 1457.19,1363.55 1492.85,1347.89 1528.52,1330 1564.18,1311.81 1599.85,1292.99 1635.52,1272.79 1671.18,1249.77 1706.85,1223.08 
  1742.52,1195.65 1778.18,1168.1 1813.85,1137.93 1849.52,1102.79 1885.18,1061.42 1920.85,1018.53 1956.51,974.497 1992.18,930.133 2027.85,885.395 2063.51,840.257 
  2099.18,795.066 2134.85,750.103 2170.51,705.403 2206.18,661.116 2241.84,617.157 2277.51,573.521 2313.18,530.243 2348.84,487.822 2384.51,446.495 2420.18,408.791 
  2455.84,373.9 2491.51,342.14 2527.17,313.369 2562.84,287.695 2598.51,266.02 2634.17,247.165 2669.84,230.633 2705.51,216.131 2741.17,204.281 2776.84,195.425 
  2812.5,199.65 2848.17,210.305 2883.84,227.123 2919.5,254.971 2955.17,283.907 2990.84,312.843 3026.5,341.779 3062.17,370.716 3097.84,399.652 3133.5,428.588 
  3169.17,457.524 3204.83,486.46 3240.5,515.396 3276.17,544.332 3311.83,573.268 3347.5,602.205 3383.17,631.141 3418.83,660.077 3454.5,689.013 3490.16,717.949 
  3525.83,746.885 3561.5,775.821 3597.16,804.758 3632.83,833.694 3668.5,862.631 3704.16,891.57 3739.83,920.508 3775.49,949.446 3811.16,978.384 3846.83,1007.32 
  
  "/>
<polyline clip-path="url(#clip252)" style="stroke:#0077bb; stroke-width:4.8; stroke-opacity:1; fill:none" points="
  315.865,380.851 351.531,414.946 387.197,451.429 422.864,490.072 458.53,530.63 494.196,572.849 529.863,616.464 565.529,661.199 601.195,706.774 636.861,752.901 
  672.528,799.291 708.194,845.652 743.86,891.692 779.527,937.122 815.193,981.655 850.859,1025.01 886.525,1066.92 922.192,1107.12 957.858,1145.35 993.524,1181.37 
  1029.19,1214.96 1064.86,1245.91 1100.52,1274.02 1136.19,1299.11 1171.86,1321.03 1207.52,1339.64 1243.19,1354.82 1278.85,1366.47 1314.52,1374.53 1350.19,1378.95 
  1385.85,1379.68 1421.52,1376.74 1457.19,1370.13 1492.85,1359.91 1528.52,1346.13 1564.18,1328.88 1599.85,1308.27 1635.52,1284.42 1671.18,1257.5 1706.85,1227.67 
  1742.52,1195.11 1778.18,1160.03 1813.85,1122.66 1849.52,1083.22 1885.18,1041.96 1920.85,999.155 1956.51,955.059 1992.18,909.954 2027.85,864.123 2063.51,817.856 
  2099.18,771.442 2134.85,725.175 2170.51,679.344 2206.18,634.239 2241.84,590.143 2277.51,547.333 2313.18,506.079 2348.84,466.641 2384.51,429.265 2420.18,394.188 
  2455.84,361.63 2491.51,331.796 2527.17,304.874 2562.84,281.032 2598.51,260.422 2634.17,243.172 2669.84,229.39 2705.51,219.165 2741.17,212.56 2776.84,209.616 
  2812.5,210.352 2848.17,214.764 2883.84,222.824 2919.5,234.481 2955.17,249.661 2990.84,268.269 3026.5,290.189 3062.17,315.282 3097.84,343.391 3133.5,374.338 
  3169.17,407.929 3204.83,443.952 3240.5,482.182 3276.17,522.377 3311.83,564.285 3347.5,607.642 3383.17,652.176 3418.83,697.605 3454.5,743.645 3490.16,790.006 
  3525.83,836.397 3561.5,882.524 3597.16,928.099 3632.83,972.834 3668.5,1016.45 3704.16,1058.67 3739.83,1099.23 3775.49,1137.87 3811.16,1174.35 3846.83,1208.45 
  
  "/>
<circle clip-path="url(#clip252)" cx="2742.52" cy="176.497" r="21" fill="#ee3377" fill-rule="evenodd" fill-opacity="1" stroke="#000000" stroke-opacity="1" stroke-width="0"/>
<circle clip-path="url(#clip252)" cx="1045.54" cy="1208.95" r="21" fill="#ee3377" fill-rule="evenodd" fill-opacity="1" stroke="#000000" stroke-opacity="1" stroke-width="0"/>
<circle clip-path="url(#clip252)" cx="1634.65" cy="1209.82" r="21" fill="#ee3377" fill-rule="evenodd" fill-opacity="1" stroke="#000000" stroke-opacity="1" stroke-width="0"/>
<circle clip-path="url(#clip252)" cx="3153.49" cy="407.256" r="21" fill="#ee3377" fill-rule="evenodd" fill-opacity="1" stroke="#000000" stroke-opacity="1" stroke-width="0"/>
<circle clip-path="url(#clip252)" cx="1353.31" cy="1459.15" r="21" fill="#ee3377" fill-rule="evenodd" fill-opacity="1" stroke="#000000" stroke-opacity="1" stroke-width="0"/>
<circle clip-path="url(#clip252)" cx="2806.71" cy="88.3675" r="21" fill="#ee3377" fill-rule="evenodd" fill-opacity="1" stroke="#000000" stroke-opacity="1" stroke-width="0"/>
<circle clip-path="url(#clip252)" cx="749.947" cy="921.084" r="21" fill="#ee3377" fill-rule="evenodd" fill-opacity="1" stroke="#000000" stroke-opacity="1" stroke-width="0"/>
<circle clip-path="url(#clip252)" cx="2319.94" cy="556.613" r="21" fill="#ee3377" fill-rule="evenodd" fill-opacity="1" stroke="#000000" stroke-opacity="1" stroke-width="0"/>
<circle clip-path="url(#clip252)" cx="2599.05" cy="306.159" r="21" fill="#ee3377" fill-rule="evenodd" fill-opacity="1" stroke="#000000" stroke-opacity="1" stroke-width="0"/>
<circle clip-path="url(#clip252)" cx="2042.81" cy="875.929" r="21" fill="#ee3377" fill-rule="evenodd" fill-opacity="1" stroke="#000000" stroke-opacity="1" stroke-width="0"/>
<circle clip-path="url(#clip252)" cx="1601.59" cy="1304.73" r="21" fill="#ee3377" fill-rule="evenodd" fill-opacity="1" stroke="#000000" stroke-opacity="1" stroke-width="0"/>
<circle clip-path="url(#clip252)" cx="1443.81" cy="1382.54" r="21" fill="#ee3377" fill-rule="evenodd" fill-opacity="1" stroke="#000000" stroke-opacity="1" stroke-width="0"/>
<circle clip-path="url(#clip252)" cx="3336.8" cy="633.525" r="21" fill="#ee3377" fill-rule="evenodd" fill-opacity="1" stroke="#000000" stroke-opacity="1" stroke-width="0"/>
<circle clip-path="url(#clip252)" cx="2924.54" cy="252.23" r="21" fill="#ee3377" fill-rule="evenodd" fill-opacity="1" stroke="#000000" stroke-opacity="1" stroke-width="0"/>
<circle clip-path="url(#clip252)" cx="3470.1" cy="761.504" r="21" fill="#ee3377" fill-rule="evenodd" fill-opacity="1" stroke="#000000" stroke-opacity="1" stroke-width="0"/>
<circle clip-path="url(#clip252)" cx="3358.48" cy="606.882" r="21" fill="#ee3377" fill-rule="evenodd" fill-opacity="1" stroke="#000000" stroke-opacity="1" stroke-width="0"/>
<circle clip-path="url(#clip252)" cx="1806.38" cy="1116.93" r="21" fill="#ee3377" fill-rule="evenodd" fill-opacity="1" stroke="#000000" stroke-opacity="1" stroke-width="0"/>
<circle clip-path="url(#clip252)" cx="1842.91" cy="1221.33" r="21" fill="#ee3377" fill-rule="evenodd" fill-opacity="1" stroke="#000000" stroke-opacity="1" stroke-width="0"/>
<circle clip-path="url(#clip252)" cx="897.606" cy="1045.48" r="21" fill="#ee3377" fill-rule="evenodd" fill-opacity="1" stroke="#000000" stroke-opacity="1" stroke-width="0"/>
<circle clip-path="url(#clip252)" cx="1682.61" cy="1308.04" r="21" fill="#ee3377" fill-rule="evenodd" fill-opacity="1" stroke="#000000" stroke-opacity="1" stroke-width="0"/>
<circle clip-path="url(#clip252)" cx="2390.92" cy="415.231" r="21" fill="#ee3377" fill-rule="evenodd" fill-opacity="1" stroke="#000000" stroke-opacity="1" stroke-width="0"/>
<circle clip-path="url(#clip252)" cx="1282.82" cy="1394.98" r="21" fill="#ee3377" fill-rule="evenodd" fill-opacity="1" stroke="#000000" stroke-opacity="1" stroke-width="0"/>
<circle clip-path="url(#clip252)" cx="1493.79" cy="1402.23" r="21" fill="#ee3377" fill-rule="evenodd" fill-opacity="1" stroke="#000000" stroke-opacity="1" stroke-width="0"/>
<circle clip-path="url(#clip252)" cx="1524.56" cy="1363.71" r="21" fill="#ee3377" fill-rule="evenodd" fill-opacity="1" stroke="#000000" stroke-opacity="1" stroke-width="0"/>
<circle clip-path="url(#clip252)" cx="1564.91" cy="1286.82" r="21" fill="#ee3377" fill-rule="evenodd" fill-opacity="1" stroke="#000000" stroke-opacity="1" stroke-width="0"/>
<circle clip-path="url(#clip252)" cx="3449.52" cy="671.326" r="21" fill="#ee3377" fill-rule="evenodd" fill-opacity="1" stroke="#000000" stroke-opacity="1" stroke-width="0"/>
<circle clip-path="url(#clip252)" cx="694.37" cy="785.576" r="21" fill="#ee3377" fill-rule="evenodd" fill-opacity="1" stroke="#000000" stroke-opacity="1" stroke-width="0"/>
<circle clip-path="url(#clip252)" cx="2105.53" cy="749.91" r="21" fill="#ee3377" fill-rule="evenodd" fill-opacity="1" stroke="#000000" stroke-opacity="1" stroke-width="0"/>
<circle clip-path="url(#clip252)" cx="1106.71" cy="1333.83" r="21" fill="#ee3377" fill-rule="evenodd" fill-opacity="1" stroke="#000000" stroke-opacity="1" stroke-width="0"/>
<circle clip-path="url(#clip252)" cx="1413.51" cy="1383.22" r="21" fill="#ee3377" fill-rule="evenodd" fill-opacity="1" stroke="#000000" stroke-opacity="1" stroke-width="0"/>
<circle clip-path="url(#clip252)" cx="3351.1" cy="628.722" r="21" fill="#ee3377" fill-rule="evenodd" fill-opacity="1" stroke="#000000" stroke-opacity="1" stroke-width="0"/>
<circle clip-path="url(#clip252)" cx="3441.74" cy="829.811" r="21" fill="#ee3377" fill-rule="evenodd" fill-opacity="1" stroke="#000000" stroke-opacity="1" stroke-width="0"/>
<circle clip-path="url(#clip252)" cx="2900.04" cy="197.949" r="21" fill="#ee3377" fill-rule="evenodd" fill-opacity="1" stroke="#000000" stroke-opacity="1" stroke-width="0"/>
<circle clip-path="url(#clip252)" cx="3135.39" cy="415.538" r="21" fill="#ee3377" fill-rule="evenodd" fill-opacity="1" stroke="#000000" stroke-opacity="1" stroke-width="0"/>
<circle clip-path="url(#clip252)" cx="3226.03" cy="443.129" r="21" fill="#ee3377" fill-rule="evenodd" fill-opacity="1" stroke="#000000" stroke-opacity="1" stroke-width="0"/>
<circle clip-path="url(#clip252)" cx="1315.25" cy="1386.27" r="21" fill="#ee3377" fill-rule="evenodd" fill-opacity="1" stroke="#000000" stroke-opacity="1" stroke-width="0"/>
<circle clip-path="url(#clip252)" cx="2743.33" cy="264.668" r="21" fill="#ee3377" fill-rule="evenodd" fill-opacity="1" stroke="#000000" stroke-opacity="1" stroke-width="0"/>
<circle clip-path="url(#clip252)" cx="901.015" cy="1080.21" r="21" fill="#ee3377" fill-rule="evenodd" fill-opacity="1" stroke="#000000" stroke-opacity="1" stroke-width="0"/>
<circle clip-path="url(#clip252)" cx="761.754" cy="946.482" r="21" fill="#ee3377" fill-rule="evenodd" fill-opacity="1" stroke="#000000" stroke-opacity="1" stroke-width="0"/>
<circle clip-path="url(#clip252)" cx="1481.2" cy="1306.08" r="21" fill="#ee3377" fill-rule="evenodd" fill-opacity="1" stroke="#000000" stroke-opacity="1" stroke-width="0"/>
<circle clip-path="url(#clip252)" cx="2520.24" cy="368.019" r="21" fill="#ee3377" fill-rule="evenodd" fill-opacity="1" stroke="#000000" stroke-opacity="1" stroke-width="0"/>
<circle clip-path="url(#clip252)" cx="2322.25" cy="516.765" r="21" fill="#ee3377" fill-rule="evenodd" fill-opacity="1" stroke="#000000" stroke-opacity="1" stroke-width="0"/>
<circle clip-path="url(#clip252)" cx="2478.94" cy="367.32" r="21" fill="#ee3377" fill-rule="evenodd" fill-opacity="1" stroke="#000000" stroke-opacity="1" stroke-width="0"/>
<circle clip-path="url(#clip252)" cx="2993.88" cy="247.52" r="21" fill="#ee3377" fill-rule="evenodd" fill-opacity="1" stroke="#000000" stroke-opacity="1" stroke-width="0"/>
<circle clip-path="url(#clip252)" cx="1561.34" cy="1359.01" r="21" fill="#ee3377" fill-rule="evenodd" fill-opacity="1" stroke="#000000" stroke-opacity="1" stroke-width="0"/>
<circle clip-path="url(#clip252)" cx="880.237" cy="1060.75" r="21" fill="#ee3377" fill-rule="evenodd" fill-opacity="1" stroke="#000000" stroke-opacity="1" stroke-width="0"/>
<circle clip-path="url(#clip252)" cx="3019.38" cy="148.935" r="21" fill="#ee3377" fill-rule="evenodd" fill-opacity="1" stroke="#000000" stroke-opacity="1" stroke-width="0"/>
<circle clip-path="url(#clip252)" cx="1649.08" cy="1260.26" r="21" fill="#ee3377" fill-rule="evenodd" fill-opacity="1" stroke="#000000" stroke-opacity="1" stroke-width="0"/>
<circle clip-path="url(#clip252)" cx="1699.1" cy="1186.13" r="21" fill="#ee3377" fill-rule="evenodd" fill-opacity="1" stroke="#000000" stroke-opacity="1" stroke-width="0"/>
<circle clip-path="url(#clip252)" cx="1548.98" cy="1327.19" r="21" fill="#ee3377" fill-rule="evenodd" fill-opacity="1" stroke="#000000" stroke-opacity="1" stroke-width="0"/>
<circle clip-path="url(#clip252)" cx="2238.23" cy="646.349" r="21" fill="#ee3377" fill-rule="evenodd" fill-opacity="1" stroke="#000000" stroke-opacity="1" stroke-width="0"/>
<circle clip-path="url(#clip252)" cx="2194.42" cy="610.712" r="21" fill="#ee3377" fill-rule="evenodd" fill-opacity="1" stroke="#000000" stroke-opacity="1" stroke-width="0"/>
<circle clip-path="url(#clip252)" cx="2257.62" cy="555.685" r="21" fill="#ee3377" fill-rule="evenodd" fill-opacity="1" stroke="#000000" stroke-opacity="1" stroke-width="0"/>
<circle clip-path="url(#clip252)" cx="2346.08" cy="538.818" r="21" fill="#ee3377" fill-rule="evenodd" fill-opacity="1" stroke="#000000" stroke-opacity="1" stroke-width="0"/>
<circle clip-path="url(#clip252)" cx="978.69" cy="1134.75" r="21" fill="#ee3377" fill-rule="evenodd" fill-opacity="1" stroke="#000000" stroke-opacity="1" stroke-width="0"/>
<circle clip-path="url(#clip252)" cx="2785.69" cy="193.876" r="21" fill="#ee3377" fill-rule="evenodd" fill-opacity="1" stroke="#000000" stroke-opacity="1" stroke-width="0"/>
<circle clip-path="url(#clip252)" cx="2058.71" cy="796.755" r="21" fill="#ee3377" fill-rule="evenodd" fill-opacity="1" stroke="#000000" stroke-opacity="1" stroke-width="0"/>
<circle clip-path="url(#clip252)" cx="1648.86" cy="1173.3" r="21" fill="#ee3377" fill-rule="evenodd" fill-opacity="1" stroke="#000000" stroke-opacity="1" stroke-width="0"/>
<circle clip-path="url(#clip252)" cx="2743.54" cy="199.141" r="21" fill="#ee3377" fill-rule="evenodd" fill-opacity="1" stroke="#000000" stroke-opacity="1" stroke-width="0"/>
<circle clip-path="url(#clip252)" cx="1150.89" cy="1450.84" r="21" fill="#ee3377" fill-rule="evenodd" fill-opacity="1" stroke="#000000" stroke-opacity="1" stroke-width="0"/>
<circle clip-path="url(#clip252)" cx="947.612" cy="1103.01" r="21" fill="#ee3377" fill-rule="evenodd" fill-opacity="1" stroke="#000000" stroke-opacity="1" stroke-width="0"/>
<circle clip-path="url(#clip252)" cx="1792.1" cy="1168.4" r="21" fill="#ee3377" fill-rule="evenodd" fill-opacity="1" stroke="#000000" stroke-opacity="1" stroke-width="0"/>
<circle clip-path="url(#clip252)" cx="2150.9" cy="797.648" r="21" fill="#ee3377" fill-rule="evenodd" fill-opacity="1" stroke="#000000" stroke-opacity="1" stroke-width="0"/>
<circle clip-path="url(#clip252)" cx="2762.09" cy="150.159" r="21" fill="#ee3377" fill-rule="evenodd" fill-opacity="1" stroke="#000000" stroke-opacity="1" stroke-width="0"/>
<circle clip-path="url(#clip252)" cx="1085.96" cy="1248.08" r="21" fill="#ee3377" fill-rule="evenodd" fill-opacity="1" stroke="#000000" stroke-opacity="1" stroke-width="0"/>
<circle clip-path="url(#clip252)" cx="1473.75" cy="1358.61" r="21" fill="#ee3377" fill-rule="evenodd" fill-opacity="1" stroke="#000000" stroke-opacity="1" stroke-width="0"/>
<circle clip-path="url(#clip252)" cx="866.311" cy="1026.85" r="21" fill="#ee3377" fill-rule="evenodd" fill-opacity="1" stroke="#000000" stroke-opacity="1" stroke-width="0"/>
<circle clip-path="url(#clip252)" cx="3450.58" cy="732.776" r="21" fill="#ee3377" fill-rule="evenodd" fill-opacity="1" stroke="#000000" stroke-opacity="1" stroke-width="0"/>
<circle clip-path="url(#clip252)" cx="1083.85" cy="1244.23" r="21" fill="#ee3377" fill-rule="evenodd" fill-opacity="1" stroke="#000000" stroke-opacity="1" stroke-width="0"/>
<circle clip-path="url(#clip252)" cx="1334.51" cy="1395.16" r="21" fill="#ee3377" fill-rule="evenodd" fill-opacity="1" stroke="#000000" stroke-opacity="1" stroke-width="0"/>
<circle clip-path="url(#clip252)" cx="2184.27" cy="805.08" r="21" fill="#ee3377" fill-rule="evenodd" fill-opacity="1" stroke="#000000" stroke-opacity="1" stroke-width="0"/>
<circle clip-path="url(#clip252)" cx="1101.28" cy="1295.51" r="21" fill="#ee3377" fill-rule="evenodd" fill-opacity="1" stroke="#000000" stroke-opacity="1" stroke-width="0"/>
<circle clip-path="url(#clip252)" cx="1762.73" cy="1086.22" r="21" fill="#ee3377" fill-rule="evenodd" fill-opacity="1" stroke="#000000" stroke-opacity="1" stroke-width="0"/>
<circle clip-path="url(#clip252)" cx="3192.98" cy="484.56" r="21" fill="#ee3377" fill-rule="evenodd" fill-opacity="1" stroke="#000000" stroke-opacity="1" stroke-width="0"/>
<circle clip-path="url(#clip252)" cx="2522.2" cy="295.921" r="21" fill="#ee3377" fill-rule="evenodd" fill-opacity="1" stroke="#000000" stroke-opacity="1" stroke-width="0"/>
<circle clip-path="url(#clip252)" cx="2986.85" cy="367.108" r="21" fill="#ee3377" fill-rule="evenodd" fill-opacity="1" stroke="#000000" stroke-opacity="1" stroke-width="0"/>
<circle clip-path="url(#clip252)" cx="2804.21" cy="288.738" r="21" fill="#ee3377" fill-rule="evenodd" fill-opacity="1" stroke="#000000" stroke-opacity="1" stroke-width="0"/>
<circle clip-path="url(#clip252)" cx="2040.81" cy="918.058" r="21" fill="#ee3377" fill-rule="evenodd" fill-opacity="1" stroke="#000000" stroke-opacity="1" stroke-width="0"/>
<circle clip-path="url(#clip252)" cx="1333.1" cy="1366.22" r="21" fill="#ee3377" fill-rule="evenodd" fill-opacity="1" stroke="#000000" stroke-opacity="1" stroke-width="0"/>
<circle clip-path="url(#clip252)" cx="745.118" cy="903.171" r="21" fill="#ee3377" fill-rule="evenodd" fill-opacity="1" stroke="#000000" stroke-opacity="1" stroke-width="0"/>
<circle clip-path="url(#clip252)" cx="1932.89" cy="1047.48" r="21" fill="#ee3377" fill-rule="evenodd" fill-opacity="1" stroke="#000000" stroke-opacity="1" stroke-width="0"/>
<circle clip-path="url(#clip252)" cx="1488.87" cy="1365.42" r="21" fill="#ee3377" fill-rule="evenodd" fill-opacity="1" stroke="#000000" stroke-opacity="1" stroke-width="0"/>
<circle clip-path="url(#clip252)" cx="1608.83" cy="1281.56" r="21" fill="#ee3377" fill-rule="evenodd" fill-opacity="1" stroke="#000000" stroke-opacity="1" stroke-width="0"/>
<circle clip-path="url(#clip252)" cx="3406.11" cy="667.01" r="21" fill="#ee3377" fill-rule="evenodd" fill-opacity="1" stroke="#000000" stroke-opacity="1" stroke-width="0"/>
<circle clip-path="url(#clip252)" cx="871.482" cy="1095.32" r="21" fill="#ee3377" fill-rule="evenodd" fill-opacity="1" stroke="#000000" stroke-opacity="1" stroke-width="0"/>
<circle clip-path="url(#clip252)" cx="3073.55" cy="248.73" r="21" fill="#ee3377" fill-rule="evenodd" fill-opacity="1" stroke="#000000" stroke-opacity="1" stroke-width="0"/>
<circle clip-path="url(#clip252)" cx="762.472" cy="1047.3" r="21" fill="#ee3377" fill-rule="evenodd" fill-opacity="1" stroke="#000000" stroke-opacity="1" stroke-width="0"/>
<circle clip-path="url(#clip252)" cx="3287.61" cy="600.178" r="21" fill="#ee3377" fill-rule="evenodd" fill-opacity="1" stroke="#000000" stroke-opacity="1" stroke-width="0"/>
<circle clip-path="url(#clip252)" cx="2992.23" cy="279.595" r="21" fill="#ee3377" fill-rule="evenodd" fill-opacity="1" stroke="#000000" stroke-opacity="1" stroke-width="0"/>
<circle clip-path="url(#clip252)" cx="2382.57" cy="400.805" r="21" fill="#ee3377" fill-rule="evenodd" fill-opacity="1" stroke="#000000" stroke-opacity="1" stroke-width="0"/>
<circle clip-path="url(#clip252)" cx="2338.95" cy="483.535" r="21" fill="#ee3377" fill-rule="evenodd" fill-opacity="1" stroke="#000000" stroke-opacity="1" stroke-width="0"/>
<circle clip-path="url(#clip252)" cx="1907.18" cy="1018.71" r="21" fill="#ee3377" fill-rule="evenodd" fill-opacity="1" stroke="#000000" stroke-opacity="1" stroke-width="0"/>
<circle clip-path="url(#clip252)" cx="1888.83" cy="1024.21" r="21" fill="#ee3377" fill-rule="evenodd" fill-opacity="1" stroke="#000000" stroke-opacity="1" stroke-width="0"/>
<circle clip-path="url(#clip252)" cx="2358.88" cy="380.742" r="21" fill="#ee3377" fill-rule="evenodd" fill-opacity="1" stroke="#000000" stroke-opacity="1" stroke-width="0"/>
<circle clip-path="url(#clip252)" cx="2091.96" cy="745.067" r="21" fill="#ee3377" fill-rule="evenodd" fill-opacity="1" stroke="#000000" stroke-opacity="1" stroke-width="0"/>
<circle clip-path="url(#clip252)" cx="1900.93" cy="1086.33" r="21" fill="#ee3377" fill-rule="evenodd" fill-opacity="1" stroke="#000000" stroke-opacity="1" stroke-width="0"/>
<circle clip-path="url(#clip252)" cx="726.049" cy="878.456" r="21" fill="#ee3377" fill-rule="evenodd" fill-opacity="1" stroke="#000000" stroke-opacity="1" stroke-width="0"/>
<circle clip-path="url(#clip252)" cx="3336.44" cy="564.946" r="21" fill="#ee3377" fill-rule="evenodd" fill-opacity="1" stroke="#000000" stroke-opacity="1" stroke-width="0"/>
<circle clip-path="url(#clip252)" cx="879.19" cy="989.521" r="21" fill="#ee3377" fill-rule="evenodd" fill-opacity="1" stroke="#000000" stroke-opacity="1" stroke-width="0"/>
<circle clip-path="url(#clip252)" cx="3447.4" cy="748.255" r="21" fill="#ee3377" fill-rule="evenodd" fill-opacity="1" stroke="#000000" stroke-opacity="1" stroke-width="0"/>
<path clip-path="url(#clip250)" d="
M3064.56 1451.84 L3828 1451.84 L3828 1209.92 L3064.56 1209.92  Z
  " fill="#ffffff" fill-rule="evenodd" fill-opacity="0.9"/>
<polyline clip-path="url(#clip250)" style="stroke:#222255; stroke-width:4; stroke-opacity:0.1; fill:none" points="
  3064.56,1451.84 3828,1451.84 3828,1209.92 3064.56,1209.92 3064.56,1451.84 
  "/>
<polyline clip-path="url(#clip250)" style="stroke:#ee7733; stroke-width:4; stroke-opacity:1; fill:none" points="
  3106.15,1270.4 3355.67,1270.4 
  "/>
<path clip-path="url(#clip250)" d="M 0 0 M3417.6 1266.73 Q3419.2 1263.86 3421.42 1262.49 Q3423.64 1261.13 3426.65 1261.13 Q3430.7 1261.13 3432.9 1263.97 Q3435.1 1266.8 3435.1 1272.03 L3435.1 1287.68 L3430.82 1287.68 L3430.82 1272.17 Q3430.82 1268.44 3429.5 1266.64 Q3428.18 1264.83 3425.47 1264.83 Q3422.16 1264.83 3420.24 1267.03 Q3418.32 1269.23 3418.32 1273.02 L3418.32 1287.68 L3414.04 1287.68 L3414.04 1272.17 Q3414.04 1268.42 3412.72 1266.64 Q3411.4 1264.83 3408.64 1264.83 Q3405.38 1264.83 3403.46 1267.05 Q3401.54 1269.25 3401.54 1273.02 L3401.54 1287.68 L3397.25 1287.68 L3397.25 1261.75 L3401.54 1261.75 L3401.54 1265.78 Q3402.99 1263.4 3405.03 1262.26 Q3407.07 1261.13 3409.87 1261.13 Q3412.69 1261.13 3414.66 1262.56 Q3416.65 1264 3417.6 1266.73 Z" fill="#000000" fill-rule="evenodd" fill-opacity="1" /><path clip-path="url(#clip250)" d="M 0 0 M3453.64 1264.74 Q3450.22 1264.74 3448.23 1267.42 Q3446.24 1270.09 3446.24 1274.74 Q3446.24 1279.39 3448.2 1282.08 Q3450.19 1284.74 3453.64 1284.74 Q3457.05 1284.74 3459.04 1282.05 Q3461.03 1279.37 3461.03 1274.74 Q3461.03 1270.13 3459.04 1267.45 Q3457.05 1264.74 3453.64 1264.74 M3453.64 1261.13 Q3459.2 1261.13 3462.37 1264.74 Q3465.54 1268.35 3465.54 1274.74 Q3465.54 1281.1 3462.37 1284.74 Q3459.2 1288.35 3453.64 1288.35 Q3448.06 1288.35 3444.89 1284.74 Q3441.74 1281.1 3441.74 1274.74 Q3441.74 1268.35 3444.89 1264.74 Q3448.06 1261.13 3453.64 1261.13 Z" fill="#000000" fill-rule="evenodd" fill-opacity="1" /><path clip-path="url(#clip250)" d="M 0 0 M3489.66 1265.69 L3489.66 1251.66 L3493.92 1251.66 L3493.92 1287.68 L3489.66 1287.68 L3489.66 1283.79 Q3488.32 1286.1 3486.26 1287.24 Q3484.22 1288.35 3481.35 1288.35 Q3476.65 1288.35 3473.69 1284.6 Q3470.75 1280.85 3470.75 1274.74 Q3470.75 1268.63 3473.69 1264.88 Q3476.65 1261.13 3481.35 1261.13 Q3484.22 1261.13 3486.26 1262.26 Q3488.32 1263.37 3489.66 1265.69 M3475.15 1274.74 Q3475.15 1279.44 3477.07 1282.12 Q3479.01 1284.78 3482.39 1284.78 Q3485.77 1284.78 3487.72 1282.12 Q3489.66 1279.44 3489.66 1274.74 Q3489.66 1270.04 3487.72 1267.38 Q3485.77 1264.69 3482.39 1264.69 Q3479.01 1264.69 3477.07 1267.38 Q3475.15 1270.04 3475.15 1274.74 Z" fill="#000000" fill-rule="evenodd" fill-opacity="1" /><path clip-path="url(#clip250)" d="M 0 0 M3524.87 1273.65 L3524.87 1275.73 L3505.29 1275.73 Q3505.56 1280.13 3507.92 1282.45 Q3510.31 1284.74 3514.54 1284.74 Q3517 1284.74 3519.29 1284.14 Q3521.61 1283.53 3523.87 1282.33 L3523.87 1286.36 Q3521.58 1287.33 3519.17 1287.84 Q3516.77 1288.35 3514.29 1288.35 Q3508.09 1288.35 3504.45 1284.74 Q3500.84 1281.13 3500.84 1274.97 Q3500.84 1268.6 3504.27 1264.88 Q3507.72 1261.13 3513.55 1261.13 Q3518.78 1261.13 3521.81 1264.51 Q3524.87 1267.86 3524.87 1273.65 M3520.61 1272.4 Q3520.56 1268.9 3518.64 1266.82 Q3516.74 1264.74 3513.6 1264.74 Q3510.03 1264.74 3507.88 1266.75 Q3505.75 1268.77 3505.42 1272.42 L3520.61 1272.4 Z" fill="#000000" fill-rule="evenodd" fill-opacity="1" /><path clip-path="url(#clip250)" d="M 0 0 M3531.86 1251.66 L3536.12 1251.66 L3536.12 1287.68 L3531.86 1287.68 L3531.86 1251.66 Z" fill="#000000" fill-rule="evenodd" fill-opacity="1" /><polyline clip-path="url(#clip250)" style="stroke:#0077bb; stroke-width:4; stroke-opacity:1; fill:none" points="
  3106.15,1330.88 3355.67,1330.88 
  "/>
<path clip-path="url(#clip250)" d="M 0 0 M3404.66 1314.87 L3404.66 1322.23 L3413.43 1322.23 L3413.43 1325.54 L3404.66 1325.54 L3404.66 1339.62 Q3404.66 1342.79 3405.52 1343.69 Q3406.4 1344.59 3409.06 1344.59 L3413.43 1344.59 L3413.43 1348.16 L3409.06 1348.16 Q3404.13 1348.16 3402.25 1346.33 Q3400.38 1344.48 3400.38 1339.62 L3400.38 1325.54 L3397.25 1325.54 L3397.25 1322.23 L3400.38 1322.23 L3400.38 1314.87 L3404.66 1314.87 Z" fill="#000000" fill-rule="evenodd" fill-opacity="1" /><path clip-path="url(#clip250)" d="M 0 0 M3430.82 1335.13 Q3425.66 1335.13 3423.67 1336.31 Q3421.68 1337.49 3421.68 1340.33 Q3421.68 1342.6 3423.16 1343.94 Q3424.66 1345.26 3427.23 1345.26 Q3430.77 1345.26 3432.9 1342.76 Q3435.05 1340.24 3435.05 1336.07 L3435.05 1335.13 L3430.82 1335.13 M3439.31 1333.37 L3439.31 1348.16 L3435.05 1348.16 L3435.05 1344.22 Q3433.6 1346.58 3431.42 1347.72 Q3429.24 1348.83 3426.1 1348.83 Q3422.11 1348.83 3419.75 1346.61 Q3417.42 1344.36 3417.42 1340.61 Q3417.42 1336.24 3420.33 1334.01 Q3423.27 1331.79 3429.08 1331.79 L3435.05 1331.79 L3435.05 1331.38 Q3435.05 1328.44 3433.11 1326.84 Q3431.19 1325.22 3427.69 1325.22 Q3425.47 1325.22 3423.36 1325.75 Q3421.26 1326.28 3419.31 1327.35 L3419.31 1323.41 Q3421.65 1322.51 3423.85 1322.07 Q3426.05 1321.61 3428.13 1321.61 Q3433.76 1321.61 3436.54 1324.52 Q3439.31 1327.44 3439.31 1333.37 Z" fill="#000000" fill-rule="evenodd" fill-opacity="1" /><path clip-path="url(#clip250)" d="M 0 0 M3463.11 1326.21 Q3462.39 1325.8 3461.54 1325.61 Q3460.7 1325.4 3459.68 1325.4 Q3456.07 1325.4 3454.13 1327.76 Q3452.21 1330.1 3452.21 1334.5 L3452.21 1348.16 L3447.92 1348.16 L3447.92 1322.23 L3452.21 1322.23 L3452.21 1326.26 Q3453.55 1323.9 3455.7 1322.76 Q3457.86 1321.61 3460.93 1321.61 Q3461.37 1321.61 3461.91 1321.68 Q3462.44 1321.72 3463.09 1321.84 L3463.11 1326.21 Z" fill="#000000" fill-rule="evenodd" fill-opacity="1" /><path clip-path="url(#clip250)" d="M 0 0 M3483.8 1334.89 Q3483.8 1330.26 3481.88 1327.72 Q3479.98 1325.17 3476.54 1325.17 Q3473.11 1325.17 3471.19 1327.72 Q3469.29 1330.26 3469.29 1334.89 Q3469.29 1339.5 3471.19 1342.05 Q3473.11 1344.59 3476.54 1344.59 Q3479.98 1344.59 3481.88 1342.05 Q3483.8 1339.5 3483.8 1334.89 M3488.06 1344.94 Q3488.06 1351.56 3485.12 1354.78 Q3482.18 1358.02 3476.12 1358.02 Q3473.87 1358.02 3471.88 1357.67 Q3469.89 1357.35 3468.02 1356.65 L3468.02 1352.51 Q3469.89 1353.53 3471.72 1354.01 Q3473.55 1354.5 3475.45 1354.5 Q3479.64 1354.5 3481.72 1352.3 Q3483.8 1350.13 3483.8 1345.7 L3483.8 1343.6 Q3482.48 1345.89 3480.42 1347.02 Q3478.36 1348.16 3475.49 1348.16 Q3470.73 1348.16 3467.81 1344.52 Q3464.89 1340.89 3464.89 1334.89 Q3464.89 1328.88 3467.81 1325.24 Q3470.73 1321.61 3475.49 1321.61 Q3478.36 1321.61 3480.42 1322.74 Q3482.48 1323.88 3483.8 1326.17 L3483.8 1322.23 L3488.06 1322.23 L3488.06 1344.94 Z" fill="#000000" fill-rule="evenodd" fill-opacity="1" /><path clip-path="url(#clip250)" d="M 0 0 M3519.01 1334.13 L3519.01 1336.21 L3499.43 1336.21 Q3499.71 1340.61 3502.07 1342.93 Q3504.45 1345.22 3508.69 1345.22 Q3511.14 1345.22 3513.43 1344.62 Q3515.75 1344.01 3518.02 1342.81 L3518.02 1346.84 Q3515.73 1347.81 3513.32 1348.32 Q3510.91 1348.83 3508.43 1348.83 Q3502.23 1348.83 3498.6 1345.22 Q3494.98 1341.61 3494.98 1335.45 Q3494.98 1329.08 3498.41 1325.36 Q3501.86 1321.61 3507.69 1321.61 Q3512.92 1321.61 3515.96 1324.99 Q3519.01 1328.34 3519.01 1334.13 M3514.75 1332.88 Q3514.71 1329.38 3512.79 1327.3 Q3510.89 1325.22 3507.74 1325.22 Q3504.17 1325.22 3502.02 1327.23 Q3499.89 1329.25 3499.57 1332.9 L3514.75 1332.88 Z" fill="#000000" fill-rule="evenodd" fill-opacity="1" /><path clip-path="url(#clip250)" d="M 0 0 M3530.22 1314.87 L3530.22 1322.23 L3538.99 1322.23 L3538.99 1325.54 L3530.22 1325.54 L3530.22 1339.62 Q3530.22 1342.79 3531.07 1343.69 Q3531.95 1344.59 3534.61 1344.59 L3538.99 1344.59 L3538.99 1348.16 L3534.61 1348.16 Q3529.68 1348.16 3527.81 1346.33 Q3525.93 1344.48 3525.93 1339.62 L3525.93 1325.54 L3522.81 1325.54 L3522.81 1322.23 L3525.93 1322.23 L3525.93 1314.87 L3530.22 1314.87 Z" fill="#000000" fill-rule="evenodd" fill-opacity="1" /><path clip-path="url(#clip250)" d="M 0 0 M3572.79 1312.14 L3572.79 1315.68 L3568.71 1315.68 Q3566.42 1315.68 3565.52 1316.61 Q3564.64 1317.53 3564.64 1319.94 L3564.64 1322.23 L3571.65 1322.23 L3571.65 1325.54 L3564.64 1325.54 L3564.64 1348.16 L3560.35 1348.16 L3560.35 1325.54 L3556.28 1325.54 L3556.28 1322.23 L3560.35 1322.23 L3560.35 1320.43 Q3560.35 1316.1 3562.37 1314.13 Q3564.38 1312.14 3568.76 1312.14 L3572.79 1312.14 Z" fill="#000000" fill-rule="evenodd" fill-opacity="1" /><path clip-path="url(#clip250)" d="M 0 0 M3575.91 1337.93 L3575.91 1322.23 L3580.17 1322.23 L3580.17 1337.76 Q3580.17 1341.44 3581.6 1343.3 Q3583.04 1345.13 3585.91 1345.13 Q3589.36 1345.13 3591.35 1342.93 Q3593.36 1340.73 3593.36 1336.93 L3593.36 1322.23 L3597.62 1322.23 L3597.62 1348.16 L3593.36 1348.16 L3593.36 1344.18 Q3591.81 1346.54 3589.75 1347.69 Q3587.72 1348.83 3585.01 1348.83 Q3580.54 1348.83 3578.23 1346.05 Q3575.91 1343.27 3575.91 1337.93 M3586.63 1321.61 L3586.63 1321.61 Z" fill="#000000" fill-rule="evenodd" fill-opacity="1" /><path clip-path="url(#clip250)" d="M 0 0 M3627.95 1332.51 L3627.95 1348.16 L3623.69 1348.16 L3623.69 1332.65 Q3623.69 1328.97 3622.25 1327.14 Q3620.82 1325.31 3617.95 1325.31 Q3614.5 1325.31 3612.51 1327.51 Q3610.52 1329.71 3610.52 1333.5 L3610.52 1348.16 L3606.23 1348.16 L3606.23 1322.23 L3610.52 1322.23 L3610.52 1326.26 Q3612.04 1323.92 3614.1 1322.76 Q3616.19 1321.61 3618.9 1321.61 Q3623.36 1321.61 3625.66 1324.38 Q3627.95 1327.14 3627.95 1332.51 Z" fill="#000000" fill-rule="evenodd" fill-opacity="1" /><path clip-path="url(#clip250)" d="M 0 0 M3655.1 1323.23 L3655.1 1327.21 Q3653.29 1326.21 3651.47 1325.73 Q3649.66 1325.22 3647.81 1325.22 Q3643.66 1325.22 3641.37 1327.86 Q3639.08 1330.47 3639.08 1335.22 Q3639.08 1339.96 3641.37 1342.6 Q3643.66 1345.22 3647.81 1345.22 Q3649.66 1345.22 3651.47 1344.73 Q3653.29 1344.22 3655.1 1343.23 L3655.1 1347.16 Q3653.32 1348 3651.4 1348.41 Q3649.5 1348.83 3647.35 1348.83 Q3641.49 1348.83 3638.04 1345.15 Q3634.59 1341.47 3634.59 1335.22 Q3634.59 1328.88 3638.06 1325.24 Q3641.56 1321.61 3647.62 1321.61 Q3649.59 1321.61 3651.47 1322.02 Q3653.34 1322.42 3655.1 1323.23 Z" fill="#000000" fill-rule="evenodd" fill-opacity="1" /><path clip-path="url(#clip250)" d="M 0 0 M3666.72 1314.87 L3666.72 1322.23 L3675.49 1322.23 L3675.49 1325.54 L3666.72 1325.54 L3666.72 1339.62 Q3666.72 1342.79 3667.58 1343.69 Q3668.46 1344.59 3671.12 1344.59 L3675.49 1344.59 L3675.49 1348.16 L3671.12 1348.16 Q3666.19 1348.16 3664.31 1346.33 Q3662.44 1344.48 3662.44 1339.62 L3662.44 1325.54 L3659.31 1325.54 L3659.31 1322.23 L3662.44 1322.23 L3662.44 1314.87 L3666.72 1314.87 Z" fill="#000000" fill-rule="evenodd" fill-opacity="1" /><path clip-path="url(#clip250)" d="M 0 0 M3681.09 1322.23 L3685.35 1322.23 L3685.35 1348.16 L3681.09 1348.16 L3681.09 1322.23 M3681.09 1312.14 L3685.35 1312.14 L3685.35 1317.53 L3681.09 1317.53 L3681.09 1312.14 Z" fill="#000000" fill-rule="evenodd" fill-opacity="1" /><path clip-path="url(#clip250)" d="M 0 0 M3704.31 1325.22 Q3700.89 1325.22 3698.9 1327.9 Q3696.91 1330.57 3696.91 1335.22 Q3696.91 1339.87 3698.87 1342.56 Q3700.86 1345.22 3704.31 1345.22 Q3707.72 1345.22 3709.71 1342.53 Q3711.7 1339.85 3711.7 1335.22 Q3711.7 1330.61 3709.71 1327.93 Q3707.72 1325.22 3704.31 1325.22 M3704.31 1321.61 Q3709.87 1321.61 3713.04 1325.22 Q3716.21 1328.83 3716.21 1335.22 Q3716.21 1341.58 3713.04 1345.22 Q3709.87 1348.83 3704.31 1348.83 Q3698.73 1348.83 3695.56 1345.22 Q3692.41 1341.58 3692.41 1335.22 Q3692.41 1328.83 3695.56 1325.22 Q3698.73 1321.61 3704.31 1321.61 Z" fill="#000000" fill-rule="evenodd" fill-opacity="1" /><path clip-path="url(#clip250)" d="M 0 0 M3744.82 1332.51 L3744.82 1348.16 L3740.56 1348.16 L3740.56 1332.65 Q3740.56 1328.97 3739.13 1327.14 Q3737.69 1325.31 3734.82 1325.31 Q3731.37 1325.31 3729.38 1327.51 Q3727.39 1329.71 3727.39 1333.5 L3727.39 1348.16 L3723.11 1348.16 L3723.11 1322.23 L3727.39 1322.23 L3727.39 1326.26 Q3728.92 1323.92 3730.98 1322.76 Q3733.06 1321.61 3735.77 1321.61 Q3740.24 1321.61 3742.53 1324.38 Q3744.82 1327.14 3744.82 1332.51 Z" fill="#000000" fill-rule="evenodd" fill-opacity="1" /><circle clip-path="url(#clip250)" cx="3230.91" cy="1391.36" r="23" fill="#ee3377" fill-rule="evenodd" fill-opacity="1" stroke="#000000" stroke-opacity="1" stroke-width="0"/>
<path clip-path="url(#clip250)" d="M 0 0 M3409.15 1385.7 Q3405.73 1385.7 3403.74 1388.38 Q3401.74 1391.05 3401.74 1395.7 Q3401.74 1400.35 3403.71 1403.04 Q3405.7 1405.7 3409.15 1405.7 Q3412.55 1405.7 3414.55 1403.01 Q3416.54 1400.33 3416.54 1395.7 Q3416.54 1391.09 3414.55 1388.41 Q3412.55 1385.7 3409.15 1385.7 M3409.15 1382.09 Q3414.71 1382.09 3417.88 1385.7 Q3421.05 1389.31 3421.05 1395.7 Q3421.05 1402.06 3417.88 1405.7 Q3414.71 1409.31 3409.15 1409.31 Q3403.57 1409.31 3400.4 1405.7 Q3397.25 1402.06 3397.25 1395.7 Q3397.25 1389.31 3400.4 1385.7 Q3403.57 1382.09 3409.15 1382.09 Z" fill="#000000" fill-rule="evenodd" fill-opacity="1" /><path clip-path="url(#clip250)" d="M 0 0 M3446.72 1395.7 Q3446.72 1391 3444.78 1388.34 Q3442.86 1385.65 3439.48 1385.65 Q3436.1 1385.65 3434.15 1388.34 Q3432.23 1391 3432.23 1395.7 Q3432.23 1400.4 3434.15 1403.08 Q3436.1 1405.74 3439.48 1405.74 Q3442.86 1405.74 3444.78 1403.08 Q3446.72 1400.4 3446.72 1395.7 M3432.23 1386.65 Q3433.57 1384.33 3435.61 1383.22 Q3437.67 1382.09 3440.52 1382.09 Q3445.24 1382.09 3448.18 1385.84 Q3451.14 1389.59 3451.14 1395.7 Q3451.14 1401.81 3448.18 1405.56 Q3445.24 1409.31 3440.52 1409.31 Q3437.67 1409.31 3435.61 1408.2 Q3433.57 1407.06 3432.23 1404.75 L3432.23 1408.64 L3427.95 1408.64 L3427.95 1372.62 L3432.23 1372.62 L3432.23 1386.65 Z" fill="#000000" fill-rule="evenodd" fill-opacity="1" /><path clip-path="url(#clip250)" d="M 0 0 M3474.73 1383.48 L3474.73 1387.5 Q3472.92 1386.58 3470.98 1386.11 Q3469.04 1385.65 3466.95 1385.65 Q3463.78 1385.65 3462.18 1386.62 Q3460.61 1387.6 3460.61 1389.54 Q3460.61 1391.02 3461.74 1391.88 Q3462.88 1392.71 3466.3 1393.48 L3467.76 1393.8 Q3472.3 1394.77 3474.2 1396.55 Q3476.12 1398.31 3476.12 1401.48 Q3476.12 1405.1 3473.25 1407.2 Q3470.4 1409.31 3465.4 1409.31 Q3463.32 1409.31 3461.05 1408.89 Q3458.8 1408.5 3456.3 1407.69 L3456.3 1403.29 Q3458.67 1404.52 3460.96 1405.14 Q3463.25 1405.74 3465.49 1405.74 Q3468.5 1405.74 3470.12 1404.73 Q3471.74 1403.68 3471.74 1401.81 Q3471.74 1400.07 3470.56 1399.15 Q3469.41 1398.22 3465.45 1397.36 L3463.97 1397.02 Q3460.01 1396.18 3458.25 1394.47 Q3456.49 1392.73 3456.49 1389.73 Q3456.49 1386.07 3459.08 1384.08 Q3461.67 1382.09 3466.44 1382.09 Q3468.8 1382.09 3470.89 1382.43 Q3472.97 1382.78 3474.73 1383.48 Z" fill="#000000" fill-rule="evenodd" fill-opacity="1" /><path clip-path="url(#clip250)" d="M 0 0 M3505.08 1394.61 L3505.08 1396.69 L3485.49 1396.69 Q3485.77 1401.09 3488.13 1403.41 Q3490.52 1405.7 3494.75 1405.7 Q3497.21 1405.7 3499.5 1405.1 Q3501.81 1404.49 3504.08 1403.29 L3504.08 1407.32 Q3501.79 1408.29 3499.38 1408.8 Q3496.98 1409.31 3494.5 1409.31 Q3488.3 1409.31 3484.66 1405.7 Q3481.05 1402.09 3481.05 1395.93 Q3481.05 1389.56 3484.48 1385.84 Q3487.92 1382.09 3493.76 1382.09 Q3498.99 1382.09 3502.02 1385.47 Q3505.08 1388.82 3505.08 1394.61 M3500.82 1393.36 Q3500.77 1389.86 3498.85 1387.78 Q3496.95 1385.7 3493.8 1385.7 Q3490.24 1385.7 3488.09 1387.71 Q3485.96 1389.73 3485.63 1393.38 L3500.82 1393.36 Z" fill="#000000" fill-rule="evenodd" fill-opacity="1" /><path clip-path="url(#clip250)" d="M 0 0 M3527.09 1386.69 Q3526.37 1386.28 3525.52 1386.09 Q3524.68 1385.88 3523.67 1385.88 Q3520.05 1385.88 3518.11 1388.24 Q3516.19 1390.58 3516.19 1394.98 L3516.19 1408.64 L3511.91 1408.64 L3511.91 1382.71 L3516.19 1382.71 L3516.19 1386.74 Q3517.53 1384.38 3519.68 1383.24 Q3521.84 1382.09 3524.92 1382.09 Q3525.36 1382.09 3525.89 1382.16 Q3526.42 1382.2 3527.07 1382.32 L3527.09 1386.69 Z" fill="#000000" fill-rule="evenodd" fill-opacity="1" /><path clip-path="url(#clip250)" d="M 0 0 M3528.5 1382.71 L3533.02 1382.71 L3541.12 1404.47 L3549.22 1382.71 L3553.73 1382.71 L3544.01 1408.64 L3538.23 1408.64 L3528.5 1382.71 Z" fill="#000000" fill-rule="evenodd" fill-opacity="1" /><path clip-path="url(#clip250)" d="M 0 0 M3571.4 1395.61 Q3566.23 1395.61 3564.24 1396.79 Q3562.25 1397.97 3562.25 1400.81 Q3562.25 1403.08 3563.73 1404.42 Q3565.24 1405.74 3567.81 1405.74 Q3571.35 1405.74 3573.48 1403.24 Q3575.63 1400.72 3575.63 1396.55 L3575.63 1395.61 L3571.4 1395.61 M3579.89 1393.85 L3579.89 1408.64 L3575.63 1408.64 L3575.63 1404.7 Q3574.17 1407.06 3572 1408.2 Q3569.82 1409.31 3566.67 1409.31 Q3562.69 1409.31 3560.33 1407.09 Q3557.99 1404.84 3557.99 1401.09 Q3557.99 1396.72 3560.91 1394.49 Q3563.85 1392.27 3569.66 1392.27 L3575.63 1392.27 L3575.63 1391.86 Q3575.63 1388.92 3573.69 1387.32 Q3571.77 1385.7 3568.27 1385.7 Q3566.05 1385.7 3563.94 1386.23 Q3561.84 1386.76 3559.89 1387.83 L3559.89 1383.89 Q3562.23 1382.99 3564.43 1382.55 Q3566.63 1382.09 3568.71 1382.09 Q3574.34 1382.09 3577.11 1385 Q3579.89 1387.92 3579.89 1393.85 Z" fill="#000000" fill-rule="evenodd" fill-opacity="1" /><path clip-path="url(#clip250)" d="M 0 0 M3592.88 1375.35 L3592.88 1382.71 L3601.65 1382.71 L3601.65 1386.02 L3592.88 1386.02 L3592.88 1400.1 Q3592.88 1403.27 3593.73 1404.17 Q3594.61 1405.07 3597.28 1405.07 L3601.65 1405.07 L3601.65 1408.64 L3597.28 1408.64 Q3592.35 1408.64 3590.47 1406.81 Q3588.6 1404.96 3588.6 1400.1 L3588.6 1386.02 L3585.47 1386.02 L3585.47 1382.71 L3588.6 1382.71 L3588.6 1375.35 L3592.88 1375.35 Z" fill="#000000" fill-rule="evenodd" fill-opacity="1" /><path clip-path="url(#clip250)" d="M 0 0 M3607.25 1382.71 L3611.51 1382.71 L3611.51 1408.64 L3607.25 1408.64 L3607.25 1382.71 M3607.25 1372.62 L3611.51 1372.62 L3611.51 1378.01 L3607.25 1378.01 L3607.25 1372.62 Z" fill="#000000" fill-rule="evenodd" fill-opacity="1" /><path clip-path="url(#clip250)" d="M 0 0 M3630.47 1385.7 Q3627.04 1385.7 3625.05 1388.38 Q3623.06 1391.05 3623.06 1395.7 Q3623.06 1400.35 3625.03 1403.04 Q3627.02 1405.7 3630.47 1405.7 Q3633.87 1405.7 3635.86 1403.01 Q3637.85 1400.33 3637.85 1395.7 Q3637.85 1391.09 3635.86 1388.41 Q3633.87 1385.7 3630.47 1385.7 M3630.47 1382.09 Q3636.03 1382.09 3639.2 1385.7 Q3642.37 1389.31 3642.37 1395.7 Q3642.37 1402.06 3639.2 1405.7 Q3636.03 1409.31 3630.47 1409.31 Q3624.89 1409.31 3621.72 1405.7 Q3618.57 1402.06 3618.57 1395.7 Q3618.57 1389.31 3621.72 1385.7 Q3624.89 1382.09 3630.47 1382.09 Z" fill="#000000" fill-rule="evenodd" fill-opacity="1" /><path clip-path="url(#clip250)" d="M 0 0 M3670.98 1392.99 L3670.98 1408.64 L3666.72 1408.64 L3666.72 1393.13 Q3666.72 1389.45 3665.28 1387.62 Q3663.85 1385.79 3660.98 1385.79 Q3657.53 1385.79 3655.54 1387.99 Q3653.55 1390.19 3653.55 1393.98 L3653.55 1408.64 L3649.27 1408.64 L3649.27 1382.71 L3653.55 1382.71 L3653.55 1386.74 Q3655.08 1384.4 3657.14 1383.24 Q3659.22 1382.09 3661.93 1382.09 Q3666.4 1382.09 3668.69 1384.86 Q3670.98 1387.62 3670.98 1392.99 Z" fill="#000000" fill-rule="evenodd" fill-opacity="1" /><path clip-path="url(#clip250)" d="M 0 0 M3696 1383.48 L3696 1387.5 Q3694.2 1386.58 3692.25 1386.11 Q3690.31 1385.65 3688.22 1385.65 Q3685.05 1385.65 3683.46 1386.62 Q3681.88 1387.6 3681.88 1389.54 Q3681.88 1391.02 3683.02 1391.88 Q3684.15 1392.71 3687.58 1393.48 L3689.03 1393.8 Q3693.57 1394.77 3695.47 1396.55 Q3697.39 1398.31 3697.39 1401.48 Q3697.39 1405.1 3694.52 1407.2 Q3691.67 1409.31 3686.67 1409.31 Q3684.59 1409.31 3682.32 1408.89 Q3680.08 1408.5 3677.58 1407.69 L3677.58 1403.29 Q3679.94 1404.52 3682.23 1405.14 Q3684.52 1405.74 3686.77 1405.74 Q3689.78 1405.74 3691.4 1404.73 Q3693.02 1403.68 3693.02 1401.81 Q3693.02 1400.07 3691.84 1399.15 Q3690.68 1398.22 3686.72 1397.36 L3685.24 1397.02 Q3681.28 1396.18 3679.52 1394.47 Q3677.76 1392.73 3677.76 1389.73 Q3677.76 1386.07 3680.35 1384.08 Q3682.95 1382.09 3687.72 1382.09 Q3690.08 1382.09 3692.16 1382.43 Q3694.24 1382.78 3696 1383.48 Z" fill="#000000" fill-rule="evenodd" fill-opacity="1" /></svg>
